<svg width="1920" height="676" viewBox="0 0 1920 676" fill="none" xmlns="http://www.w3.org/2000/svg">
<circle cx="278" cy="571" r="63" fill="#E8E2F3"/>
<path d="M289.785 588H267.685C267.052 588 266.585 587.867 266.285 587.6C266.019 587.3 265.885 586.833 265.885 586.2V580.15C265.885 579.517 266.019 579.067 266.285 578.8C266.585 578.5 267.052 578.35 267.685 578.35H273.285V561.65H268.685C268.052 561.65 267.585 561.517 267.285 561.25C267.019 560.95 266.885 560.483 266.885 559.85V553.8C266.885 553.167 267.019 552.717 267.285 552.45C267.585 552.15 268.052 552 268.685 552H283.185C283.819 552 284.269 552.15 284.535 552.45C284.835 552.717 284.985 553.167 284.985 553.8V578.35H289.785C290.419 578.35 290.869 578.5 291.135 578.8C291.435 579.067 291.585 579.517 291.585 580.15V586.2C291.585 586.833 291.435 587.3 291.135 587.6C290.869 587.867 290.419 588 289.785 588Z" fill="#5A06FF"/>
<circle cx="428" cy="571" r="63" fill="#E8E2F3"/>
<path d="M439.633 588H415.833C415.2 588 414.733 587.867 414.433 587.6C414.167 587.3 414.033 586.833 414.033 586.2V577.6C414.033 575.667 414.217 574.083 414.583 572.85C414.983 571.583 415.533 570.55 416.233 569.75C416.933 568.95 417.767 568.317 418.733 567.85C419.7 567.383 420.75 566.983 421.883 566.65L428.583 564.55C429.117 564.417 429.467 564.217 429.633 563.95C429.833 563.683 429.933 563.283 429.933 562.75C429.933 562.25 429.833 561.917 429.633 561.75C429.433 561.55 429.083 561.45 428.583 561.45H417.733C417.1 561.45 416.633 561.317 416.333 561.05C416.067 560.75 415.933 560.283 415.933 559.65V553.8C415.933 553.167 416.067 552.717 416.333 552.45C416.633 552.15 417.1 552 417.733 552H432.483C435.317 552 437.483 552.717 438.983 554.15C440.517 555.55 441.283 557.6 441.283 560.3V565C441.283 567.5 440.583 569.417 439.183 570.75C437.783 572.083 435.883 573.117 433.483 573.85L426.683 576C426.183 576.133 425.833 576.283 425.633 576.45C425.467 576.617 425.383 576.967 425.383 577.5V578.55H439.633C440.267 578.55 440.717 578.7 440.983 579C441.283 579.267 441.433 579.717 441.433 580.35V586.2C441.433 586.833 441.283 587.3 440.983 587.6C440.717 587.867 440.267 588 439.633 588Z" fill="#5A06FF"/>
<circle cx="730" cy="571" r="63" fill="#E8E2F3"/>
<path d="M732.975 579.65H724.525C721.292 579.65 718.959 578.983 717.525 577.65C716.125 576.283 715.425 574.183 715.425 571.35V553.8C715.425 553.167 715.559 552.717 715.825 552.45C716.125 552.15 716.592 552 717.225 552H724.975C725.609 552 726.059 552.15 726.325 552.45C726.625 552.717 726.775 553.167 726.775 553.8V567.5C726.775 568.033 726.909 568.45 727.175 568.75C727.475 569.05 727.859 569.2 728.325 569.2H732.975V553.8C732.975 553.167 733.109 552.717 733.375 552.45C733.675 552.15 734.142 552 734.775 552H742.475C743.109 552 743.559 552.15 743.825 552.45C744.125 552.717 744.275 553.167 744.275 553.8V586.2C744.275 586.833 744.125 587.3 743.825 587.6C743.559 587.867 743.109 588 742.475 588H734.775C734.142 588 733.675 587.867 733.375 587.6C733.109 587.3 732.975 586.833 732.975 586.2V579.65Z" fill="#5A06FF"/>
<ellipse cx="1031" cy="571" rx="64" ry="63" fill="#E8E2F3"/>
<path d="M1016.87 588H1006.77C1006.13 588 1005.67 587.867 1005.37 587.6C1005.1 587.3 1004.97 586.833 1004.97 586.2V576.05C1004.97 575.417 1005.1 574.967 1005.37 574.7C1005.67 574.4 1006.13 574.25 1006.77 574.25H1016.87C1017.5 574.25 1017.95 574.4 1018.22 574.7C1018.52 574.967 1018.67 575.417 1018.67 576.05V586.2C1018.67 586.833 1018.52 587.3 1018.22 587.6C1017.95 587.867 1017.5 588 1016.87 588ZM1036.06 588H1025.96C1025.32 588 1024.86 587.867 1024.56 587.6C1024.29 587.3 1024.16 586.833 1024.16 586.2V576.05C1024.16 575.417 1024.29 574.967 1024.56 574.7C1024.86 574.4 1025.32 574.25 1025.96 574.25H1036.06C1036.69 574.25 1037.14 574.4 1037.41 574.7C1037.71 574.967 1037.86 575.417 1037.86 576.05V586.2C1037.86 586.833 1037.71 587.3 1037.41 587.6C1037.14 587.867 1036.69 588 1036.06 588ZM1055.24 588H1045.14C1044.51 588 1044.04 587.867 1043.74 587.6C1043.48 587.3 1043.34 586.833 1043.34 586.2V576.05C1043.34 575.417 1043.48 574.967 1043.74 574.7C1044.04 574.4 1044.51 574.25 1045.14 574.25H1055.24C1055.88 574.25 1056.33 574.4 1056.59 574.7C1056.89 574.967 1057.04 575.417 1057.04 576.05V586.2C1057.04 586.833 1056.89 587.3 1056.59 587.6C1056.33 587.867 1055.88 588 1055.24 588Z" fill="#5A06FF"/>
<ellipse cx="579" cy="571" rx="64" ry="63" fill="#E8E2F3"/>
<path d="M567.332 578.55H579.882C580.682 578.55 581.199 578.4 581.432 578.1C581.665 577.8 581.782 577.45 581.782 577.05V575.7C581.782 575.3 581.665 574.967 581.432 574.7C581.199 574.4 580.682 574.25 579.882 574.25H571.382C570.749 574.25 570.282 574.117 569.982 573.85C569.715 573.55 569.582 573.083 569.582 572.45V567.1C569.582 566.467 569.715 566.017 569.982 565.75C570.282 565.45 570.749 565.3 571.382 565.3H576.632C577.432 565.3 577.949 565.15 578.182 564.85C578.415 564.55 578.532 564.2 578.532 563.8V563.05C578.532 562.65 578.415 562.3 578.182 562C577.949 561.7 577.432 561.55 576.632 561.55H567.332C566.699 561.55 566.232 561.417 565.932 561.15C565.665 560.85 565.532 560.383 565.532 559.75V553.8C565.532 553.167 565.665 552.717 565.932 552.45C566.232 552.15 566.699 552 567.332 552H581.282C584.049 552 586.099 552.65 587.432 553.95C588.799 555.217 589.482 556.95 589.482 559.15V562.05C589.482 563.317 589.265 564.417 588.832 565.35C588.399 566.283 587.632 566.983 586.532 567.45C588.899 567.717 590.532 568.45 591.432 569.65C592.365 570.817 592.832 572.5 592.832 574.7V579.7C592.832 582.267 592.015 584.3 590.382 585.8C588.749 587.267 586.332 588 583.132 588H567.332C566.699 588 566.232 587.867 565.932 587.6C565.665 587.3 565.532 586.833 565.532 586.2V580.35C565.532 579.717 565.665 579.267 565.932 579C566.232 578.7 566.699 578.55 567.332 578.55Z" fill="#5A06FF"/>
<circle cx="880" cy="571" r="63" fill="#E8E2F3"/>
<path d="M865.866 588H855.766C855.132 588 854.666 587.867 854.366 587.6C854.099 587.3 853.966 586.833 853.966 586.2V576.05C853.966 575.417 854.099 574.967 854.366 574.7C854.666 574.4 855.132 574.25 855.766 574.25H865.866C866.499 574.25 866.949 574.4 867.216 574.7C867.516 574.967 867.666 575.417 867.666 576.05V586.2C867.666 586.833 867.516 587.3 867.216 587.6C866.949 587.867 866.499 588 865.866 588ZM885.055 588H874.955C874.322 588 873.855 587.867 873.555 587.6C873.289 587.3 873.155 586.833 873.155 586.2V576.05C873.155 575.417 873.289 574.967 873.555 574.7C873.855 574.4 874.322 574.25 874.955 574.25H885.055C885.689 574.25 886.139 574.4 886.405 574.7C886.705 574.967 886.855 575.417 886.855 576.05V586.2C886.855 586.833 886.705 587.3 886.405 587.6C886.139 587.867 885.689 588 885.055 588ZM904.245 588H894.145C893.511 588 893.045 587.867 892.745 587.6C892.478 587.3 892.345 586.833 892.345 586.2V576.05C892.345 575.417 892.478 574.967 892.745 574.7C893.045 574.4 893.511 574.25 894.145 574.25H904.245C904.878 574.25 905.328 574.4 905.595 574.7C905.895 574.967 906.045 575.417 906.045 576.05V586.2C906.045 586.833 905.895 587.3 905.595 587.6C905.328 587.867 904.878 588 904.245 588Z" fill="#5A06FF"/>
<circle cx="1182" cy="571" r="63" fill="#E8E2F3"/>
<path d="M1167.87 588H1157.77C1157.13 588 1156.67 587.867 1156.37 587.6C1156.1 587.3 1155.97 586.833 1155.97 586.2V576.05C1155.97 575.417 1156.1 574.967 1156.37 574.7C1156.67 574.4 1157.13 574.25 1157.77 574.25H1167.87C1168.5 574.25 1168.95 574.4 1169.22 574.7C1169.52 574.967 1169.67 575.417 1169.67 576.05V586.2C1169.67 586.833 1169.52 587.3 1169.22 587.6C1168.95 587.867 1168.5 588 1167.87 588ZM1187.06 588H1176.96C1176.32 588 1175.86 587.867 1175.56 587.6C1175.29 587.3 1175.16 586.833 1175.16 586.2V576.05C1175.16 575.417 1175.29 574.967 1175.56 574.7C1175.86 574.4 1176.32 574.25 1176.96 574.25H1187.06C1187.69 574.25 1188.14 574.4 1188.41 574.7C1188.71 574.967 1188.86 575.417 1188.86 576.05V586.2C1188.86 586.833 1188.71 587.3 1188.41 587.6C1188.14 587.867 1187.69 588 1187.06 588ZM1206.24 588H1196.14C1195.51 588 1195.04 587.867 1194.74 587.6C1194.48 587.3 1194.34 586.833 1194.34 586.2V576.05C1194.34 575.417 1194.48 574.967 1194.74 574.7C1195.04 574.4 1195.51 574.25 1196.14 574.25H1206.24C1206.88 574.25 1207.33 574.4 1207.59 574.7C1207.89 574.967 1208.04 575.417 1208.04 576.05V586.2C1208.04 586.833 1207.89 587.3 1207.59 587.6C1207.33 587.867 1206.88 588 1206.24 588Z" fill="#5A06FF"/>
<circle cx="1332" cy="571" r="63" fill="#E8E2F3"/>
<path d="M1316.84 588H1305.34C1304.71 588 1304.24 587.867 1303.94 587.6C1303.68 587.3 1303.54 586.833 1303.54 586.2V580.3C1303.54 579.667 1303.68 579.217 1303.94 578.95C1304.24 578.65 1304.71 578.5 1305.34 578.5H1314.69C1315.93 578.5 1316.76 578.317 1317.19 577.95C1317.63 577.55 1317.84 576.733 1317.84 575.5V574.4C1317.04 574.633 1316.11 574.817 1315.04 574.95C1314.01 575.083 1312.83 575.15 1311.49 575.15C1306.99 575.15 1303.91 574.4 1302.24 572.9C1300.58 571.367 1299.74 569.117 1299.74 566.15V561.35C1299.74 559.817 1299.94 558.433 1300.34 557.2C1300.78 555.967 1301.53 554.917 1302.59 554.05C1303.69 553.15 1305.18 552.467 1307.04 552C1308.91 551.5 1311.28 551.25 1314.14 551.25C1317.21 551.25 1319.71 551.5 1321.64 552C1323.61 552.467 1325.14 553.15 1326.24 554.05C1327.34 554.917 1328.09 555.967 1328.49 557.2C1328.93 558.433 1329.14 559.817 1329.14 561.35V577.75C1329.14 580.783 1328.26 583.25 1326.49 585.15C1324.76 587.05 1321.54 588 1316.84 588ZM1317.84 565.1V562.15C1317.84 561.617 1317.64 561.183 1317.24 560.85C1316.84 560.483 1315.93 560.3 1314.49 560.3C1312.99 560.3 1312.04 560.483 1311.64 560.85C1311.24 561.183 1311.04 561.617 1311.04 562.15V565.1C1311.04 565.6 1311.24 566.033 1311.64 566.4C1312.04 566.733 1312.99 566.9 1314.49 566.9C1315.93 566.9 1316.84 566.733 1317.24 566.4C1317.64 566.033 1317.84 565.6 1317.84 565.1ZM1365.26 575.2V580.05C1365.26 581.35 1365.01 582.533 1364.51 583.6C1364.04 584.667 1363.23 585.583 1362.06 586.35C1360.89 587.117 1359.31 587.7 1357.31 588.1C1355.34 588.533 1352.86 588.75 1349.86 588.75C1346.86 588.75 1344.36 588.533 1342.36 588.1C1340.36 587.7 1338.78 587.117 1337.61 586.35C1336.44 585.583 1335.61 584.667 1335.11 583.6C1334.64 582.533 1334.41 581.35 1334.41 580.05V575.2C1334.41 572.867 1334.91 571.067 1335.91 569.8C1336.94 568.533 1338.21 567.75 1339.71 567.45C1338.61 566.983 1337.84 566.283 1337.41 565.35C1336.98 564.417 1336.76 563.317 1336.76 562.05V559.15C1336.76 557.917 1336.98 556.817 1337.41 555.85C1337.84 554.883 1338.56 554.067 1339.56 553.4C1340.56 552.7 1341.91 552.167 1343.61 551.8C1345.31 551.433 1347.41 551.25 1349.91 551.25C1352.41 551.25 1354.49 551.433 1356.16 551.8C1357.86 552.167 1359.19 552.7 1360.16 553.4C1361.16 554.067 1361.86 554.883 1362.26 555.85C1362.69 556.817 1362.91 557.917 1362.91 559.15V562.05C1362.91 563.317 1362.69 564.417 1362.26 565.35C1361.83 566.283 1361.06 566.983 1359.96 567.45C1361.46 567.75 1362.71 568.533 1363.71 569.8C1364.74 571.067 1365.26 572.867 1365.26 575.2ZM1346.71 564C1346.71 564.533 1346.88 564.983 1347.21 565.35C1347.58 565.683 1348.46 565.85 1349.86 565.85C1351.29 565.85 1352.16 565.683 1352.46 565.35C1352.79 564.983 1352.96 564.533 1352.96 564V561.8C1352.96 561.3 1352.79 560.883 1352.46 560.55C1352.16 560.183 1351.29 560 1349.86 560C1348.46 560 1347.58 560.183 1347.21 560.55C1346.88 560.883 1346.71 561.3 1346.71 561.8V564ZM1345.46 578.15C1345.46 578.683 1345.74 579.133 1346.31 579.5C1346.88 579.833 1348.06 580 1349.86 580C1351.66 580 1352.83 579.833 1353.36 579.5C1353.93 579.133 1354.21 578.683 1354.21 578.15V575.5C1354.21 575 1353.93 574.583 1353.36 574.25C1352.83 573.883 1351.66 573.7 1349.86 573.7C1348.06 573.7 1346.88 573.883 1346.31 574.25C1345.74 574.583 1345.46 575 1345.46 575.5V578.15Z" fill="#5A06FF"/>
<circle cx="1482" cy="571" r="63" fill="#E8E2F3"/>
<path d="M1466.78 588H1455.28C1454.65 588 1454.18 587.867 1453.88 587.6C1453.62 587.3 1453.48 586.833 1453.48 586.2V580.3C1453.48 579.667 1453.62 579.217 1453.88 578.95C1454.18 578.65 1454.65 578.5 1455.28 578.5H1464.63C1465.87 578.5 1466.7 578.317 1467.13 577.95C1467.57 577.55 1467.78 576.733 1467.78 575.5V574.4C1466.98 574.633 1466.05 574.817 1464.98 574.95C1463.95 575.083 1462.77 575.15 1461.43 575.15C1456.93 575.15 1453.85 574.4 1452.18 572.9C1450.52 571.367 1449.68 569.117 1449.68 566.15V561.35C1449.68 559.817 1449.88 558.433 1450.28 557.2C1450.72 555.967 1451.47 554.917 1452.53 554.05C1453.63 553.15 1455.12 552.467 1456.98 552C1458.85 551.5 1461.22 551.25 1464.08 551.25C1467.15 551.25 1469.65 551.5 1471.58 552C1473.55 552.467 1475.08 553.15 1476.18 554.05C1477.28 554.917 1478.03 555.967 1478.43 557.2C1478.87 558.433 1479.08 559.817 1479.08 561.35V577.75C1479.08 580.783 1478.2 583.25 1476.43 585.15C1474.7 587.05 1471.48 588 1466.78 588ZM1467.78 565.1V562.15C1467.78 561.617 1467.58 561.183 1467.18 560.85C1466.78 560.483 1465.87 560.3 1464.43 560.3C1462.93 560.3 1461.98 560.483 1461.58 560.85C1461.18 561.183 1460.98 561.617 1460.98 562.15V565.1C1460.98 565.6 1461.18 566.033 1461.58 566.4C1461.98 566.733 1462.93 566.9 1464.43 566.9C1465.87 566.9 1466.78 566.733 1467.18 566.4C1467.58 566.033 1467.78 565.6 1467.78 565.1ZM1501.45 588H1489.95C1489.32 588 1488.85 587.867 1488.55 587.6C1488.28 587.3 1488.15 586.833 1488.15 586.2V580.3C1488.15 579.667 1488.28 579.217 1488.55 578.95C1488.85 578.65 1489.32 578.5 1489.95 578.5H1499.3C1500.53 578.5 1501.37 578.317 1501.8 577.95C1502.23 577.55 1502.45 576.733 1502.45 575.5V574.4C1501.65 574.633 1500.72 574.817 1499.65 574.95C1498.62 575.083 1497.43 575.15 1496.1 575.15C1491.6 575.15 1488.52 574.4 1486.85 572.9C1485.18 571.367 1484.35 569.117 1484.35 566.15V561.35C1484.35 559.817 1484.55 558.433 1484.95 557.2C1485.38 555.967 1486.13 554.917 1487.2 554.05C1488.3 553.15 1489.78 552.467 1491.65 552C1493.52 551.5 1495.88 551.25 1498.75 551.25C1501.82 551.25 1504.32 551.5 1506.25 552C1508.22 552.467 1509.75 553.15 1510.85 554.05C1511.95 554.917 1512.7 555.967 1513.1 557.2C1513.53 558.433 1513.75 559.817 1513.75 561.35V577.75C1513.75 580.783 1512.87 583.25 1511.1 585.15C1509.37 587.05 1506.15 588 1501.45 588ZM1502.45 565.1V562.15C1502.45 561.617 1502.25 561.183 1501.85 560.85C1501.45 560.483 1500.53 560.3 1499.1 560.3C1497.6 560.3 1496.65 560.483 1496.25 560.85C1495.85 561.183 1495.65 561.617 1495.65 562.15V565.1C1495.65 565.6 1495.85 566.033 1496.25 566.4C1496.65 566.733 1497.6 566.9 1499.1 566.9C1500.53 566.9 1501.45 566.733 1501.85 566.4C1502.25 566.033 1502.45 565.6 1502.45 565.1Z" fill="#5A06FF"/>
<circle cx="1632" cy="571" r="63" fill="#E8E2F3"/>
<path d="M1607.46 588H1585.36C1584.72 588 1584.26 587.867 1583.96 587.6C1583.69 587.3 1583.56 586.833 1583.56 586.2V580.15C1583.56 579.517 1583.69 579.067 1583.96 578.8C1584.26 578.5 1584.72 578.35 1585.36 578.35H1590.96V561.65H1586.36C1585.72 561.65 1585.26 561.517 1584.96 561.25C1584.69 560.95 1584.56 560.483 1584.56 559.85V553.8C1584.56 553.167 1584.69 552.717 1584.96 552.45C1585.26 552.15 1585.72 552 1586.36 552H1600.86C1601.49 552 1601.94 552.15 1602.21 552.45C1602.51 552.717 1602.66 553.167 1602.66 553.8V578.35H1607.46C1608.09 578.35 1608.54 578.5 1608.81 578.8C1609.11 579.067 1609.26 579.517 1609.26 580.15V586.2C1609.26 586.833 1609.11 587.3 1608.81 587.6C1608.54 587.867 1608.09 588 1607.46 588ZM1644.64 578.55C1644.64 580.083 1644.42 581.483 1643.99 582.75C1643.55 583.983 1642.77 585.05 1641.64 585.95C1640.5 586.817 1638.94 587.5 1636.94 588C1634.97 588.5 1632.45 588.75 1629.39 588.75C1626.32 588.75 1623.79 588.5 1621.79 588C1619.82 587.5 1618.27 586.817 1617.14 585.95C1616 585.05 1615.2 583.983 1614.74 582.75C1614.3 581.483 1614.09 580.083 1614.09 578.55V561.5C1614.09 559.967 1614.3 558.583 1614.74 557.35C1615.2 556.083 1616 555 1617.14 554.1C1618.27 553.2 1619.82 552.5 1621.79 552C1623.79 551.5 1626.32 551.25 1629.39 551.25C1632.45 551.25 1634.97 551.5 1636.94 552C1638.94 552.5 1640.5 553.2 1641.64 554.1C1642.77 555 1643.55 556.083 1643.99 557.35C1644.42 558.583 1644.64 559.967 1644.64 561.5V578.55ZM1625.39 576.75C1625.39 577.417 1625.62 577.983 1626.09 578.45C1626.59 578.883 1627.69 579.1 1629.39 579.1C1631.09 579.1 1632.17 578.883 1632.64 578.45C1633.14 577.983 1633.39 577.417 1633.39 576.75V563.3C1633.39 562.667 1633.14 562.133 1632.64 561.7C1632.17 561.233 1631.09 561 1629.39 561C1627.69 561 1626.59 561.233 1626.09 561.7C1625.62 562.133 1625.39 562.667 1625.39 563.3V576.75ZM1680.96 578.55C1680.96 580.083 1680.75 581.483 1680.31 582.75C1679.88 583.983 1679.1 585.05 1677.96 585.95C1676.83 586.817 1675.26 587.5 1673.26 588C1671.3 588.5 1668.78 588.75 1665.71 588.75C1662.65 588.75 1660.11 588.5 1658.11 588C1656.15 587.5 1654.6 586.817 1653.46 585.95C1652.33 585.05 1651.53 583.983 1651.06 582.75C1650.63 581.483 1650.41 580.083 1650.41 578.55V561.5C1650.41 559.967 1650.63 558.583 1651.06 557.35C1651.53 556.083 1652.33 555 1653.46 554.1C1654.6 553.2 1656.15 552.5 1658.11 552C1660.11 551.5 1662.65 551.25 1665.71 551.25C1668.78 551.25 1671.3 551.5 1673.26 552C1675.26 552.5 1676.83 553.2 1677.96 554.1C1679.1 555 1679.88 556.083 1680.31 557.35C1680.75 558.583 1680.96 559.967 1680.96 561.5V578.55ZM1661.71 576.75C1661.71 577.417 1661.95 577.983 1662.41 578.45C1662.91 578.883 1664.01 579.1 1665.71 579.1C1667.41 579.1 1668.5 578.883 1668.96 578.45C1669.46 577.983 1669.71 577.417 1669.71 576.75V563.3C1669.71 562.667 1669.46 562.133 1668.96 561.7C1668.5 561.233 1667.41 561 1665.71 561C1664.01 561 1662.91 561.233 1662.41 561.7C1661.95 562.133 1661.71 562.667 1661.71 563.3V576.75Z" fill="#5A06FF"/>
<path d="M966.367 233H888.857C885.944 233 883.797 232.387 882.417 231.16C881.19 229.78 880.577 227.633 880.577 224.72V75.68C880.577 72.7667 881.19 70.6967 882.417 69.47C883.797 68.09 885.944 67.4 888.857 67.4H966.367C985.534 67.4 999.717 71.2333 1008.92 78.9C1018.27 86.5667 1022.95 98.3733 1022.95 114.32V186.08C1022.95 202.027 1018.27 213.833 1008.92 221.5C999.717 229.167 985.534 233 966.367 233ZM932.787 111.33V189.53H960.157C963.837 189.53 966.52 188.61 968.207 186.77C970.047 184.93 970.967 182.093 970.967 178.26V122.37C970.967 118.537 970.047 115.777 968.207 114.09C966.52 112.25 963.837 111.33 960.157 111.33H932.787ZM1112.21 115.7L1101.4 150.66H1137.51L1126.7 115.7C1126.09 114.32 1125.4 113.323 1124.63 112.71C1124.02 112.097 1123.25 111.79 1122.33 111.79H1116.58C1115.66 111.79 1114.82 112.097 1114.05 112.71C1113.44 113.323 1112.82 114.32 1112.21 115.7ZM1099.1 224.72C1099.1 227.633 1098.41 229.78 1097.03 231.16C1095.8 232.387 1093.73 233 1090.82 233H1057.01C1054.1 233 1051.95 232.387 1050.57 231.16C1049.34 229.78 1048.73 227.633 1048.73 224.72V164C1048.73 159.4 1049.42 154.11 1050.8 148.13C1052.33 142.15 1054.63 135.173 1057.7 127.2L1077.71 74.99C1078.63 72.3833 1080.01 70.4667 1081.85 69.24C1083.84 68.0133 1086.37 67.4 1089.44 67.4H1151.31C1154.22 67.4 1156.6 68.0133 1158.44 69.24C1160.43 70.4667 1161.89 72.3833 1162.81 74.99L1182.82 127.2C1185.89 135.173 1188.11 142.15 1189.49 148.13C1191.02 154.11 1191.79 159.4 1191.79 164V224.72C1191.79 227.633 1191.1 229.78 1189.72 231.16C1188.49 232.387 1186.42 233 1183.51 233H1148.78C1145.71 233 1143.41 232.387 1141.88 231.16C1140.5 229.78 1139.81 227.633 1139.81 224.72V192.52H1099.1V224.72ZM1298.3 233H1261.04C1258.12 233 1255.98 232.387 1254.6 231.16C1253.37 229.78 1252.76 227.633 1252.76 224.72V195.28L1217.57 148.13C1214.04 143.377 1211.66 139.237 1210.44 135.71C1209.36 132.183 1208.83 126.893 1208.83 119.84V75.68C1208.83 72.7667 1209.44 70.6967 1210.67 69.47C1212.05 68.09 1214.19 67.4 1217.11 67.4H1252.53C1255.44 67.4 1257.51 68.09 1258.74 69.47C1260.12 70.6967 1260.81 72.7667 1260.81 75.68V113.4C1260.81 114.933 1260.88 116.543 1261.04 118.23C1261.19 119.917 1261.8 121.527 1262.88 123.06L1273.46 139.62C1274.22 141 1274.99 141.997 1275.76 142.61C1276.68 143.223 1277.75 143.53 1278.98 143.53H1281.28C1282.5 143.53 1283.5 143.223 1284.27 142.61C1285.19 141.997 1286.03 141 1286.8 139.62L1297.38 123.06C1298.45 121.527 1299.06 119.917 1299.22 118.23C1299.37 116.543 1299.45 114.933 1299.45 113.4V75.68C1299.45 72.7667 1300.06 70.6967 1301.29 69.47C1302.67 68.09 1304.81 67.4 1307.73 67.4H1342C1344.91 67.4 1346.98 68.09 1348.21 69.47C1349.59 70.6967 1350.28 72.7667 1350.28 75.68V119.84C1350.28 126.893 1349.66 132.183 1348.44 135.71C1347.21 139.237 1344.91 143.377 1341.54 148.13L1306.58 195.51V224.72C1306.58 227.633 1305.89 229.78 1304.51 231.16C1303.28 232.387 1301.21 233 1298.3 233ZM1453.33 233H1380.65C1377.74 233 1375.59 232.387 1374.21 231.16C1372.99 229.78 1372.37 227.633 1372.37 224.72V197.81C1372.37 194.897 1372.99 192.827 1374.21 191.6C1375.59 190.22 1377.74 189.53 1380.65 189.53H1442.52C1444.52 189.53 1445.97 188.917 1446.89 187.69C1447.97 186.31 1448.5 184.7 1448.5 182.86C1448.5 180.253 1447.97 178.337 1446.89 177.11C1445.97 175.883 1444.52 175.193 1442.52 175.04L1408.02 170.21C1397.29 168.677 1388.63 165.15 1382.03 159.63C1375.59 154.11 1372.37 144.91 1372.37 132.03V107.88C1372.37 94.8467 1376.59 84.88 1385.02 77.98C1393.46 70.9267 1405.11 67.4 1419.98 67.4H1484.38C1487.3 67.4 1489.37 68.09 1490.59 69.47C1491.97 70.6967 1492.66 72.7667 1492.66 75.68V103.05C1492.66 105.963 1491.97 108.11 1490.59 109.49C1489.37 110.717 1487.3 111.33 1484.38 111.33H1430.79C1428.8 111.33 1427.27 112.02 1426.19 113.4C1425.12 114.627 1424.58 116.237 1424.58 118.23C1424.58 120.223 1425.12 121.91 1426.19 123.29C1427.27 124.67 1428.8 125.437 1430.79 125.59L1465.06 130.19C1475.8 131.723 1484.46 135.25 1491.05 140.77C1497.65 146.29 1500.94 155.49 1500.94 168.37V192.52C1500.94 205.553 1496.65 215.597 1488.06 222.65C1479.63 229.55 1468.05 233 1453.33 233ZM359.145 463H303.025C283.859 463 269.599 459.167 260.245 451.5C251.045 443.833 246.445 432.027 246.445 416.08V344.55C246.445 328.603 251.045 316.797 260.245 309.13C269.599 301.31 283.859 297.4 303.025 297.4H359.145C362.059 297.4 364.129 298.09 365.355 299.47C366.735 300.697 367.425 302.767 367.425 305.68V333.51C367.425 336.423 366.735 338.57 365.355 339.95C364.129 341.177 362.059 341.79 359.145 341.79H312.915C308.162 341.79 304.635 342.787 302.335 344.78C300.035 346.62 298.885 349.457 298.885 353.29V408.03C298.885 411.863 300.035 414.7 302.335 416.54C304.635 418.227 308.162 419.07 312.915 419.07H359.145C362.059 419.07 364.129 419.76 365.355 421.14C366.735 422.367 367.425 424.437 367.425 427.35V454.72C367.425 457.633 366.735 459.78 365.355 461.16C364.129 462.387 362.059 463 359.145 463ZM437.329 463H401.679C398.766 463 396.619 462.387 395.239 461.16C394.013 459.78 393.399 457.633 393.399 454.72V305.68C393.399 302.767 394.013 300.697 395.239 299.47C396.619 298.09 398.766 297.4 401.679 297.4H437.329C440.243 297.4 442.313 298.09 443.539 299.47C444.919 300.697 445.609 302.767 445.609 305.68V355.59H484.019V305.68C484.019 302.767 484.633 300.697 485.859 299.47C487.239 298.09 489.386 297.4 492.299 297.4H527.949C530.863 297.4 532.933 298.09 534.159 299.47C535.539 300.697 536.229 302.767 536.229 305.68V454.72C536.229 457.633 535.539 459.78 534.159 461.16C532.933 462.387 530.863 463 527.949 463H492.299C489.386 463 487.239 462.387 485.859 461.16C484.633 459.78 484.019 457.633 484.019 454.72V403.66H445.609V454.72C445.609 457.633 444.919 459.78 443.539 461.16C442.313 462.387 440.243 463 437.329 463ZM627.951 345.7L617.141 380.66H653.251L642.441 345.7C641.827 344.32 641.137 343.323 640.371 342.71C639.757 342.097 638.991 341.79 638.071 341.79H632.321C631.401 341.79 630.557 342.097 629.791 342.71C629.177 343.323 628.564 344.32 627.951 345.7ZM614.841 454.72C614.841 457.633 614.151 459.78 612.771 461.16C611.544 462.387 609.474 463 606.561 463H572.751C569.837 463 567.691 462.387 566.311 461.16C565.084 459.78 564.471 457.633 564.471 454.72V394C564.471 389.4 565.161 384.11 566.541 378.13C568.074 372.15 570.374 365.173 573.441 357.2L593.451 304.99C594.371 302.383 595.751 300.467 597.591 299.24C599.584 298.013 602.114 297.4 605.181 297.4H667.051C669.964 297.4 672.341 298.013 674.181 299.24C676.174 300.467 677.631 302.383 678.551 304.99L698.561 357.2C701.627 365.173 703.851 372.15 705.231 378.13C706.764 384.11 707.531 389.4 707.531 394V454.72C707.531 457.633 706.841 459.78 705.461 461.16C704.234 462.387 702.164 463 699.251 463H664.521C661.454 463 659.154 462.387 657.621 461.16C656.241 459.78 655.551 457.633 655.551 454.72V422.52H614.841V454.72ZM861.279 463H744.209C741.295 463 739.149 462.387 737.769 461.16C736.542 459.78 735.929 457.633 735.929 454.72V305.68C735.929 302.767 736.542 300.697 737.769 299.47C739.149 298.09 741.295 297.4 744.209 297.4H779.859C782.772 297.4 784.842 298.09 786.069 299.47C787.449 300.697 788.139 302.767 788.139 305.68V419.53H819.649V382.27C819.649 379.357 820.262 377.287 821.489 376.06C822.869 374.68 825.015 373.99 827.929 373.99H861.279C864.192 373.99 866.262 374.68 867.489 376.06C868.869 377.287 869.559 379.357 869.559 382.27V454.72C869.559 457.633 868.869 459.78 867.489 461.16C866.262 462.387 864.192 463 861.279 463ZM1021.2 463H904.13C901.217 463 899.07 462.387 897.69 461.16C896.464 459.78 895.85 457.633 895.85 454.72V305.68C895.85 302.767 896.464 300.697 897.69 299.47C899.07 298.09 901.217 297.4 904.13 297.4H939.78C942.694 297.4 944.764 298.09 945.99 299.47C947.37 300.697 948.06 302.767 948.06 305.68V419.53H979.57V382.27C979.57 379.357 980.184 377.287 981.41 376.06C982.79 374.68 984.937 373.99 987.85 373.99H1021.2C1024.11 373.99 1026.18 374.68 1027.41 376.06C1028.79 377.287 1029.48 379.357 1029.48 382.27V454.72C1029.48 457.633 1028.79 459.78 1027.41 461.16C1026.18 462.387 1024.11 463 1021.2 463ZM1170.77 463H1064.05C1061.14 463 1058.99 462.387 1057.61 461.16C1056.39 459.78 1055.77 457.633 1055.77 454.72V305.68C1055.77 302.767 1056.39 300.697 1057.61 299.47C1058.99 298.09 1061.14 297.4 1064.05 297.4H1170.77C1173.69 297.4 1175.76 298.09 1176.98 299.47C1178.36 300.697 1179.05 302.767 1179.05 305.68V332.59C1179.05 335.503 1178.36 337.65 1176.98 339.03C1175.76 340.257 1173.69 340.87 1170.77 340.87H1107.29V358.58H1152.14C1155.06 358.58 1157.13 359.27 1158.35 360.65C1159.73 361.877 1160.42 363.947 1160.42 366.86V391.47C1160.42 394.383 1159.73 396.53 1158.35 397.91C1157.13 399.137 1155.06 399.75 1152.14 399.75H1107.29V419.53H1170.77C1173.69 419.53 1175.76 420.22 1176.98 421.6C1178.36 422.827 1179.05 424.897 1179.05 427.81V454.72C1179.05 457.633 1178.36 459.78 1176.98 461.16C1175.76 462.387 1173.69 463 1170.77 463ZM1249.04 463H1214.54C1211.63 463 1209.48 462.387 1208.1 461.16C1206.87 459.78 1206.26 457.633 1206.26 454.72V305.68C1206.26 302.767 1206.87 300.697 1208.1 299.47C1209.48 298.09 1211.63 297.4 1214.54 297.4H1238.46C1241.37 297.4 1243.83 297.86 1245.82 298.78C1247.97 299.7 1250.04 301.31 1252.03 303.61L1296.65 354.67V305.68C1296.65 302.767 1297.26 300.697 1298.49 299.47C1299.87 298.09 1302.02 297.4 1304.93 297.4H1339.43C1342.34 297.4 1344.41 298.09 1345.64 299.47C1347.02 300.697 1347.71 302.767 1347.71 305.68V454.72C1347.71 457.633 1347.02 459.78 1345.64 461.16C1344.41 462.387 1342.34 463 1339.43 463H1304.93C1302.02 463 1299.87 462.387 1298.49 461.16C1297.26 459.78 1296.65 457.633 1296.65 454.72V426.43L1257.32 378.82V454.72C1257.32 457.633 1256.63 459.78 1255.25 461.16C1254.02 462.387 1251.95 463 1249.04 463ZM1505.93 463H1433.48C1414.32 463 1400.06 459.167 1390.7 451.5C1381.5 443.833 1376.9 432.027 1376.9 416.08V344.32C1376.9 328.373 1381.5 316.567 1390.7 308.9C1400.06 301.233 1414.32 297.4 1433.48 297.4H1490.98C1493.9 297.4 1495.97 298.09 1497.19 299.47C1498.57 300.697 1499.26 302.767 1499.26 305.68V333.51C1499.26 336.423 1498.57 338.57 1497.19 339.95C1495.97 341.177 1493.9 341.79 1490.98 341.79H1443.14C1438.39 341.79 1434.86 342.787 1432.56 344.78C1430.26 346.62 1429.11 349.457 1429.11 353.29V408.26C1429.11 412.093 1429.96 414.93 1431.64 416.77C1433.48 418.61 1436.17 419.53 1439.69 419.53H1462V383.65C1462 380.737 1462.62 378.667 1463.84 377.44C1465.22 376.06 1467.37 375.37 1470.28 375.37H1505.93C1508.85 375.37 1510.92 376.06 1512.14 377.44C1513.52 378.667 1514.21 380.737 1514.21 383.65V454.72C1514.21 457.633 1513.52 459.78 1512.14 461.16C1510.92 462.387 1508.85 463 1505.93 463ZM1657.28 463H1550.56C1547.64 463 1545.5 462.387 1544.12 461.16C1542.89 459.78 1542.28 457.633 1542.28 454.72V305.68C1542.28 302.767 1542.89 300.697 1544.12 299.47C1545.5 298.09 1547.64 297.4 1550.56 297.4H1657.28C1660.19 297.4 1662.26 298.09 1663.49 299.47C1664.87 300.697 1665.56 302.767 1665.56 305.68V332.59C1665.56 335.503 1664.87 337.65 1663.49 339.03C1662.26 340.257 1660.19 340.87 1657.28 340.87H1593.8V358.58H1638.65C1641.56 358.58 1643.63 359.27 1644.86 360.65C1646.24 361.877 1646.93 363.947 1646.93 366.86V391.47C1646.93 394.383 1646.24 396.53 1644.86 397.91C1643.63 399.137 1641.56 399.75 1638.65 399.75H1593.8V419.53H1657.28C1660.19 419.53 1662.26 420.22 1663.49 421.6C1664.87 422.827 1665.56 424.897 1665.56 427.81V454.72C1665.56 457.633 1664.87 459.78 1663.49 461.16C1662.26 462.387 1660.19 463 1657.28 463Z" fill="#323232"/>
<mask id="mask0" mask-type="alpha" maskUnits="userSpaceOnUse" x="376" y="63" width="449" height="174">
<path d="M486.303 233H384.643C381.73 233 379.583 232.387 378.203 231.16C376.977 229.78 376.363 227.633 376.363 224.72V196.89C376.363 193.977 376.977 191.907 378.203 190.68C379.583 189.3 381.73 188.61 384.643 188.61H410.403V111.79H389.243C386.33 111.79 384.183 111.177 382.803 109.95C381.577 108.57 380.963 106.423 380.963 103.51V75.68C380.963 72.7667 381.577 70.6967 382.803 69.47C384.183 68.09 386.33 67.4 389.243 67.4H455.943C458.857 67.4 460.927 68.09 462.153 69.47C463.533 70.6967 464.223 72.7667 464.223 75.68V188.61H486.303C489.217 188.61 491.287 189.3 492.513 190.68C493.893 191.907 494.583 193.977 494.583 196.89V224.72C494.583 227.633 493.893 229.78 492.513 231.16C491.287 232.387 489.217 233 486.303 233ZM657.328 189.53C657.328 196.583 656.331 203.023 654.338 208.85C652.345 214.523 648.741 219.43 643.528 223.57C638.315 227.557 631.108 230.7 621.908 233C612.861 235.3 601.285 236.45 587.178 236.45C573.071 236.45 561.418 235.3 552.218 233C543.171 230.7 536.041 227.557 530.828 223.57C525.615 219.43 521.935 214.523 519.788 208.85C517.795 203.023 516.798 196.583 516.798 189.53V111.1C516.798 104.047 517.795 97.6833 519.788 92.01C521.935 86.1833 525.615 81.2 530.828 77.06C536.041 72.92 543.171 69.7 552.218 67.4C561.418 65.1 573.071 63.95 587.178 63.95C601.285 63.95 612.861 65.1 621.908 67.4C631.108 69.7 638.315 72.92 643.528 77.06C648.741 81.2 652.345 86.1833 654.338 92.01C656.331 97.6833 657.328 104.047 657.328 111.1V189.53ZM568.778 181.25C568.778 184.317 569.851 186.923 571.998 189.07C574.298 191.063 579.358 192.06 587.178 192.06C594.998 192.06 599.981 191.063 602.128 189.07C604.428 186.923 605.578 184.317 605.578 181.25V119.38C605.578 116.467 604.428 114.013 602.128 112.02C599.981 109.873 594.998 108.8 587.178 108.8C579.358 108.8 574.298 109.873 571.998 112.02C569.851 114.013 568.778 116.467 568.778 119.38V181.25ZM824.437 189.53C824.437 196.583 823.441 203.023 821.447 208.85C819.454 214.523 815.851 219.43 810.637 223.57C805.424 227.557 798.217 230.7 789.017 233C779.971 235.3 768.394 236.45 754.287 236.45C740.181 236.45 728.527 235.3 719.327 233C710.281 230.7 703.151 227.557 697.937 223.57C692.724 219.43 689.044 214.523 686.897 208.85C684.904 203.023 683.907 196.583 683.907 189.53V111.1C683.907 104.047 684.904 97.6833 686.897 92.01C689.044 86.1833 692.724 81.2 697.937 77.06C703.151 72.92 710.281 69.7 719.327 67.4C728.527 65.1 740.181 63.95 754.287 63.95C768.394 63.95 779.971 65.1 789.017 67.4C798.217 69.7 805.424 72.92 810.637 77.06C815.851 81.2 819.454 86.1833 821.447 92.01C823.441 97.6833 824.437 104.047 824.437 111.1V189.53ZM735.887 181.25C735.887 184.317 736.961 186.923 739.107 189.07C741.407 191.063 746.467 192.06 754.287 192.06C762.107 192.06 767.091 191.063 769.237 189.07C771.537 186.923 772.687 184.317 772.687 181.25V119.38C772.687 116.467 771.537 114.013 769.237 112.02C767.091 109.873 762.107 108.8 754.287 108.8C746.467 108.8 741.407 109.873 739.107 112.02C736.961 114.013 735.887 116.467 735.887 119.38V181.25Z" fill="#5A06FF"/>
</mask>
<g mask="url(#mask0)">
<rect width="473" height="230" transform="translate(365 35)" fill="url(#paint0_linear)"/>
</g>
<defs>
<linearGradient id="paint0_linear" x1="93.5" y1="115" x2="378" y2="115" gradientUnits="userSpaceOnUse">
<stop stop-color="#0070F3"/>
<stop offset="1" stop-color="#5A06FF"/>
</linearGradient>
</defs>
</svg>
