<svg width="1920" height="1080" viewBox="0 0 1920 1080" fill="none" xmlns="http://www.w3.org/2000/svg">
<path d="M508.209 424H406.549C403.636 424 401.489 423.387 400.109 422.16C398.883 420.78 398.269 418.633 398.269 415.72V387.89C398.269 384.977 398.883 382.907 400.109 381.68C401.489 380.3 403.636 379.61 406.549 379.61H432.309V302.79H411.149C408.236 302.79 406.089 302.177 404.709 300.95C403.483 299.57 402.869 297.423 402.869 294.51V266.68C402.869 263.767 403.483 261.697 404.709 260.47C406.089 259.09 408.236 258.4 411.149 258.4H477.849C480.763 258.4 482.833 259.09 484.059 260.47C485.439 261.697 486.129 263.767 486.129 266.68V379.61H508.209C511.123 379.61 513.193 380.3 514.419 381.68C515.8 382.907 516.49 384.977 516.49 387.89V415.72C516.49 418.633 515.8 420.78 514.419 422.16C513.193 423.387 511.123 424 508.209 424ZM679.234 380.53C679.234 387.583 678.238 394.023 676.244 399.85C674.251 405.523 670.648 410.43 665.434 414.57C660.221 418.557 653.014 421.7 643.814 424C634.768 426.3 623.191 427.45 609.084 427.45C594.978 427.45 583.324 426.3 574.124 424C565.078 421.7 557.948 418.557 552.734 414.57C547.521 410.43 543.841 405.523 541.694 399.85C539.701 394.023 538.704 387.583 538.704 380.53V302.1C538.704 295.047 539.701 288.683 541.694 283.01C543.841 277.183 547.521 272.2 552.734 268.06C557.948 263.92 565.078 260.7 574.124 258.4C583.324 256.1 594.978 254.95 609.084 254.95C623.191 254.95 634.768 256.1 643.814 258.4C653.014 260.7 660.221 263.92 665.434 268.06C670.648 272.2 674.251 277.183 676.244 283.01C678.238 288.683 679.234 295.047 679.234 302.1V380.53ZM590.684 372.25C590.684 375.317 591.758 377.923 593.904 380.07C596.204 382.063 601.264 383.06 609.084 383.06C616.904 383.06 621.888 382.063 624.034 380.07C626.334 377.923 627.484 375.317 627.484 372.25V310.38C627.484 307.467 626.334 305.013 624.034 303.02C621.888 300.873 616.904 299.8 609.084 299.8C601.264 299.8 596.204 300.873 593.904 303.02C591.758 305.013 590.684 307.467 590.684 310.38V372.25ZM846.344 380.53C846.344 387.583 845.347 394.023 843.354 399.85C841.36 405.523 837.757 410.43 832.544 414.57C827.33 418.557 820.124 421.7 810.924 424C801.877 426.3 790.3 427.45 776.194 427.45C762.087 427.45 750.434 426.3 741.234 424C732.187 421.7 725.057 418.557 719.844 414.57C714.63 410.43 710.95 405.523 708.804 399.85C706.81 394.023 705.814 387.583 705.814 380.53V302.1C705.814 295.047 706.81 288.683 708.804 283.01C710.95 277.183 714.63 272.2 719.844 268.06C725.057 263.92 732.187 260.7 741.234 258.4C750.434 256.1 762.087 254.95 776.194 254.95C790.3 254.95 801.877 256.1 810.924 258.4C820.124 260.7 827.33 263.92 832.544 268.06C837.757 272.2 841.36 277.183 843.354 283.01C845.347 288.683 846.344 295.047 846.344 302.1V380.53ZM757.794 372.25C757.794 375.317 758.867 377.923 761.014 380.07C763.314 382.063 768.374 383.06 776.194 383.06C784.014 383.06 788.997 382.063 791.144 380.07C793.444 377.923 794.594 375.317 794.594 372.25V310.38C794.594 307.467 793.444 305.013 791.144 303.02C788.997 300.873 784.014 299.8 776.194 299.8C768.374 299.8 763.314 300.873 761.014 303.02C758.867 305.013 757.794 307.467 757.794 310.38V372.25Z" fill="#5A06FF"/>
<path d="M1012.9 424H935.393C932.48 424 930.333 423.387 928.953 422.16C927.726 420.78 927.113 418.633 927.113 415.72V266.68C927.113 263.767 927.726 261.697 928.953 260.47C930.333 259.09 932.48 258.4 935.393 258.4H1012.9C1032.07 258.4 1046.25 262.233 1055.45 269.9C1064.81 277.567 1069.48 289.373 1069.48 305.32V377.08C1069.48 393.027 1064.81 404.833 1055.45 412.5C1046.25 420.167 1032.07 424 1012.9 424ZM979.323 302.33V380.53H1006.69C1010.37 380.53 1013.06 379.61 1014.74 377.77C1016.58 375.93 1017.5 373.093 1017.5 369.26V313.37C1017.5 309.537 1016.58 306.777 1014.74 305.09C1013.06 303.25 1010.37 302.33 1006.69 302.33H979.323ZM1158.74 306.7L1147.93 341.66H1184.04L1173.23 306.7C1172.62 305.32 1171.93 304.323 1171.16 303.71C1170.55 303.097 1169.78 302.79 1168.86 302.79H1163.11C1162.19 302.79 1161.35 303.097 1160.58 303.71C1159.97 304.323 1159.36 305.32 1158.74 306.7ZM1145.63 415.72C1145.63 418.633 1144.94 420.78 1143.56 422.16C1142.34 423.387 1140.27 424 1137.35 424H1103.54C1100.63 424 1098.48 423.387 1097.1 422.16C1095.88 420.78 1095.26 418.633 1095.26 415.72V355C1095.26 350.4 1095.95 345.11 1097.33 339.13C1098.87 333.15 1101.17 326.173 1104.23 318.2L1124.24 265.99C1125.16 263.383 1126.54 261.467 1128.38 260.24C1130.38 259.013 1132.91 258.4 1135.97 258.4H1197.84C1200.76 258.4 1203.13 259.013 1204.97 260.24C1206.97 261.467 1208.42 263.383 1209.34 265.99L1229.35 318.2C1232.42 326.173 1234.64 333.15 1236.02 339.13C1237.56 345.11 1238.32 350.4 1238.32 355V415.72C1238.32 418.633 1237.63 420.78 1236.25 422.16C1235.03 423.387 1232.96 424 1230.04 424H1195.31C1192.25 424 1189.95 423.387 1188.41 422.16C1187.03 420.78 1186.34 418.633 1186.34 415.72V383.52H1145.63V415.72ZM1344.83 424H1307.57C1304.66 424 1302.51 423.387 1301.13 422.16C1299.91 420.78 1299.29 418.633 1299.29 415.72V386.28L1264.1 339.13C1260.58 334.377 1258.2 330.237 1256.97 326.71C1255.9 323.183 1255.36 317.893 1255.36 310.84V266.68C1255.36 263.767 1255.98 261.697 1257.2 260.47C1258.58 259.09 1260.73 258.4 1263.64 258.4H1299.06C1301.98 258.4 1304.05 259.09 1305.27 260.47C1306.65 261.697 1307.34 263.767 1307.34 266.68V304.4C1307.34 305.933 1307.42 307.543 1307.57 309.23C1307.73 310.917 1308.34 312.527 1309.41 314.06L1319.99 330.62C1320.76 332 1321.53 332.997 1322.29 333.61C1323.21 334.223 1324.29 334.53 1325.51 334.53H1327.81C1329.04 334.53 1330.04 334.223 1330.8 333.61C1331.72 332.997 1332.57 332 1333.33 330.62L1343.91 314.06C1344.99 312.527 1345.6 310.917 1345.75 309.23C1345.91 307.543 1345.98 305.933 1345.98 304.4V266.68C1345.98 263.767 1346.6 261.697 1347.82 260.47C1349.2 259.09 1351.35 258.4 1354.26 258.4H1388.53C1391.45 258.4 1393.52 259.09 1394.74 260.47C1396.12 261.697 1396.81 263.767 1396.81 266.68V310.84C1396.81 317.893 1396.2 323.183 1394.97 326.71C1393.75 330.237 1391.45 334.377 1388.07 339.13L1353.11 386.51V415.72C1353.11 418.633 1352.42 420.78 1351.04 422.16C1349.82 423.387 1347.75 424 1344.83 424ZM1499.87 424H1427.19C1424.28 424 1422.13 423.387 1420.75 422.16C1419.52 420.78 1418.91 418.633 1418.91 415.72V388.81C1418.91 385.897 1419.52 383.827 1420.75 382.6C1422.13 381.22 1424.28 380.53 1427.19 380.53H1489.06C1491.05 380.53 1492.51 379.917 1493.43 378.69C1494.5 377.31 1495.04 375.7 1495.04 373.86C1495.04 371.253 1494.5 369.337 1493.43 368.11C1492.51 366.883 1491.05 366.193 1489.06 366.04L1454.56 361.21C1443.83 359.677 1435.16 356.15 1428.57 350.63C1422.13 345.11 1418.91 335.91 1418.91 323.03V298.88C1418.91 285.847 1423.13 275.88 1431.56 268.98C1439.99 261.927 1451.65 258.4 1466.52 258.4H1530.92C1533.83 258.4 1535.9 259.09 1537.13 260.47C1538.51 261.697 1539.2 263.767 1539.2 266.68V294.05C1539.2 296.963 1538.51 299.11 1537.13 300.49C1535.9 301.717 1533.83 302.33 1530.92 302.33H1477.33C1475.34 302.33 1473.8 303.02 1472.73 304.4C1471.66 305.627 1471.12 307.237 1471.12 309.23C1471.12 311.223 1471.66 312.91 1472.73 314.29C1473.8 315.67 1475.34 316.437 1477.33 316.59L1511.6 321.19C1522.33 322.723 1531 326.25 1537.59 331.77C1544.18 337.29 1547.48 346.49 1547.48 359.37V383.52C1547.48 396.553 1543.19 406.597 1534.6 413.65C1526.17 420.55 1514.59 424 1499.87 424ZM376.145 654H320.025C300.859 654 286.599 650.167 277.245 642.5C268.045 634.833 263.445 623.027 263.445 607.08V535.55C263.445 519.603 268.045 507.797 277.245 500.13C286.599 492.31 300.859 488.4 320.025 488.4H376.145C379.059 488.4 381.129 489.09 382.355 490.47C383.735 491.697 384.425 493.767 384.425 496.68V524.51C384.425 527.423 383.735 529.57 382.355 530.95C381.129 532.177 379.059 532.79 376.145 532.79H329.915C325.162 532.79 321.635 533.787 319.335 535.78C317.035 537.62 315.885 540.457 315.885 544.29V599.03C315.885 602.863 317.035 605.7 319.335 607.54C321.635 609.227 325.162 610.07 329.915 610.07H376.145C379.059 610.07 381.129 610.76 382.355 612.14C383.735 613.367 384.425 615.437 384.425 618.35V645.72C384.425 648.633 383.735 650.78 382.355 652.16C381.129 653.387 379.059 654 376.145 654ZM454.329 654H418.679C415.766 654 413.619 653.387 412.239 652.16C411.013 650.78 410.399 648.633 410.399 645.72V496.68C410.399 493.767 411.013 491.697 412.239 490.47C413.619 489.09 415.766 488.4 418.679 488.4H454.329C457.243 488.4 459.313 489.09 460.539 490.47C461.919 491.697 462.609 493.767 462.609 496.68V546.59H501.019V496.68C501.019 493.767 501.633 491.697 502.859 490.47C504.239 489.09 506.386 488.4 509.299 488.4H544.949C547.863 488.4 549.933 489.09 551.159 490.47C552.539 491.697 553.229 493.767 553.229 496.68V645.72C553.229 648.633 552.539 650.78 551.159 652.16C549.933 653.387 547.863 654 544.949 654H509.299C506.386 654 504.239 653.387 502.859 652.16C501.633 650.78 501.019 648.633 501.019 645.72V594.66H462.609V645.72C462.609 648.633 461.919 650.78 460.539 652.16C459.313 653.387 457.243 654 454.329 654ZM644.951 536.7L634.141 571.66H670.251L659.441 536.7C658.827 535.32 658.137 534.323 657.371 533.71C656.757 533.097 655.991 532.79 655.071 532.79H649.321C648.401 532.79 647.557 533.097 646.791 533.71C646.177 534.323 645.564 535.32 644.951 536.7ZM631.841 645.72C631.841 648.633 631.151 650.78 629.771 652.16C628.544 653.387 626.474 654 623.561 654H589.751C586.837 654 584.691 653.387 583.311 652.16C582.084 650.78 581.471 648.633 581.471 645.72V585C581.471 580.4 582.161 575.11 583.541 569.13C585.074 563.15 587.374 556.173 590.441 548.2L610.451 495.99C611.371 493.383 612.751 491.467 614.591 490.24C616.584 489.013 619.114 488.4 622.181 488.4H684.051C686.964 488.4 689.341 489.013 691.181 490.24C693.174 491.467 694.631 493.383 695.551 495.99L715.561 548.2C718.627 556.173 720.851 563.15 722.231 569.13C723.764 575.11 724.531 580.4 724.531 585V645.72C724.531 648.633 723.841 650.78 722.461 652.16C721.234 653.387 719.164 654 716.251 654H681.521C678.454 654 676.154 653.387 674.621 652.16C673.241 650.78 672.551 648.633 672.551 645.72V613.52H631.841V645.72ZM878.279 654H761.209C758.295 654 756.149 653.387 754.769 652.16C753.542 650.78 752.929 648.633 752.929 645.72V496.68C752.929 493.767 753.542 491.697 754.769 490.47C756.149 489.09 758.295 488.4 761.209 488.4H796.859C799.772 488.4 801.842 489.09 803.069 490.47C804.449 491.697 805.139 493.767 805.139 496.68V610.53H836.649V573.27C836.649 570.357 837.262 568.287 838.489 567.06C839.869 565.68 842.015 564.99 844.929 564.99H878.279C881.192 564.99 883.262 565.68 884.489 567.06C885.869 568.287 886.559 570.357 886.559 573.27V645.72C886.559 648.633 885.869 650.78 884.489 652.16C883.262 653.387 881.192 654 878.279 654ZM1038.2 654H921.13C918.217 654 916.07 653.387 914.69 652.16C913.464 650.78 912.85 648.633 912.85 645.72V496.68C912.85 493.767 913.464 491.697 914.69 490.47C916.07 489.09 918.217 488.4 921.13 488.4H956.78C959.694 488.4 961.764 489.09 962.99 490.47C964.37 491.697 965.06 493.767 965.06 496.68V610.53H996.57V573.27C996.57 570.357 997.184 568.287 998.41 567.06C999.79 565.68 1001.94 564.99 1004.85 564.99H1038.2C1041.11 564.99 1043.18 565.68 1044.41 567.06C1045.79 568.287 1046.48 570.357 1046.48 573.27V645.72C1046.48 648.633 1045.79 650.78 1044.41 652.16C1043.18 653.387 1041.11 654 1038.2 654ZM1187.77 654H1081.05C1078.14 654 1075.99 653.387 1074.61 652.16C1073.39 650.78 1072.77 648.633 1072.77 645.72V496.68C1072.77 493.767 1073.39 491.697 1074.61 490.47C1075.99 489.09 1078.14 488.4 1081.05 488.4H1187.77C1190.69 488.4 1192.76 489.09 1193.98 490.47C1195.36 491.697 1196.05 493.767 1196.05 496.68V523.59C1196.05 526.503 1195.36 528.65 1193.98 530.03C1192.76 531.257 1190.69 531.87 1187.77 531.87H1124.29V549.58H1169.14C1172.06 549.58 1174.13 550.27 1175.35 551.65C1176.73 552.877 1177.42 554.947 1177.42 557.86V582.47C1177.42 585.383 1176.73 587.53 1175.35 588.91C1174.13 590.137 1172.06 590.75 1169.14 590.75H1124.29V610.53H1187.77C1190.69 610.53 1192.76 611.22 1193.98 612.6C1195.36 613.827 1196.05 615.897 1196.05 618.81V645.72C1196.05 648.633 1195.36 650.78 1193.98 652.16C1192.76 653.387 1190.69 654 1187.77 654ZM1266.04 654H1231.54C1228.63 654 1226.48 653.387 1225.1 652.16C1223.87 650.78 1223.26 648.633 1223.26 645.72V496.68C1223.26 493.767 1223.87 491.697 1225.1 490.47C1226.48 489.09 1228.63 488.4 1231.54 488.4H1255.46C1258.37 488.4 1260.83 488.86 1262.82 489.78C1264.97 490.7 1267.04 492.31 1269.03 494.61L1313.65 545.67V496.68C1313.65 493.767 1314.26 491.697 1315.49 490.47C1316.87 489.09 1319.02 488.4 1321.93 488.4H1356.43C1359.34 488.4 1361.41 489.09 1362.64 490.47C1364.02 491.697 1364.71 493.767 1364.71 496.68V645.72C1364.71 648.633 1364.02 650.78 1362.64 652.16C1361.41 653.387 1359.34 654 1356.43 654H1321.93C1319.02 654 1316.87 653.387 1315.49 652.16C1314.26 650.78 1313.65 648.633 1313.65 645.72V617.43L1274.32 569.82V645.72C1274.32 648.633 1273.63 650.78 1272.25 652.16C1271.02 653.387 1268.95 654 1266.04 654ZM1522.93 654H1450.48C1431.32 654 1417.06 650.167 1407.7 642.5C1398.5 634.833 1393.9 623.027 1393.9 607.08V535.32C1393.9 519.373 1398.5 507.567 1407.7 499.9C1417.06 492.233 1431.32 488.4 1450.48 488.4H1507.98C1510.9 488.4 1512.97 489.09 1514.19 490.47C1515.57 491.697 1516.26 493.767 1516.26 496.68V524.51C1516.26 527.423 1515.57 529.57 1514.19 530.95C1512.97 532.177 1510.9 532.79 1507.98 532.79H1460.14C1455.39 532.79 1451.86 533.787 1449.56 535.78C1447.26 537.62 1446.11 540.457 1446.11 544.29V599.26C1446.11 603.093 1446.96 605.93 1448.64 607.77C1450.48 609.61 1453.17 610.53 1456.69 610.53H1479V574.65C1479 571.737 1479.62 569.667 1480.84 568.44C1482.22 567.06 1484.37 566.37 1487.28 566.37H1522.93C1525.85 566.37 1527.92 567.06 1529.14 568.44C1530.52 569.667 1531.21 571.737 1531.21 574.65V645.72C1531.21 648.633 1530.52 650.78 1529.14 652.16C1527.92 653.387 1525.85 654 1522.93 654ZM1674.28 654H1567.56C1564.64 654 1562.5 653.387 1561.12 652.16C1559.89 650.78 1559.28 648.633 1559.28 645.72V496.68C1559.28 493.767 1559.89 491.697 1561.12 490.47C1562.5 489.09 1564.64 488.4 1567.56 488.4H1674.28C1677.19 488.4 1679.26 489.09 1680.49 490.47C1681.87 491.697 1682.56 493.767 1682.56 496.68V523.59C1682.56 526.503 1681.87 528.65 1680.49 530.03C1679.26 531.257 1677.19 531.87 1674.28 531.87H1610.8V549.58H1655.65C1658.56 549.58 1660.63 550.27 1661.86 551.65C1663.24 552.877 1663.93 554.947 1663.93 557.86V582.47C1663.93 585.383 1663.24 587.53 1661.86 588.91C1660.63 590.137 1658.56 590.75 1655.65 590.75H1610.8V610.53H1674.28C1677.19 610.53 1679.26 611.22 1680.49 612.6C1681.87 613.827 1682.56 615.897 1682.56 618.81V645.72C1682.56 648.633 1681.87 650.78 1680.49 652.16C1679.26 653.387 1677.19 654 1674.28 654Z" fill="#323232"/>
<circle cx="283" cy="789" r="63" fill="#E8E2F3"/>
<path d="M294.785 806C296.035 806 296.585 805.45 296.585 804.2V798.15C296.585 796.9 296.035 796.35 294.785 796.35H289.985V771.8C289.985 770.55 289.435 770 288.185 770H273.685C272.435 770 271.885 770.55 271.885 771.8V777.85C271.885 779.1 272.435 779.65 273.685 779.65H278.285V796.35H272.685C271.435 796.35 270.885 796.9 270.885 798.15V804.2C270.885 805.45 271.435 806 272.685 806H294.785Z" fill="#5A06FF"/>
<circle cx="433" cy="789" r="63" fill="#E8E2F3"/>
<path d="M444.633 806C445.883 806 446.433 805.45 446.433 804.2V798.35C446.433 797.1 445.883 796.55 444.633 796.55H430.383V795.5C430.383 794.4 430.683 794.3 431.683 794L438.483 791.85C443.333 790.35 446.283 788.05 446.283 783V778.3C446.283 772.9 443.183 770 437.483 770H422.733C421.483 770 420.933 770.55 420.933 771.8V777.65C420.933 778.9 421.483 779.45 422.733 779.45H433.583C434.583 779.45 434.933 779.75 434.933 780.75C434.933 781.85 434.633 782.25 433.583 782.55L426.883 784.65C422.283 786.05 419.033 787.85 419.033 795.6V804.2C419.033 805.45 419.583 806 420.833 806H444.633Z" fill="#5A06FF"/>
<circle cx="735" cy="789" r="63" fill="#E8E2F3"/>
<path d="M737.975 797.65V804.2C737.975 805.45 738.525 806 739.775 806H747.475C748.725 806 749.275 805.45 749.275 804.2V771.8C749.275 770.55 748.725 770 747.475 770H739.775C738.525 770 737.975 770.55 737.975 771.8V787.2H733.325C732.375 787.2 731.775 786.55 731.775 785.5V771.8C731.775 770.55 731.225 770 729.975 770H722.225C720.975 770 720.425 770.55 720.425 771.8V789.35C720.425 795.05 723.025 797.65 729.525 797.65H737.975Z" fill="#5A06FF"/>
<ellipse cx="1036" cy="789" rx="64" ry="63" fill="#E8E2F3"/>
<path d="M1021.87 806C1023.12 806 1023.67 805.45 1023.67 804.2V794.05C1023.67 792.75 1023.12 792.25 1021.87 792.25H1011.77C1010.52 792.25 1009.97 792.75 1009.97 794.05V804.2C1009.97 805.45 1010.52 806 1011.77 806H1021.87ZM1041.06 806C1042.31 806 1042.86 805.45 1042.86 804.2V794.05C1042.86 792.75 1042.31 792.25 1041.06 792.25H1030.96C1029.71 792.25 1029.16 792.75 1029.16 794.05V804.2C1029.16 805.45 1029.71 806 1030.96 806H1041.06ZM1060.24 806C1061.49 806 1062.04 805.45 1062.04 804.2V794.05C1062.04 792.75 1061.49 792.25 1060.24 792.25H1050.14C1048.89 792.25 1048.34 792.75 1048.34 794.05V804.2C1048.34 805.45 1048.89 806 1050.14 806H1060.24Z" fill="#5A06FF"/>
<ellipse cx="584" cy="789" rx="64" ry="63" fill="#E8E2F3"/>
<path d="M572.332 796.55C571.082 796.55 570.532 797.1 570.532 798.35V804.2C570.532 805.45 571.082 806 572.332 806H588.132C594.532 806 597.832 802.85 597.832 797.7V792.7C597.832 788.3 596.282 786 591.532 785.45C593.732 784.5 594.482 782.6 594.482 780.05V777.15C594.482 772.75 591.832 770 586.282 770H572.332C571.082 770 570.532 770.55 570.532 771.8V777.75C570.532 779 571.082 779.55 572.332 779.55H581.632C583.232 779.55 583.532 780.25 583.532 781.05V781.8C583.532 782.6 583.232 783.3 581.632 783.3H576.382C575.132 783.3 574.582 783.85 574.582 785.1V790.45C574.582 791.7 575.132 792.25 576.382 792.25H584.882C586.482 792.25 586.782 792.9 586.782 793.7V795.05C586.782 795.85 586.482 796.55 584.882 796.55H572.332Z" fill="#5A06FF"/>
<circle cx="885" cy="789" r="63" fill="#E8E2F3"/>
<path d="M870.866 806C872.116 806 872.666 805.45 872.666 804.2V794.05C872.666 792.75 872.116 792.25 870.866 792.25H860.766C859.516 792.25 858.966 792.75 858.966 794.05V804.2C858.966 805.45 859.516 806 860.766 806H870.866ZM890.055 806C891.305 806 891.855 805.45 891.855 804.2V794.05C891.855 792.75 891.305 792.25 890.055 792.25H879.955C878.705 792.25 878.155 792.75 878.155 794.05V804.2C878.155 805.45 878.705 806 879.955 806H890.055ZM909.245 806C910.495 806 911.045 805.45 911.045 804.2V794.05C911.045 792.75 910.495 792.25 909.245 792.25H899.145C897.895 792.25 897.345 792.75 897.345 794.05V804.2C897.345 805.45 897.895 806 899.145 806H909.245Z" fill="#5A06FF"/>
<circle cx="1187" cy="789" r="63" fill="#E8E2F3"/>
<path d="M1172.87 806C1174.12 806 1174.67 805.45 1174.67 804.2V794.05C1174.67 792.75 1174.12 792.25 1172.87 792.25H1162.77C1161.52 792.25 1160.97 792.75 1160.97 794.05V804.2C1160.97 805.45 1161.52 806 1162.77 806H1172.87ZM1192.06 806C1193.31 806 1193.86 805.45 1193.86 804.2V794.05C1193.86 792.75 1193.31 792.25 1192.06 792.25H1181.96C1180.71 792.25 1180.16 792.75 1180.16 794.05V804.2C1180.16 805.45 1180.71 806 1181.96 806H1192.06ZM1211.24 806C1212.49 806 1213.04 805.45 1213.04 804.2V794.05C1213.04 792.75 1212.49 792.25 1211.24 792.25H1201.14C1199.89 792.25 1199.34 792.75 1199.34 794.05V804.2C1199.34 805.45 1199.89 806 1201.14 806H1211.24Z" fill="#5A06FF"/>
<circle cx="1337" cy="789" r="63" fill="#E8E2F3"/>
<path d="M1321.84 806C1331.29 806 1334.14 801.85 1334.14 795.75V779.35C1334.14 773.25 1331.44 769.25 1319.14 769.25C1307.64 769.25 1304.74 773.25 1304.74 779.35V784.15C1304.74 790.1 1307.44 793.15 1316.49 793.15C1319.14 793.15 1321.24 792.9 1322.84 792.4V793.5C1322.84 795.95 1322.14 796.5 1319.69 796.5H1310.34C1309.09 796.5 1308.54 797.05 1308.54 798.3V804.2C1308.54 805.45 1309.04 806 1310.34 806H1321.84ZM1322.84 783.1C1322.84 784.1 1322.39 784.9 1319.49 784.9C1316.49 784.9 1316.04 784.1 1316.04 783.1V780.15C1316.04 779.1 1316.49 778.3 1319.49 778.3C1322.39 778.3 1322.84 779.1 1322.84 780.15V783.1ZM1370.26 793.2C1370.26 788.5 1367.96 786.05 1364.96 785.45C1367.16 784.5 1367.91 782.6 1367.91 780.05V777.15C1367.91 772.25 1364.96 769.25 1354.91 769.25C1344.86 769.25 1341.76 772.25 1341.76 777.15V780.05C1341.76 782.6 1342.51 784.5 1344.71 785.45C1341.71 786.05 1339.41 788.5 1339.41 793.2V798.05C1339.41 803.25 1342.81 806.75 1354.86 806.75C1366.91 806.75 1370.26 803.25 1370.26 798.05V793.2ZM1351.71 782V779.8C1351.71 778.8 1352.06 778 1354.86 778C1357.71 778 1357.96 778.8 1357.96 779.8V782C1357.96 783.05 1357.71 783.85 1354.86 783.85C1352.06 783.85 1351.71 783.05 1351.71 782ZM1350.46 796.15V793.5C1350.46 792.5 1351.26 791.7 1354.86 791.7C1358.51 791.7 1359.21 792.5 1359.21 793.5V796.15C1359.21 797.2 1358.51 798 1354.86 798C1351.26 798 1350.46 797.2 1350.46 796.15Z" fill="#5A06FF"/>
<circle cx="1487" cy="789" r="63" fill="#E8E2F3"/>
<path d="M1471.78 806C1481.23 806 1484.08 801.85 1484.08 795.75V779.35C1484.08 773.25 1481.38 769.25 1469.08 769.25C1457.58 769.25 1454.68 773.25 1454.68 779.35V784.15C1454.68 790.1 1457.38 793.15 1466.43 793.15C1469.08 793.15 1471.18 792.9 1472.78 792.4V793.5C1472.78 795.95 1472.08 796.5 1469.63 796.5H1460.28C1459.03 796.5 1458.48 797.05 1458.48 798.3V804.2C1458.48 805.45 1458.98 806 1460.28 806H1471.78ZM1472.78 783.1C1472.78 784.1 1472.33 784.9 1469.43 784.9C1466.43 784.9 1465.98 784.1 1465.98 783.1V780.15C1465.98 779.1 1466.43 778.3 1469.43 778.3C1472.33 778.3 1472.78 779.1 1472.78 780.15V783.1ZM1506.45 806C1515.9 806 1518.75 801.85 1518.75 795.75V779.35C1518.75 773.25 1516.05 769.25 1503.75 769.25C1492.25 769.25 1489.35 773.25 1489.35 779.35V784.15C1489.35 790.1 1492.05 793.15 1501.1 793.15C1503.75 793.15 1505.85 792.9 1507.45 792.4V793.5C1507.45 795.95 1506.75 796.5 1504.3 796.5H1494.95C1493.7 796.5 1493.15 797.05 1493.15 798.3V804.2C1493.15 805.45 1493.65 806 1494.95 806H1506.45ZM1507.45 783.1C1507.45 784.1 1507 784.9 1504.1 784.9C1501.1 784.9 1500.65 784.1 1500.65 783.1V780.15C1500.65 779.1 1501.1 778.3 1504.1 778.3C1507 778.3 1507.45 779.1 1507.45 780.15V783.1Z" fill="#5A06FF"/>
<circle cx="1637" cy="789" r="63" fill="#E8E2F3"/>
<path d="M1612.46 806C1613.71 806 1614.26 805.45 1614.26 804.2V798.15C1614.26 796.9 1613.71 796.35 1612.46 796.35H1607.66V771.8C1607.66 770.55 1607.11 770 1605.86 770H1591.36C1590.11 770 1589.56 770.55 1589.56 771.8V777.85C1589.56 779.1 1590.11 779.65 1591.36 779.65H1595.96V796.35H1590.36C1589.11 796.35 1588.56 796.9 1588.56 798.15V804.2C1588.56 805.45 1589.11 806 1590.36 806H1612.46ZM1649.64 796.55V779.5C1649.64 773.4 1646.69 769.25 1634.39 769.25C1622.09 769.25 1619.09 773.4 1619.09 779.5V796.55C1619.09 802.65 1622.09 806.75 1634.39 806.75C1646.69 806.75 1649.64 802.65 1649.64 796.55ZM1630.39 794.75V781.3C1630.39 780 1630.99 779 1634.39 779C1637.84 779 1638.39 780 1638.39 781.3V794.75C1638.39 796.1 1637.84 797.1 1634.39 797.1C1630.99 797.1 1630.39 796.1 1630.39 794.75ZM1685.96 796.55V779.5C1685.96 773.4 1683.01 769.25 1670.71 769.25C1658.41 769.25 1655.41 773.4 1655.41 779.5V796.55C1655.41 802.65 1658.41 806.75 1670.71 806.75C1683.01 806.75 1685.96 802.65 1685.96 796.55ZM1666.71 794.75V781.3C1666.71 780 1667.31 779 1670.71 779C1674.16 779 1674.71 780 1674.71 781.3V794.75C1674.71 796.1 1674.16 797.1 1670.71 797.1C1667.31 797.1 1666.71 796.1 1666.71 794.75Z" fill="#5A06FF"/>
</svg>
