<svg width="1545" height="780" viewBox="0 0 1545 780" fill="none" xmlns="http://www.w3.org/2000/svg">
<path d="M590.552 303H457.952C454.152 303 451.352 302.2 449.552 300.6C447.952 298.8 447.152 296 447.152 292.2V255.9C447.152 252.1 447.952 249.4 449.552 247.8C451.352 246 454.152 245.1 457.952 245.1H491.552V144.9H463.952C460.152 144.9 457.352 144.1 455.552 142.5C453.952 140.7 453.152 137.9 453.152 134.1V97.8C453.152 94 453.952 91.3 455.552 89.7C457.352 87.9 460.152 87 463.952 87H550.952C554.752 87 557.452 87.9 559.052 89.7C560.852 91.3 561.752 94 561.752 97.8V245.1H590.552C594.352 245.1 597.052 246 598.652 247.8C600.452 249.4 601.352 252.1 601.352 255.9V292.2C601.352 296 600.452 298.8 598.652 300.6C597.052 302.2 594.352 303 590.552 303ZM813.628 246.3C813.628 255.5 812.328 263.9 809.728 271.5C807.128 278.9 802.428 285.3 795.628 290.7C788.828 295.9 779.428 300 767.428 303C755.628 306 740.528 307.5 722.128 307.5C703.728 307.5 688.528 306 676.528 303C664.728 300 655.428 295.9 648.628 290.7C641.828 285.3 637.028 278.9 634.228 271.5C631.628 263.9 630.328 255.5 630.328 246.3V144C630.328 134.8 631.628 126.5 634.228 119.1C637.028 111.5 641.828 105 648.628 99.6C655.428 94.2 664.728 90 676.528 87C688.528 84 703.728 82.5 722.128 82.5C740.528 82.5 755.628 84 767.428 87C779.428 90 788.828 94.2 795.628 99.6C802.428 105 807.128 111.5 809.728 119.1C812.328 126.5 813.628 134.8 813.628 144V246.3ZM698.128 235.5C698.128 239.5 699.528 242.9 702.328 245.7C705.328 248.3 711.928 249.6 722.128 249.6C732.328 249.6 738.828 248.3 741.628 245.7C744.628 242.9 746.128 239.5 746.128 235.5V154.8C746.128 151 744.628 147.8 741.628 145.2C738.828 142.4 732.328 141 722.128 141C711.928 141 705.328 142.4 702.328 145.2C699.528 147.8 698.128 151 698.128 154.8V235.5ZM1031.6 246.3C1031.6 255.5 1030.3 263.9 1027.7 271.5C1025.1 278.9 1020.4 285.3 1013.6 290.7C1006.8 295.9 997.396 300 985.396 303C973.596 306 958.496 307.5 940.096 307.5C921.696 307.5 906.496 306 894.496 303C882.696 300 873.396 295.9 866.596 290.7C859.796 285.3 854.996 278.9 852.196 271.5C849.596 263.9 848.296 255.5 848.296 246.3V144C848.296 134.8 849.596 126.5 852.196 119.1C854.996 111.5 859.796 105 866.596 99.6C873.396 94.2 882.696 90 894.496 87C906.496 84 921.696 82.5 940.096 82.5C958.496 82.5 973.596 84 985.396 87C997.396 90 1006.8 94.2 1013.6 99.6C1020.4 105 1025.1 111.5 1027.7 119.1C1030.3 126.5 1031.6 134.8 1031.6 144V246.3ZM916.096 235.5C916.096 239.5 917.496 242.9 920.296 245.7C923.296 248.3 929.896 249.6 940.096 249.6C950.296 249.6 956.796 248.3 959.596 245.7C962.596 242.9 964.096 239.5 964.096 235.5V154.8C964.096 151 962.596 147.8 959.596 145.2C956.796 142.4 950.296 141 940.096 141C929.896 141 923.296 142.4 920.296 145.2C917.496 147.8 916.096 151 916.096 154.8V235.5Z" fill="#5A06FF"/>
<path d="M197.054 533H119.544C116.63 533 114.484 532.387 113.104 531.16C111.877 529.78 111.264 527.633 111.264 524.72V375.68C111.264 372.767 111.877 370.697 113.104 369.47C114.484 368.09 116.63 367.4 119.544 367.4H197.054C216.22 367.4 230.404 371.233 239.604 378.9C248.957 386.567 253.634 398.373 253.634 414.32V486.08C253.634 502.027 248.957 513.833 239.604 521.5C230.404 529.167 216.22 533 197.054 533ZM163.474 411.33V489.53H190.844C194.524 489.53 197.207 488.61 198.894 486.77C200.734 484.93 201.654 482.093 201.654 478.26V422.37C201.654 418.537 200.734 415.777 198.894 414.09C197.207 412.25 194.524 411.33 190.844 411.33H163.474ZM342.895 415.7L332.085 450.66H368.195L357.385 415.7C356.772 414.32 356.082 413.323 355.315 412.71C354.702 412.097 353.935 411.79 353.015 411.79H347.265C346.345 411.79 345.502 412.097 344.735 412.71C344.122 413.323 343.508 414.32 342.895 415.7ZM329.785 524.72C329.785 527.633 329.095 529.78 327.715 531.16C326.488 532.387 324.418 533 321.505 533H287.695C284.782 533 282.635 532.387 281.255 531.16C280.028 529.78 279.415 527.633 279.415 524.72V464C279.415 459.4 280.105 454.11 281.485 448.13C283.018 442.15 285.318 435.173 288.385 427.2L308.395 374.99C309.315 372.383 310.695 370.467 312.535 369.24C314.528 368.013 317.058 367.4 320.125 367.4H381.995C384.908 367.4 387.285 368.013 389.125 369.24C391.118 370.467 392.575 372.383 393.495 374.99L413.505 427.2C416.572 435.173 418.795 442.15 420.175 448.13C421.708 454.11 422.475 459.4 422.475 464V524.72C422.475 527.633 421.785 529.78 420.405 531.16C419.178 532.387 417.108 533 414.195 533H379.465C376.398 533 374.098 532.387 372.565 531.16C371.185 529.78 370.495 527.633 370.495 524.72V492.52H329.785V524.72ZM528.983 533H491.723C488.81 533 486.663 532.387 485.283 531.16C484.056 529.78 483.443 527.633 483.443 524.72V495.28L448.253 448.13C444.726 443.377 442.35 439.237 441.123 435.71C440.05 432.183 439.513 426.893 439.513 419.84V375.68C439.513 372.767 440.126 370.697 441.353 369.47C442.733 368.09 444.88 367.4 447.793 367.4H483.213C486.126 367.4 488.196 368.09 489.423 369.47C490.803 370.697 491.493 372.767 491.493 375.68V413.4C491.493 414.933 491.57 416.543 491.723 418.23C491.876 419.917 492.49 421.527 493.563 423.06L504.143 439.62C504.91 441 505.676 441.997 506.443 442.61C507.363 443.223 508.436 443.53 509.663 443.53H511.963C513.19 443.53 514.186 443.223 514.953 442.61C515.873 441.997 516.716 441 517.483 439.62L528.063 423.06C529.136 421.527 529.75 419.917 529.903 418.23C530.056 416.543 530.133 414.933 530.133 413.4V375.68C530.133 372.767 530.746 370.697 531.973 369.47C533.353 368.09 535.5 367.4 538.413 367.4H572.683C575.596 367.4 577.666 368.09 578.893 369.47C580.273 370.697 580.963 372.767 580.963 375.68V419.84C580.963 426.893 580.35 432.183 579.123 435.71C577.896 439.237 575.596 443.377 572.223 448.13L537.263 495.51V524.72C537.263 527.633 536.573 529.78 535.193 531.16C533.966 532.387 531.896 533 528.983 533ZM684.021 533H611.341C608.428 533 606.281 532.387 604.901 531.16C603.674 529.78 603.061 527.633 603.061 524.72V497.81C603.061 494.897 603.674 492.827 604.901 491.6C606.281 490.22 608.428 489.53 611.341 489.53H673.211C675.204 489.53 676.661 488.917 677.581 487.69C678.654 486.31 679.191 484.7 679.191 482.86C679.191 480.253 678.654 478.337 677.581 477.11C676.661 475.883 675.204 475.193 673.211 475.04L638.711 470.21C627.978 468.677 619.314 465.15 612.721 459.63C606.281 454.11 603.061 444.91 603.061 432.03V407.88C603.061 394.847 607.278 384.88 615.711 377.98C624.144 370.927 635.798 367.4 650.671 367.4H715.071C717.984 367.4 720.054 368.09 721.281 369.47C722.661 370.697 723.351 372.767 723.351 375.68V403.05C723.351 405.963 722.661 408.11 721.281 409.49C720.054 410.717 717.984 411.33 715.071 411.33H661.481C659.488 411.33 657.954 412.02 656.881 413.4C655.808 414.627 655.271 416.237 655.271 418.23C655.271 420.223 655.808 421.91 656.881 423.29C657.954 424.67 659.488 425.437 661.481 425.59L695.751 430.19C706.484 431.723 715.148 435.25 721.741 440.77C728.334 446.29 731.631 455.49 731.631 468.37V492.52C731.631 505.553 727.338 515.597 718.751 522.65C710.318 529.55 698.741 533 684.021 533ZM894.241 533H816.731C813.818 533 811.671 532.387 810.291 531.16C809.064 529.78 808.451 527.633 808.451 524.72V375.68C808.451 372.767 809.064 370.697 810.291 369.47C811.671 368.09 813.818 367.4 816.731 367.4H894.241C913.408 367.4 927.591 371.233 936.791 378.9C946.144 386.567 950.821 398.373 950.821 414.32V486.08C950.821 502.027 946.144 513.833 936.791 521.5C927.591 529.167 913.408 533 894.241 533ZM860.661 411.33V489.53H888.031C891.711 489.53 894.394 488.61 896.081 486.77C897.921 484.93 898.841 482.093 898.841 478.26V422.37C898.841 418.537 897.921 415.777 896.081 414.09C894.394 412.25 891.711 411.33 888.031 411.33H860.661ZM1040.08 415.7L1029.27 450.66H1065.38L1054.57 415.7C1053.96 414.32 1053.27 413.323 1052.5 412.71C1051.89 412.097 1051.12 411.79 1050.2 411.79H1044.45C1043.53 411.79 1042.69 412.097 1041.92 412.71C1041.31 413.323 1040.7 414.32 1040.08 415.7ZM1026.97 524.72C1026.97 527.633 1026.28 529.78 1024.9 531.16C1023.68 532.387 1021.61 533 1018.69 533H984.883C981.969 533 979.823 532.387 978.443 531.16C977.216 529.78 976.603 527.633 976.603 524.72V464C976.603 459.4 977.293 454.11 978.673 448.13C980.206 442.15 982.506 435.173 985.573 427.2L1005.58 374.99C1006.5 372.383 1007.88 370.467 1009.72 369.24C1011.72 368.013 1014.25 367.4 1017.31 367.4H1079.18C1082.1 367.4 1084.47 368.013 1086.31 369.24C1088.31 370.467 1089.76 372.383 1090.68 374.99L1110.69 427.2C1113.76 435.173 1115.98 442.15 1117.36 448.13C1118.9 454.11 1119.66 459.4 1119.66 464V524.72C1119.66 527.633 1118.97 529.78 1117.59 531.16C1116.37 532.387 1114.3 533 1111.38 533H1076.65C1073.59 533 1071.29 532.387 1069.75 531.16C1068.37 529.78 1067.68 527.633 1067.68 524.72V492.52H1026.97V524.72ZM1200.04 408.8V438.24H1217.29C1221.28 438.24 1223.96 437.243 1225.34 435.25C1226.72 433.103 1227.41 430.497 1227.41 427.43V419.61C1227.41 416.543 1226.72 414.013 1225.34 412.02C1223.96 409.873 1221.28 408.8 1217.29 408.8H1200.04ZM1191.76 533H1156.34C1153.43 533 1151.28 532.387 1149.9 531.16C1148.67 529.78 1148.06 527.633 1148.06 524.72V375.68C1148.06 372.767 1148.67 370.697 1149.9 369.47C1151.28 368.09 1153.43 367.4 1156.34 367.4H1232.93C1250.1 367.4 1261.91 371.003 1268.35 378.21C1274.94 385.263 1278.24 394.463 1278.24 405.81V416.39C1278.24 422.83 1277.24 428.35 1275.25 432.95C1273.41 437.397 1270.11 440.617 1265.36 442.61C1273.64 443.53 1280.31 446.903 1285.37 452.73C1290.58 458.557 1293.19 466.3 1293.19 475.96V524.72C1293.19 527.633 1292.5 529.78 1291.12 531.16C1289.89 532.387 1287.82 533 1284.91 533H1249.26C1246.35 533 1244.2 532.387 1242.82 531.16C1241.59 529.78 1240.98 527.633 1240.98 524.72V489.53C1240.98 486.157 1240.29 483.703 1238.91 482.17C1237.68 480.483 1235.46 479.64 1232.24 479.64H1200.04V524.72C1200.04 527.633 1199.35 529.78 1197.97 531.16C1196.74 532.387 1194.67 533 1191.76 533ZM1433.99 533H1327.27C1324.35 533 1322.21 532.387 1320.83 531.16C1319.6 529.78 1318.99 527.633 1318.99 524.72V375.68C1318.99 372.767 1319.6 370.697 1320.83 369.47C1322.21 368.09 1324.35 367.4 1327.27 367.4H1433.99C1436.9 367.4 1438.97 368.09 1440.2 369.47C1441.58 370.697 1442.27 372.767 1442.27 375.68V402.59C1442.27 405.503 1441.58 407.65 1440.2 409.03C1438.97 410.257 1436.9 410.87 1433.99 410.87H1370.51V428.58H1415.36C1418.27 428.58 1420.34 429.27 1421.57 430.65C1422.95 431.877 1423.64 433.947 1423.64 436.86V461.47C1423.64 464.383 1422.95 466.53 1421.57 467.91C1420.34 469.137 1418.27 469.75 1415.36 469.75H1370.51V489.53H1433.99C1436.9 489.53 1438.97 490.22 1440.2 491.6C1441.58 492.827 1442.27 494.897 1442.27 497.81V524.72C1442.27 527.633 1441.58 529.78 1440.2 531.16C1438.97 532.387 1436.9 533 1433.99 533Z" fill="#323232"/>
<circle cx="95" cy="629" r="63" fill="#E8E2F3"/>
<path d="M106.785 646H84.6854C84.052 646 83.5854 645.867 83.2854 645.6C83.0187 645.3 82.8854 644.833 82.8854 644.2V638.15C82.8854 637.517 83.0187 637.067 83.2854 636.8C83.5854 636.5 84.052 636.35 84.6854 636.35H90.2854V619.65H85.6854C85.052 619.65 84.5854 619.517 84.2854 619.25C84.0187 618.95 83.8854 618.483 83.8854 617.85V611.8C83.8854 611.167 84.0187 610.717 84.2854 610.45C84.5854 610.15 85.052 610 85.6854 610H100.185C100.819 610 101.269 610.15 101.535 610.45C101.835 610.717 101.985 611.167 101.985 611.8V636.35H106.785C107.419 636.35 107.869 636.5 108.135 636.8C108.435 637.067 108.585 637.517 108.585 638.15V644.2C108.585 644.833 108.435 645.3 108.135 645.6C107.869 645.867 107.419 646 106.785 646Z" fill="#5A06FF"/>
<circle cx="245" cy="629" r="63" fill="#E8E2F3"/>
<path d="M256.633 646H232.833C232.2 646 231.733 645.867 231.433 645.6C231.167 645.3 231.033 644.833 231.033 644.2V635.6C231.033 633.667 231.217 632.083 231.583 630.85C231.983 629.583 232.533 628.55 233.233 627.75C233.933 626.95 234.767 626.317 235.733 625.85C236.7 625.383 237.75 624.983 238.883 624.65L245.583 622.55C246.117 622.417 246.467 622.217 246.633 621.95C246.833 621.683 246.933 621.283 246.933 620.75C246.933 620.25 246.833 619.917 246.633 619.75C246.433 619.55 246.083 619.45 245.583 619.45H234.733C234.1 619.45 233.633 619.317 233.333 619.05C233.067 618.75 232.933 618.283 232.933 617.65V611.8C232.933 611.167 233.067 610.717 233.333 610.45C233.633 610.15 234.1 610 234.733 610H249.483C252.317 610 254.483 610.717 255.983 612.15C257.517 613.55 258.283 615.6 258.283 618.3V623C258.283 625.5 257.583 627.417 256.183 628.75C254.783 630.083 252.883 631.117 250.483 631.85L243.683 634C243.183 634.133 242.833 634.283 242.633 634.45C242.467 634.617 242.383 634.967 242.383 635.5V636.55H256.633C257.267 636.55 257.717 636.7 257.983 637C258.283 637.267 258.433 637.717 258.433 638.35V644.2C258.433 644.833 258.283 645.3 257.983 645.6C257.717 645.867 257.267 646 256.633 646Z" fill="#5A06FF"/>
<circle cx="547" cy="629" r="63" fill="#E8E2F3"/>
<path d="M549.975 637.65H541.525C538.292 637.65 535.959 636.983 534.525 635.65C533.125 634.283 532.425 632.183 532.425 629.35V611.8C532.425 611.167 532.559 610.717 532.825 610.45C533.125 610.15 533.592 610 534.225 610H541.975C542.609 610 543.059 610.15 543.325 610.45C543.625 610.717 543.775 611.167 543.775 611.8V625.5C543.775 626.033 543.909 626.45 544.175 626.75C544.475 627.05 544.859 627.2 545.325 627.2H549.975V611.8C549.975 611.167 550.109 610.717 550.375 610.45C550.675 610.15 551.142 610 551.775 610H559.475C560.109 610 560.559 610.15 560.825 610.45C561.125 610.717 561.275 611.167 561.275 611.8V644.2C561.275 644.833 561.125 645.3 560.825 645.6C560.559 645.867 560.109 646 559.475 646H551.775C551.142 646 550.675 645.867 550.375 645.6C550.109 645.3 549.975 644.833 549.975 644.2V637.65Z" fill="#5A06FF"/>
<ellipse cx="848" cy="629" rx="64" ry="63" fill="#E8E2F3"/>
<path d="M833.866 646H823.766C823.132 646 822.666 645.867 822.366 645.6C822.099 645.3 821.966 644.833 821.966 644.2V634.05C821.966 633.417 822.099 632.967 822.366 632.7C822.666 632.4 823.132 632.25 823.766 632.25H833.866C834.499 632.25 834.949 632.4 835.216 632.7C835.516 632.967 835.666 633.417 835.666 634.05V644.2C835.666 644.833 835.516 645.3 835.216 645.6C834.949 645.867 834.499 646 833.866 646ZM853.055 646H842.955C842.322 646 841.855 645.867 841.555 645.6C841.289 645.3 841.155 644.833 841.155 644.2V634.05C841.155 633.417 841.289 632.967 841.555 632.7C841.855 632.4 842.322 632.25 842.955 632.25H853.055C853.689 632.25 854.139 632.4 854.405 632.7C854.705 632.967 854.855 633.417 854.855 634.05V644.2C854.855 644.833 854.705 645.3 854.405 645.6C854.139 645.867 853.689 646 853.055 646ZM872.245 646H862.145C861.511 646 861.045 645.867 860.745 645.6C860.478 645.3 860.345 644.833 860.345 644.2V634.05C860.345 633.417 860.478 632.967 860.745 632.7C861.045 632.4 861.511 632.25 862.145 632.25H872.245C872.878 632.25 873.328 632.4 873.595 632.7C873.895 632.967 874.045 633.417 874.045 634.05V644.2C874.045 644.833 873.895 645.3 873.595 645.6C873.328 645.867 872.878 646 872.245 646Z" fill="#5A06FF"/>
<ellipse cx="396" cy="629" rx="64" ry="63" fill="#E8E2F3"/>
<path d="M384.332 636.55H396.882C397.682 636.55 398.199 636.4 398.432 636.1C398.665 635.8 398.782 635.45 398.782 635.05V633.7C398.782 633.3 398.665 632.967 398.432 632.7C398.199 632.4 397.682 632.25 396.882 632.25H388.382C387.749 632.25 387.282 632.117 386.982 631.85C386.715 631.55 386.582 631.083 386.582 630.45V625.1C386.582 624.467 386.715 624.017 386.982 623.75C387.282 623.45 387.749 623.3 388.382 623.3H393.632C394.432 623.3 394.949 623.15 395.182 622.85C395.415 622.55 395.532 622.2 395.532 621.8V621.05C395.532 620.65 395.415 620.3 395.182 620C394.949 619.7 394.432 619.55 393.632 619.55H384.332C383.699 619.55 383.232 619.417 382.932 619.15C382.665 618.85 382.532 618.383 382.532 617.75V611.8C382.532 611.167 382.665 610.717 382.932 610.45C383.232 610.15 383.699 610 384.332 610H398.282C401.049 610 403.099 610.65 404.432 611.95C405.799 613.217 406.482 614.95 406.482 617.15V620.05C406.482 621.317 406.265 622.417 405.832 623.35C405.399 624.283 404.632 624.983 403.532 625.45C405.899 625.717 407.532 626.45 408.432 627.65C409.365 628.817 409.832 630.5 409.832 632.7V637.7C409.832 640.267 409.015 642.3 407.382 643.8C405.749 645.267 403.332 646 400.132 646H384.332C383.699 646 383.232 645.867 382.932 645.6C382.665 645.3 382.532 644.833 382.532 644.2V638.35C382.532 637.717 382.665 637.267 382.932 637C383.232 636.7 383.699 636.55 384.332 636.55Z" fill="#5A06FF"/>
<circle cx="697" cy="629" r="63" fill="#E8E2F3"/>
<path d="M682.866 646H672.766C672.132 646 671.666 645.867 671.366 645.6C671.099 645.3 670.966 644.833 670.966 644.2V634.05C670.966 633.417 671.099 632.967 671.366 632.7C671.666 632.4 672.132 632.25 672.766 632.25H682.866C683.499 632.25 683.949 632.4 684.216 632.7C684.516 632.967 684.666 633.417 684.666 634.05V644.2C684.666 644.833 684.516 645.3 684.216 645.6C683.949 645.867 683.499 646 682.866 646ZM702.055 646H691.955C691.322 646 690.855 645.867 690.555 645.6C690.289 645.3 690.155 644.833 690.155 644.2V634.05C690.155 633.417 690.289 632.967 690.555 632.7C690.855 632.4 691.322 632.25 691.955 632.25H702.055C702.689 632.25 703.139 632.4 703.405 632.7C703.705 632.967 703.855 633.417 703.855 634.05V644.2C703.855 644.833 703.705 645.3 703.405 645.6C703.139 645.867 702.689 646 702.055 646ZM721.245 646H711.145C710.511 646 710.045 645.867 709.745 645.6C709.478 645.3 709.345 644.833 709.345 644.2V634.05C709.345 633.417 709.478 632.967 709.745 632.7C710.045 632.4 710.511 632.25 711.145 632.25H721.245C721.878 632.25 722.328 632.4 722.595 632.7C722.895 632.967 723.045 633.417 723.045 634.05V644.2C723.045 644.833 722.895 645.3 722.595 645.6C722.328 645.867 721.878 646 721.245 646Z" fill="#5A06FF"/>
<circle cx="999" cy="629" r="63" fill="#E8E2F3"/>
<path d="M984.866 646H974.766C974.132 646 973.666 645.867 973.366 645.6C973.099 645.3 972.966 644.833 972.966 644.2V634.05C972.966 633.417 973.099 632.967 973.366 632.7C973.666 632.4 974.132 632.25 974.766 632.25H984.866C985.499 632.25 985.949 632.4 986.216 632.7C986.516 632.967 986.666 633.417 986.666 634.05V644.2C986.666 644.833 986.516 645.3 986.216 645.6C985.949 645.867 985.499 646 984.866 646ZM1004.06 646H993.955C993.322 646 992.855 645.867 992.555 645.6C992.289 645.3 992.155 644.833 992.155 644.2V634.05C992.155 633.417 992.289 632.967 992.555 632.7C992.855 632.4 993.322 632.25 993.955 632.25H1004.06C1004.69 632.25 1005.14 632.4 1005.41 632.7C1005.71 632.967 1005.86 633.417 1005.86 634.05V644.2C1005.86 644.833 1005.71 645.3 1005.41 645.6C1005.14 645.867 1004.69 646 1004.06 646ZM1023.24 646H1013.14C1012.51 646 1012.04 645.867 1011.74 645.6C1011.48 645.3 1011.34 644.833 1011.34 644.2V634.05C1011.34 633.417 1011.48 632.967 1011.74 632.7C1012.04 632.4 1012.51 632.25 1013.14 632.25H1023.24C1023.88 632.25 1024.33 632.4 1024.59 632.7C1024.89 632.967 1025.04 633.417 1025.04 634.05V644.2C1025.04 644.833 1024.89 645.3 1024.59 645.6C1024.33 645.867 1023.88 646 1023.24 646Z" fill="#5A06FF"/>
<circle cx="1149" cy="629" r="63" fill="#E8E2F3"/>
<path d="M1133.84 646H1122.34C1121.71 646 1121.24 645.867 1120.94 645.6C1120.68 645.3 1120.54 644.833 1120.54 644.2V638.3C1120.54 637.667 1120.68 637.217 1120.94 636.95C1121.24 636.65 1121.71 636.5 1122.34 636.5H1131.69C1132.93 636.5 1133.76 636.317 1134.19 635.95C1134.63 635.55 1134.84 634.733 1134.84 633.5V632.4C1134.04 632.633 1133.11 632.817 1132.04 632.95C1131.01 633.083 1129.83 633.15 1128.49 633.15C1123.99 633.15 1120.91 632.4 1119.24 630.9C1117.58 629.367 1116.74 627.117 1116.74 624.15V619.35C1116.74 617.817 1116.94 616.433 1117.34 615.2C1117.78 613.967 1118.53 612.917 1119.59 612.05C1120.69 611.15 1122.18 610.467 1124.04 610C1125.91 609.5 1128.28 609.25 1131.14 609.25C1134.21 609.25 1136.71 609.5 1138.64 610C1140.61 610.467 1142.14 611.15 1143.24 612.05C1144.34 612.917 1145.09 613.967 1145.49 615.2C1145.93 616.433 1146.14 617.817 1146.14 619.35V635.75C1146.14 638.783 1145.26 641.25 1143.49 643.15C1141.76 645.05 1138.54 646 1133.84 646ZM1134.84 623.1V620.15C1134.84 619.617 1134.64 619.183 1134.24 618.85C1133.84 618.483 1132.93 618.3 1131.49 618.3C1129.99 618.3 1129.04 618.483 1128.64 618.85C1128.24 619.183 1128.04 619.617 1128.04 620.15V623.1C1128.04 623.6 1128.24 624.033 1128.64 624.4C1129.04 624.733 1129.99 624.9 1131.49 624.9C1132.93 624.9 1133.84 624.733 1134.24 624.4C1134.64 624.033 1134.84 623.6 1134.84 623.1ZM1182.26 633.2V638.05C1182.26 639.35 1182.01 640.533 1181.51 641.6C1181.04 642.667 1180.23 643.583 1179.06 644.35C1177.89 645.117 1176.31 645.7 1174.31 646.1C1172.34 646.533 1169.86 646.75 1166.86 646.75C1163.86 646.75 1161.36 646.533 1159.36 646.1C1157.36 645.7 1155.78 645.117 1154.61 644.35C1153.44 643.583 1152.61 642.667 1152.11 641.6C1151.64 640.533 1151.41 639.35 1151.41 638.05V633.2C1151.41 630.867 1151.91 629.067 1152.91 627.8C1153.94 626.533 1155.21 625.75 1156.71 625.45C1155.61 624.983 1154.84 624.283 1154.41 623.35C1153.98 622.417 1153.76 621.317 1153.76 620.05V617.15C1153.76 615.917 1153.98 614.817 1154.41 613.85C1154.84 612.883 1155.56 612.067 1156.56 611.4C1157.56 610.7 1158.91 610.167 1160.61 609.8C1162.31 609.433 1164.41 609.25 1166.91 609.25C1169.41 609.25 1171.49 609.433 1173.16 609.8C1174.86 610.167 1176.19 610.7 1177.16 611.4C1178.16 612.067 1178.86 612.883 1179.26 613.85C1179.69 614.817 1179.91 615.917 1179.91 617.15V620.05C1179.91 621.317 1179.69 622.417 1179.26 623.35C1178.83 624.283 1178.06 624.983 1176.96 625.45C1178.46 625.75 1179.71 626.533 1180.71 627.8C1181.74 629.067 1182.26 630.867 1182.26 633.2ZM1163.71 622C1163.71 622.533 1163.88 622.983 1164.21 623.35C1164.58 623.683 1165.46 623.85 1166.86 623.85C1168.29 623.85 1169.16 623.683 1169.46 623.35C1169.79 622.983 1169.96 622.533 1169.96 622V619.8C1169.96 619.3 1169.79 618.883 1169.46 618.55C1169.16 618.183 1168.29 618 1166.86 618C1165.46 618 1164.58 618.183 1164.21 618.55C1163.88 618.883 1163.71 619.3 1163.71 619.8V622ZM1162.46 636.15C1162.46 636.683 1162.74 637.133 1163.31 637.5C1163.88 637.833 1165.06 638 1166.86 638C1168.66 638 1169.83 637.833 1170.36 637.5C1170.93 637.133 1171.21 636.683 1171.21 636.15V633.5C1171.21 633 1170.93 632.583 1170.36 632.25C1169.83 631.883 1168.66 631.7 1166.86 631.7C1165.06 631.7 1163.88 631.883 1163.31 632.25C1162.74 632.583 1162.46 633 1162.46 633.5V636.15Z" fill="#5A06FF"/>
<circle cx="1299" cy="629" r="63" fill="#E8E2F3"/>
<path d="M1283.78 646H1272.28C1271.65 646 1271.18 645.867 1270.88 645.6C1270.62 645.3 1270.48 644.833 1270.48 644.2V638.3C1270.48 637.667 1270.62 637.217 1270.88 636.95C1271.18 636.65 1271.65 636.5 1272.28 636.5H1281.63C1282.87 636.5 1283.7 636.317 1284.13 635.95C1284.57 635.55 1284.78 634.733 1284.78 633.5V632.4C1283.98 632.633 1283.05 632.817 1281.98 632.95C1280.95 633.083 1279.77 633.15 1278.43 633.15C1273.93 633.15 1270.85 632.4 1269.18 630.9C1267.52 629.367 1266.68 627.117 1266.68 624.15V619.35C1266.68 617.817 1266.88 616.433 1267.28 615.2C1267.72 613.967 1268.47 612.917 1269.53 612.05C1270.63 611.15 1272.12 610.467 1273.98 610C1275.85 609.5 1278.22 609.25 1281.08 609.25C1284.15 609.25 1286.65 609.5 1288.58 610C1290.55 610.467 1292.08 611.15 1293.18 612.05C1294.28 612.917 1295.03 613.967 1295.43 615.2C1295.87 616.433 1296.08 617.817 1296.08 619.35V635.75C1296.08 638.783 1295.2 641.25 1293.43 643.15C1291.7 645.05 1288.48 646 1283.78 646ZM1284.78 623.1V620.15C1284.78 619.617 1284.58 619.183 1284.18 618.85C1283.78 618.483 1282.87 618.3 1281.43 618.3C1279.93 618.3 1278.98 618.483 1278.58 618.85C1278.18 619.183 1277.98 619.617 1277.98 620.15V623.1C1277.98 623.6 1278.18 624.033 1278.58 624.4C1278.98 624.733 1279.93 624.9 1281.43 624.9C1282.87 624.9 1283.78 624.733 1284.18 624.4C1284.58 624.033 1284.78 623.6 1284.78 623.1ZM1318.45 646H1306.95C1306.32 646 1305.85 645.867 1305.55 645.6C1305.28 645.3 1305.15 644.833 1305.15 644.2V638.3C1305.15 637.667 1305.28 637.217 1305.55 636.95C1305.85 636.65 1306.32 636.5 1306.95 636.5H1316.3C1317.53 636.5 1318.37 636.317 1318.8 635.95C1319.23 635.55 1319.45 634.733 1319.45 633.5V632.4C1318.65 632.633 1317.72 632.817 1316.65 632.95C1315.62 633.083 1314.43 633.15 1313.1 633.15C1308.6 633.15 1305.52 632.4 1303.85 630.9C1302.18 629.367 1301.35 627.117 1301.35 624.15V619.35C1301.35 617.817 1301.55 616.433 1301.95 615.2C1302.38 613.967 1303.13 612.917 1304.2 612.05C1305.3 611.15 1306.78 610.467 1308.65 610C1310.52 609.5 1312.88 609.25 1315.75 609.25C1318.82 609.25 1321.32 609.5 1323.25 610C1325.22 610.467 1326.75 611.15 1327.85 612.05C1328.95 612.917 1329.7 613.967 1330.1 615.2C1330.53 616.433 1330.75 617.817 1330.75 619.35V635.75C1330.75 638.783 1329.87 641.25 1328.1 643.15C1326.37 645.05 1323.15 646 1318.45 646ZM1319.45 623.1V620.15C1319.45 619.617 1319.25 619.183 1318.85 618.85C1318.45 618.483 1317.53 618.3 1316.1 618.3C1314.6 618.3 1313.65 618.483 1313.25 618.85C1312.85 619.183 1312.65 619.617 1312.65 620.15V623.1C1312.65 623.6 1312.85 624.033 1313.25 624.4C1313.65 624.733 1314.6 624.9 1316.1 624.9C1317.53 624.9 1318.45 624.733 1318.85 624.4C1319.25 624.033 1319.45 623.6 1319.45 623.1Z" fill="#5A06FF"/>
<circle cx="1449" cy="629" r="63" fill="#E8E2F3"/>
<path d="M1424.46 646H1402.36C1401.72 646 1401.26 645.867 1400.96 645.6C1400.69 645.3 1400.56 644.833 1400.56 644.2V638.15C1400.56 637.517 1400.69 637.067 1400.96 636.8C1401.26 636.5 1401.72 636.35 1402.36 636.35H1407.96V619.65H1403.36C1402.72 619.65 1402.26 619.517 1401.96 619.25C1401.69 618.95 1401.56 618.483 1401.56 617.85V611.8C1401.56 611.167 1401.69 610.717 1401.96 610.45C1402.26 610.15 1402.72 610 1403.36 610H1417.86C1418.49 610 1418.94 610.15 1419.21 610.45C1419.51 610.717 1419.66 611.167 1419.66 611.8V636.35H1424.46C1425.09 636.35 1425.54 636.5 1425.81 636.8C1426.11 637.067 1426.26 637.517 1426.26 638.15V644.2C1426.26 644.833 1426.11 645.3 1425.81 645.6C1425.54 645.867 1425.09 646 1424.46 646ZM1461.64 636.55C1461.64 638.083 1461.42 639.483 1460.99 640.75C1460.55 641.983 1459.77 643.05 1458.64 643.95C1457.5 644.817 1455.94 645.5 1453.94 646C1451.97 646.5 1449.45 646.75 1446.39 646.75C1443.32 646.75 1440.79 646.5 1438.79 646C1436.82 645.5 1435.27 644.817 1434.14 643.95C1433 643.05 1432.2 641.983 1431.74 640.75C1431.3 639.483 1431.09 638.083 1431.09 636.55V619.5C1431.09 617.967 1431.3 616.583 1431.74 615.35C1432.2 614.083 1433 613 1434.14 612.1C1435.27 611.2 1436.82 610.5 1438.79 610C1440.79 609.5 1443.32 609.25 1446.39 609.25C1449.45 609.25 1451.97 609.5 1453.94 610C1455.94 610.5 1457.5 611.2 1458.64 612.1C1459.77 613 1460.55 614.083 1460.99 615.35C1461.42 616.583 1461.64 617.967 1461.64 619.5V636.55ZM1442.39 634.75C1442.39 635.417 1442.62 635.983 1443.09 636.45C1443.59 636.883 1444.69 637.1 1446.39 637.1C1448.09 637.1 1449.17 636.883 1449.64 636.45C1450.14 635.983 1450.39 635.417 1450.39 634.75V621.3C1450.39 620.667 1450.14 620.133 1449.64 619.7C1449.17 619.233 1448.09 619 1446.39 619C1444.69 619 1443.59 619.233 1443.09 619.7C1442.62 620.133 1442.39 620.667 1442.39 621.3V634.75ZM1497.96 636.55C1497.96 638.083 1497.75 639.483 1497.31 640.75C1496.88 641.983 1496.1 643.05 1494.96 643.95C1493.83 644.817 1492.26 645.5 1490.26 646C1488.3 646.5 1485.78 646.75 1482.71 646.75C1479.65 646.75 1477.11 646.5 1475.11 646C1473.15 645.5 1471.6 644.817 1470.46 643.95C1469.33 643.05 1468.53 641.983 1468.06 640.75C1467.63 639.483 1467.41 638.083 1467.41 636.55V619.5C1467.41 617.967 1467.63 616.583 1468.06 615.35C1468.53 614.083 1469.33 613 1470.46 612.1C1471.6 611.2 1473.15 610.5 1475.11 610C1477.11 609.5 1479.65 609.25 1482.71 609.25C1485.78 609.25 1488.3 609.5 1490.26 610C1492.26 610.5 1493.83 611.2 1494.96 612.1C1496.1 613 1496.88 614.083 1497.31 615.35C1497.75 616.583 1497.96 617.967 1497.96 619.5V636.55ZM1478.71 634.75C1478.71 635.417 1478.95 635.983 1479.41 636.45C1479.91 636.883 1481.01 637.1 1482.71 637.1C1484.41 637.1 1485.5 636.883 1485.96 636.45C1486.46 635.983 1486.71 635.417 1486.71 634.75V621.3C1486.71 620.667 1486.46 620.133 1485.96 619.7C1485.5 619.233 1484.41 619 1482.71 619C1481.01 619 1479.91 619.233 1479.41 619.7C1478.95 620.133 1478.71 620.667 1478.71 621.3V634.75Z" fill="#5A06FF"/>
</svg>
