<svg width="1920" height="676" viewBox="0 0 1920 676" fill="none" xmlns="http://www.w3.org/2000/svg">
<circle cx="278" cy="571" r="63" fill="#E8E2F3"/>
<path d="M289.785 588C291.035 588 291.585 587.45 291.585 586.2V580.15C291.585 578.9 291.035 578.35 289.785 578.35H284.985V553.8C284.985 552.55 284.435 552 283.185 552H268.685C267.435 552 266.885 552.55 266.885 553.8V559.85C266.885 561.1 267.435 561.65 268.685 561.65H273.285V578.35H267.685C266.435 578.35 265.885 578.9 265.885 580.15V586.2C265.885 587.45 266.435 588 267.685 588H289.785Z" fill="#5A06FF"/>
<circle cx="428" cy="571" r="63" fill="#E8E2F3"/>
<path d="M439.633 588C440.883 588 441.433 587.45 441.433 586.2V580.35C441.433 579.1 440.883 578.55 439.633 578.55H425.383V577.5C425.383 576.4 425.683 576.3 426.683 576L433.483 573.85C438.333 572.35 441.283 570.05 441.283 565V560.3C441.283 554.9 438.183 552 432.483 552H417.733C416.483 552 415.933 552.55 415.933 553.8V559.65C415.933 560.9 416.483 561.45 417.733 561.45H428.583C429.583 561.45 429.933 561.75 429.933 562.75C429.933 563.85 429.633 564.25 428.583 564.55L421.883 566.65C417.283 568.05 414.033 569.85 414.033 577.6V586.2C414.033 587.45 414.583 588 415.833 588H439.633Z" fill="#5A06FF"/>
<circle cx="730" cy="571" r="63" fill="#E8E2F3"/>
<path d="M732.975 579.65V586.2C732.975 587.45 733.525 588 734.775 588H742.475C743.725 588 744.275 587.45 744.275 586.2V553.8C744.275 552.55 743.725 552 742.475 552H734.775C733.525 552 732.975 552.55 732.975 553.8V569.2H728.325C727.375 569.2 726.775 568.55 726.775 567.5V553.8C726.775 552.55 726.225 552 724.975 552H717.225C715.975 552 715.425 552.55 715.425 553.8V571.35C715.425 577.05 718.025 579.65 724.525 579.65H732.975Z" fill="#5A06FF"/>
<ellipse cx="1031" cy="571" rx="64" ry="63" fill="#E8E2F3"/>
<path d="M1016.87 588C1018.12 588 1018.67 587.45 1018.67 586.2V576.05C1018.67 574.75 1018.12 574.25 1016.87 574.25H1006.77C1005.52 574.25 1004.97 574.75 1004.97 576.05V586.2C1004.97 587.45 1005.52 588 1006.77 588H1016.87ZM1036.06 588C1037.31 588 1037.86 587.45 1037.86 586.2V576.05C1037.86 574.75 1037.31 574.25 1036.06 574.25H1025.96C1024.71 574.25 1024.16 574.75 1024.16 576.05V586.2C1024.16 587.45 1024.71 588 1025.96 588H1036.06ZM1055.24 588C1056.49 588 1057.04 587.45 1057.04 586.2V576.05C1057.04 574.75 1056.49 574.25 1055.24 574.25H1045.14C1043.89 574.25 1043.34 574.75 1043.34 576.05V586.2C1043.34 587.45 1043.89 588 1045.14 588H1055.24Z" fill="#5A06FF"/>
<ellipse cx="579" cy="571" rx="64" ry="63" fill="#E8E2F3"/>
<path d="M567.332 578.55C566.082 578.55 565.532 579.1 565.532 580.35V586.2C565.532 587.45 566.082 588 567.332 588H583.132C589.532 588 592.832 584.85 592.832 579.7V574.7C592.832 570.3 591.282 568 586.532 567.45C588.732 566.5 589.482 564.6 589.482 562.05V559.15C589.482 554.75 586.832 552 581.282 552H567.332C566.082 552 565.532 552.55 565.532 553.8V559.75C565.532 561 566.082 561.55 567.332 561.55H576.632C578.232 561.55 578.532 562.25 578.532 563.05V563.8C578.532 564.6 578.232 565.3 576.632 565.3H571.382C570.132 565.3 569.582 565.85 569.582 567.1V572.45C569.582 573.7 570.132 574.25 571.382 574.25H579.882C581.482 574.25 581.782 574.9 581.782 575.7V577.05C581.782 577.85 581.482 578.55 579.882 578.55H567.332Z" fill="#5A06FF"/>
<circle cx="880" cy="571" r="63" fill="#E8E2F3"/>
<path d="M865.866 588C867.116 588 867.666 587.45 867.666 586.2V576.05C867.666 574.75 867.116 574.25 865.866 574.25H855.766C854.516 574.25 853.966 574.75 853.966 576.05V586.2C853.966 587.45 854.516 588 855.766 588H865.866ZM885.055 588C886.305 588 886.855 587.45 886.855 586.2V576.05C886.855 574.75 886.305 574.25 885.055 574.25H874.955C873.705 574.25 873.155 574.75 873.155 576.05V586.2C873.155 587.45 873.705 588 874.955 588H885.055ZM904.245 588C905.495 588 906.045 587.45 906.045 586.2V576.05C906.045 574.75 905.495 574.25 904.245 574.25H894.145C892.895 574.25 892.345 574.75 892.345 576.05V586.2C892.345 587.45 892.895 588 894.145 588H904.245Z" fill="#5A06FF"/>
<circle cx="1182" cy="571" r="63" fill="#E8E2F3"/>
<path d="M1167.87 588C1169.12 588 1169.67 587.45 1169.67 586.2V576.05C1169.67 574.75 1169.12 574.25 1167.87 574.25H1157.77C1156.52 574.25 1155.97 574.75 1155.97 576.05V586.2C1155.97 587.45 1156.52 588 1157.77 588H1167.87ZM1187.06 588C1188.31 588 1188.86 587.45 1188.86 586.2V576.05C1188.86 574.75 1188.31 574.25 1187.06 574.25H1176.96C1175.71 574.25 1175.16 574.75 1175.16 576.05V586.2C1175.16 587.45 1175.71 588 1176.96 588H1187.06ZM1206.24 588C1207.49 588 1208.04 587.45 1208.04 586.2V576.05C1208.04 574.75 1207.49 574.25 1206.24 574.25H1196.14C1194.89 574.25 1194.34 574.75 1194.34 576.05V586.2C1194.34 587.45 1194.89 588 1196.14 588H1206.24Z" fill="#5A06FF"/>
<circle cx="1332" cy="571" r="63" fill="#E8E2F3"/>
<path d="M1316.84 588C1326.29 588 1329.14 583.85 1329.14 577.75V561.35C1329.14 555.25 1326.44 551.25 1314.14 551.25C1302.64 551.25 1299.74 555.25 1299.74 561.35V566.15C1299.74 572.1 1302.44 575.15 1311.49 575.15C1314.14 575.15 1316.24 574.9 1317.84 574.4V575.5C1317.84 577.95 1317.14 578.5 1314.69 578.5H1305.34C1304.09 578.5 1303.54 579.05 1303.54 580.3V586.2C1303.54 587.45 1304.04 588 1305.34 588H1316.84ZM1317.84 565.1C1317.84 566.1 1317.39 566.9 1314.49 566.9C1311.49 566.9 1311.04 566.1 1311.04 565.1V562.15C1311.04 561.1 1311.49 560.3 1314.49 560.3C1317.39 560.3 1317.84 561.1 1317.84 562.15V565.1ZM1365.26 575.2C1365.26 570.5 1362.96 568.05 1359.96 567.45C1362.16 566.5 1362.91 564.6 1362.91 562.05V559.15C1362.91 554.25 1359.96 551.25 1349.91 551.25C1339.86 551.25 1336.76 554.25 1336.76 559.15V562.05C1336.76 564.6 1337.51 566.5 1339.71 567.45C1336.71 568.05 1334.41 570.5 1334.41 575.2V580.05C1334.41 585.25 1337.81 588.75 1349.86 588.75C1361.91 588.75 1365.26 585.25 1365.26 580.05V575.2ZM1346.71 564V561.8C1346.71 560.8 1347.06 560 1349.86 560C1352.71 560 1352.96 560.8 1352.96 561.8V564C1352.96 565.05 1352.71 565.85 1349.86 565.85C1347.06 565.85 1346.71 565.05 1346.71 564ZM1345.46 578.15V575.5C1345.46 574.5 1346.26 573.7 1349.86 573.7C1353.51 573.7 1354.21 574.5 1354.21 575.5V578.15C1354.21 579.2 1353.51 580 1349.86 580C1346.26 580 1345.46 579.2 1345.46 578.15Z" fill="#5A06FF"/>
<circle cx="1482" cy="571" r="63" fill="#E8E2F3"/>
<path d="M1466.78 588C1476.23 588 1479.08 583.85 1479.08 577.75V561.35C1479.08 555.25 1476.38 551.25 1464.08 551.25C1452.58 551.25 1449.68 555.25 1449.68 561.35V566.15C1449.68 572.1 1452.38 575.15 1461.43 575.15C1464.08 575.15 1466.18 574.9 1467.78 574.4V575.5C1467.78 577.95 1467.08 578.5 1464.63 578.5H1455.28C1454.03 578.5 1453.48 579.05 1453.48 580.3V586.2C1453.48 587.45 1453.98 588 1455.28 588H1466.78ZM1467.78 565.1C1467.78 566.1 1467.33 566.9 1464.43 566.9C1461.43 566.9 1460.98 566.1 1460.98 565.1V562.15C1460.98 561.1 1461.43 560.3 1464.43 560.3C1467.33 560.3 1467.78 561.1 1467.78 562.15V565.1ZM1501.45 588C1510.9 588 1513.75 583.85 1513.75 577.75V561.35C1513.75 555.25 1511.05 551.25 1498.75 551.25C1487.25 551.25 1484.35 555.25 1484.35 561.35V566.15C1484.35 572.1 1487.05 575.15 1496.1 575.15C1498.75 575.15 1500.85 574.9 1502.45 574.4V575.5C1502.45 577.95 1501.75 578.5 1499.3 578.5H1489.95C1488.7 578.5 1488.15 579.05 1488.15 580.3V586.2C1488.15 587.45 1488.65 588 1489.95 588H1501.45ZM1502.45 565.1C1502.45 566.1 1502 566.9 1499.1 566.9C1496.1 566.9 1495.65 566.1 1495.65 565.1V562.15C1495.65 561.1 1496.1 560.3 1499.1 560.3C1502 560.3 1502.45 561.1 1502.45 562.15V565.1Z" fill="#5A06FF"/>
<circle cx="1632" cy="571" r="63" fill="#E8E2F3"/>
<path d="M1607.46 588C1608.71 588 1609.26 587.45 1609.26 586.2V580.15C1609.26 578.9 1608.71 578.35 1607.46 578.35H1602.66V553.8C1602.66 552.55 1602.11 552 1600.86 552H1586.36C1585.11 552 1584.56 552.55 1584.56 553.8V559.85C1584.56 561.1 1585.11 561.65 1586.36 561.65H1590.96V578.35H1585.36C1584.11 578.35 1583.56 578.9 1583.56 580.15V586.2C1583.56 587.45 1584.11 588 1585.36 588H1607.46ZM1644.64 578.55V561.5C1644.64 555.4 1641.69 551.25 1629.39 551.25C1617.09 551.25 1614.09 555.4 1614.09 561.5V578.55C1614.09 584.65 1617.09 588.75 1629.39 588.75C1641.69 588.75 1644.64 584.65 1644.64 578.55ZM1625.39 576.75V563.3C1625.39 562 1625.99 561 1629.39 561C1632.84 561 1633.39 562 1633.39 563.3V576.75C1633.39 578.1 1632.84 579.1 1629.39 579.1C1625.99 579.1 1625.39 578.1 1625.39 576.75ZM1680.96 578.55V561.5C1680.96 555.4 1678.01 551.25 1665.71 551.25C1653.41 551.25 1650.41 555.4 1650.41 561.5V578.55C1650.41 584.65 1653.41 588.75 1665.71 588.75C1678.01 588.75 1680.96 584.65 1680.96 578.55ZM1661.71 576.75V563.3C1661.71 562 1662.31 561 1665.71 561C1669.16 561 1669.71 562 1669.71 563.3V576.75C1669.71 578.1 1669.16 579.1 1665.71 579.1C1662.31 579.1 1661.71 578.1 1661.71 576.75Z" fill="#5A06FF"/>
<path d="M491.209 233H389.549C386.636 233 384.489 232.387 383.109 231.16C381.883 229.78 381.269 227.633 381.269 224.72V196.89C381.269 193.977 381.883 191.907 383.109 190.68C384.489 189.3 386.636 188.61 389.549 188.61H415.309V111.79H394.149C391.236 111.79 389.089 111.177 387.709 109.95C386.483 108.57 385.869 106.423 385.869 103.51V75.68C385.869 72.7667 386.483 70.6967 387.709 69.47C389.089 68.09 391.236 67.4 394.149 67.4H460.849C463.763 67.4 465.833 68.09 467.059 69.47C468.439 70.6967 469.129 72.7667 469.129 75.68V188.61H491.209C494.123 188.61 496.193 189.3 497.419 190.68C498.8 191.907 499.49 193.977 499.49 196.89V224.72C499.49 227.633 498.8 229.78 497.419 231.16C496.193 232.387 494.123 233 491.209 233ZM662.234 189.53C662.234 196.583 661.238 203.023 659.244 208.85C657.251 214.523 653.648 219.43 648.434 223.57C643.221 227.557 636.014 230.7 626.814 233C617.768 235.3 606.191 236.45 592.084 236.45C577.978 236.45 566.324 235.3 557.124 233C548.078 230.7 540.948 227.557 535.734 223.57C530.521 219.43 526.841 214.523 524.694 208.85C522.701 203.023 521.704 196.583 521.704 189.53V111.1C521.704 104.047 522.701 97.6833 524.694 92.01C526.841 86.1833 530.521 81.2 535.734 77.06C540.948 72.92 548.078 69.7 557.124 67.4C566.324 65.1 577.978 63.95 592.084 63.95C606.191 63.95 617.768 65.1 626.814 67.4C636.014 69.7 643.221 72.92 648.434 77.06C653.648 81.2 657.251 86.1833 659.244 92.01C661.238 97.6833 662.234 104.047 662.234 111.1V189.53ZM573.684 181.25C573.684 184.317 574.758 186.923 576.904 189.07C579.204 191.063 584.264 192.06 592.084 192.06C599.904 192.06 604.888 191.063 607.034 189.07C609.334 186.923 610.484 184.317 610.484 181.25V119.38C610.484 116.467 609.334 114.013 607.034 112.02C604.888 109.873 599.904 108.8 592.084 108.8C584.264 108.8 579.204 109.873 576.904 112.02C574.758 114.013 573.684 116.467 573.684 119.38V181.25ZM829.344 189.53C829.344 196.583 828.347 203.023 826.354 208.85C824.36 214.523 820.757 219.43 815.544 223.57C810.33 227.557 803.124 230.7 793.924 233C784.877 235.3 773.3 236.45 759.194 236.45C745.087 236.45 733.434 235.3 724.234 233C715.187 230.7 708.057 227.557 702.844 223.57C697.63 219.43 693.95 214.523 691.804 208.85C689.81 203.023 688.814 196.583 688.814 189.53V111.1C688.814 104.047 689.81 97.6833 691.804 92.01C693.95 86.1833 697.63 81.2 702.844 77.06C708.057 72.92 715.187 69.7 724.234 67.4C733.434 65.1 745.087 63.95 759.194 63.95C773.3 63.95 784.877 65.1 793.924 67.4C803.124 69.7 810.33 72.92 815.544 77.06C820.757 81.2 824.36 86.1833 826.354 92.01C828.347 97.6833 829.344 104.047 829.344 111.1V189.53ZM740.794 181.25C740.794 184.317 741.867 186.923 744.014 189.07C746.314 191.063 751.374 192.06 759.194 192.06C767.014 192.06 771.997 191.063 774.144 189.07C776.444 186.923 777.594 184.317 777.594 181.25V119.38C777.594 116.467 776.444 114.013 774.144 112.02C771.997 109.873 767.014 108.8 759.194 108.8C751.374 108.8 746.314 109.873 744.014 112.02C741.867 114.013 740.794 116.467 740.794 119.38V181.25Z" fill="#5A06FF"/>
<path d="M995.903 233H918.393C915.48 233 913.333 232.387 911.953 231.16C910.726 229.78 910.113 227.633 910.113 224.72V75.68C910.113 72.7667 910.726 70.6967 911.953 69.47C913.333 68.09 915.48 67.4 918.393 67.4H995.903C1015.07 67.4 1029.25 71.2333 1038.45 78.9C1047.81 86.5667 1052.48 98.3733 1052.48 114.32V186.08C1052.48 202.027 1047.81 213.833 1038.45 221.5C1029.25 229.167 1015.07 233 995.903 233ZM962.323 111.33V189.53H989.693C993.373 189.53 996.057 188.61 997.743 186.77C999.583 184.93 1000.5 182.093 1000.5 178.26V122.37C1000.5 118.537 999.583 115.777 997.743 114.09C996.057 112.25 993.373 111.33 989.693 111.33H962.323ZM1141.74 115.7L1130.93 150.66H1167.04L1156.23 115.7C1155.62 114.32 1154.93 113.323 1154.16 112.71C1153.55 112.097 1152.78 111.79 1151.86 111.79H1146.11C1145.19 111.79 1144.35 112.097 1143.58 112.71C1142.97 113.323 1142.36 114.32 1141.74 115.7ZM1128.63 224.72C1128.63 227.633 1127.94 229.78 1126.56 231.16C1125.34 232.387 1123.27 233 1120.35 233H1086.54C1083.63 233 1081.48 232.387 1080.1 231.16C1078.88 229.78 1078.26 227.633 1078.26 224.72V164C1078.26 159.4 1078.95 154.11 1080.33 148.13C1081.87 142.15 1084.17 135.173 1087.23 127.2L1107.24 74.99C1108.16 72.3833 1109.54 70.4667 1111.38 69.24C1113.38 68.0133 1115.91 67.4 1118.97 67.4H1180.84C1183.76 67.4 1186.13 68.0133 1187.97 69.24C1189.97 70.4667 1191.42 72.3833 1192.34 74.99L1212.35 127.2C1215.42 135.173 1217.64 142.15 1219.02 148.13C1220.56 154.11 1221.32 159.4 1221.32 164V224.72C1221.32 227.633 1220.63 229.78 1219.25 231.16C1218.03 232.387 1215.96 233 1213.04 233H1178.31C1175.25 233 1172.95 232.387 1171.41 231.16C1170.03 229.78 1169.34 227.633 1169.34 224.72V192.52H1128.63V224.72ZM1327.83 233H1290.57C1287.66 233 1285.51 232.387 1284.13 231.16C1282.91 229.78 1282.29 227.633 1282.29 224.72V195.28L1247.1 148.13C1243.58 143.377 1241.2 139.237 1239.97 135.71C1238.9 132.183 1238.36 126.893 1238.36 119.84V75.68C1238.36 72.7667 1238.98 70.6967 1240.2 69.47C1241.58 68.09 1243.73 67.4 1246.64 67.4H1282.06C1284.98 67.4 1287.05 68.09 1288.27 69.47C1289.65 70.6967 1290.34 72.7667 1290.34 75.68V113.4C1290.34 114.933 1290.42 116.543 1290.57 118.23C1290.73 119.917 1291.34 121.527 1292.41 123.06L1302.99 139.62C1303.76 141 1304.53 141.997 1305.29 142.61C1306.21 143.223 1307.29 143.53 1308.51 143.53H1310.81C1312.04 143.53 1313.04 143.223 1313.8 142.61C1314.72 141.997 1315.57 141 1316.33 139.62L1326.91 123.06C1327.99 121.527 1328.6 119.917 1328.75 118.23C1328.91 116.543 1328.98 114.933 1328.98 113.4V75.68C1328.98 72.7667 1329.6 70.6967 1330.82 69.47C1332.2 68.09 1334.35 67.4 1337.26 67.4H1371.53C1374.45 67.4 1376.52 68.09 1377.74 69.47C1379.12 70.6967 1379.81 72.7667 1379.81 75.68V119.84C1379.81 126.893 1379.2 132.183 1377.97 135.71C1376.75 139.237 1374.45 143.377 1371.07 148.13L1336.11 195.51V224.72C1336.11 227.633 1335.42 229.78 1334.04 231.16C1332.82 232.387 1330.75 233 1327.83 233ZM1482.87 233H1410.19C1407.28 233 1405.13 232.387 1403.75 231.16C1402.52 229.78 1401.91 227.633 1401.91 224.72V197.81C1401.91 194.897 1402.52 192.827 1403.75 191.6C1405.13 190.22 1407.28 189.53 1410.19 189.53H1472.06C1474.05 189.53 1475.51 188.917 1476.43 187.69C1477.5 186.31 1478.04 184.7 1478.04 182.86C1478.04 180.253 1477.5 178.337 1476.43 177.11C1475.51 175.883 1474.05 175.193 1472.06 175.04L1437.56 170.21C1426.83 168.677 1418.16 165.15 1411.57 159.63C1405.13 154.11 1401.91 144.91 1401.91 132.03V107.88C1401.91 94.8467 1406.13 84.88 1414.56 77.98C1422.99 70.9267 1434.65 67.4 1449.52 67.4H1513.92C1516.83 67.4 1518.9 68.09 1520.13 69.47C1521.51 70.6967 1522.2 72.7667 1522.2 75.68V103.05C1522.2 105.963 1521.51 108.11 1520.13 109.49C1518.9 110.717 1516.83 111.33 1513.92 111.33H1460.33C1458.34 111.33 1456.8 112.02 1455.73 113.4C1454.66 114.627 1454.12 116.237 1454.12 118.23C1454.12 120.223 1454.66 121.91 1455.73 123.29C1456.8 124.67 1458.34 125.437 1460.33 125.59L1494.6 130.19C1505.33 131.723 1514 135.25 1520.59 140.77C1527.18 146.29 1530.48 155.49 1530.48 168.37V192.52C1530.48 205.553 1526.19 215.597 1517.6 222.65C1509.17 229.55 1497.59 233 1482.87 233ZM359.145 463H303.025C283.859 463 269.599 459.167 260.245 451.5C251.045 443.833 246.445 432.027 246.445 416.08V344.55C246.445 328.603 251.045 316.797 260.245 309.13C269.599 301.31 283.859 297.4 303.025 297.4H359.145C362.059 297.4 364.129 298.09 365.355 299.47C366.735 300.697 367.425 302.767 367.425 305.68V333.51C367.425 336.423 366.735 338.57 365.355 339.95C364.129 341.177 362.059 341.79 359.145 341.79H312.915C308.162 341.79 304.635 342.787 302.335 344.78C300.035 346.62 298.885 349.457 298.885 353.29V408.03C298.885 411.863 300.035 414.7 302.335 416.54C304.635 418.227 308.162 419.07 312.915 419.07H359.145C362.059 419.07 364.129 419.76 365.355 421.14C366.735 422.367 367.425 424.437 367.425 427.35V454.72C367.425 457.633 366.735 459.78 365.355 461.16C364.129 462.387 362.059 463 359.145 463ZM437.329 463H401.679C398.766 463 396.619 462.387 395.239 461.16C394.013 459.78 393.399 457.633 393.399 454.72V305.68C393.399 302.767 394.013 300.697 395.239 299.47C396.619 298.09 398.766 297.4 401.679 297.4H437.329C440.243 297.4 442.313 298.09 443.539 299.47C444.919 300.697 445.609 302.767 445.609 305.68V355.59H484.019V305.68C484.019 302.767 484.633 300.697 485.859 299.47C487.239 298.09 489.386 297.4 492.299 297.4H527.949C530.863 297.4 532.933 298.09 534.159 299.47C535.539 300.697 536.229 302.767 536.229 305.68V454.72C536.229 457.633 535.539 459.78 534.159 461.16C532.933 462.387 530.863 463 527.949 463H492.299C489.386 463 487.239 462.387 485.859 461.16C484.633 459.78 484.019 457.633 484.019 454.72V403.66H445.609V454.72C445.609 457.633 444.919 459.78 443.539 461.16C442.313 462.387 440.243 463 437.329 463ZM627.951 345.7L617.141 380.66H653.251L642.441 345.7C641.827 344.32 641.137 343.323 640.371 342.71C639.757 342.097 638.991 341.79 638.071 341.79H632.321C631.401 341.79 630.557 342.097 629.791 342.71C629.177 343.323 628.564 344.32 627.951 345.7ZM614.841 454.72C614.841 457.633 614.151 459.78 612.771 461.16C611.544 462.387 609.474 463 606.561 463H572.751C569.837 463 567.691 462.387 566.311 461.16C565.084 459.78 564.471 457.633 564.471 454.72V394C564.471 389.4 565.161 384.11 566.541 378.13C568.074 372.15 570.374 365.173 573.441 357.2L593.451 304.99C594.371 302.383 595.751 300.467 597.591 299.24C599.584 298.013 602.114 297.4 605.181 297.4H667.051C669.964 297.4 672.341 298.013 674.181 299.24C676.174 300.467 677.631 302.383 678.551 304.99L698.561 357.2C701.627 365.173 703.851 372.15 705.231 378.13C706.764 384.11 707.531 389.4 707.531 394V454.72C707.531 457.633 706.841 459.78 705.461 461.16C704.234 462.387 702.164 463 699.251 463H664.521C661.454 463 659.154 462.387 657.621 461.16C656.241 459.78 655.551 457.633 655.551 454.72V422.52H614.841V454.72ZM861.279 463H744.209C741.295 463 739.149 462.387 737.769 461.16C736.542 459.78 735.929 457.633 735.929 454.72V305.68C735.929 302.767 736.542 300.697 737.769 299.47C739.149 298.09 741.295 297.4 744.209 297.4H779.859C782.772 297.4 784.842 298.09 786.069 299.47C787.449 300.697 788.139 302.767 788.139 305.68V419.53H819.649V382.27C819.649 379.357 820.262 377.287 821.489 376.06C822.869 374.68 825.015 373.99 827.929 373.99H861.279C864.192 373.99 866.262 374.68 867.489 376.06C868.869 377.287 869.559 379.357 869.559 382.27V454.72C869.559 457.633 868.869 459.78 867.489 461.16C866.262 462.387 864.192 463 861.279 463ZM1021.2 463H904.13C901.217 463 899.07 462.387 897.69 461.16C896.464 459.78 895.85 457.633 895.85 454.72V305.68C895.85 302.767 896.464 300.697 897.69 299.47C899.07 298.09 901.217 297.4 904.13 297.4H939.78C942.694 297.4 944.764 298.09 945.99 299.47C947.37 300.697 948.06 302.767 948.06 305.68V419.53H979.57V382.27C979.57 379.357 980.184 377.287 981.41 376.06C982.79 374.68 984.937 373.99 987.85 373.99H1021.2C1024.11 373.99 1026.18 374.68 1027.41 376.06C1028.79 377.287 1029.48 379.357 1029.48 382.27V454.72C1029.48 457.633 1028.79 459.78 1027.41 461.16C1026.18 462.387 1024.11 463 1021.2 463ZM1170.77 463H1064.05C1061.14 463 1058.99 462.387 1057.61 461.16C1056.39 459.78 1055.77 457.633 1055.77 454.72V305.68C1055.77 302.767 1056.39 300.697 1057.61 299.47C1058.99 298.09 1061.14 297.4 1064.05 297.4H1170.77C1173.69 297.4 1175.76 298.09 1176.98 299.47C1178.36 300.697 1179.05 302.767 1179.05 305.68V332.59C1179.05 335.503 1178.36 337.65 1176.98 339.03C1175.76 340.257 1173.69 340.87 1170.77 340.87H1107.29V358.58H1152.14C1155.06 358.58 1157.13 359.27 1158.35 360.65C1159.73 361.877 1160.42 363.947 1160.42 366.86V391.47C1160.42 394.383 1159.73 396.53 1158.35 397.91C1157.13 399.137 1155.06 399.75 1152.14 399.75H1107.29V419.53H1170.77C1173.69 419.53 1175.76 420.22 1176.98 421.6C1178.36 422.827 1179.05 424.897 1179.05 427.81V454.72C1179.05 457.633 1178.36 459.78 1176.98 461.16C1175.76 462.387 1173.69 463 1170.77 463ZM1249.04 463H1214.54C1211.63 463 1209.48 462.387 1208.1 461.16C1206.87 459.78 1206.26 457.633 1206.26 454.72V305.68C1206.26 302.767 1206.87 300.697 1208.1 299.47C1209.48 298.09 1211.63 297.4 1214.54 297.4H1238.46C1241.37 297.4 1243.83 297.86 1245.82 298.78C1247.97 299.7 1250.04 301.31 1252.03 303.61L1296.65 354.67V305.68C1296.65 302.767 1297.26 300.697 1298.49 299.47C1299.87 298.09 1302.02 297.4 1304.93 297.4H1339.43C1342.34 297.4 1344.41 298.09 1345.64 299.47C1347.02 300.697 1347.71 302.767 1347.71 305.68V454.72C1347.71 457.633 1347.02 459.78 1345.64 461.16C1344.41 462.387 1342.34 463 1339.43 463H1304.93C1302.02 463 1299.87 462.387 1298.49 461.16C1297.26 459.78 1296.65 457.633 1296.65 454.72V426.43L1257.32 378.82V454.72C1257.32 457.633 1256.63 459.78 1255.25 461.16C1254.02 462.387 1251.95 463 1249.04 463ZM1505.93 463H1433.48C1414.32 463 1400.06 459.167 1390.7 451.5C1381.5 443.833 1376.9 432.027 1376.9 416.08V344.32C1376.9 328.373 1381.5 316.567 1390.7 308.9C1400.06 301.233 1414.32 297.4 1433.48 297.4H1490.98C1493.9 297.4 1495.97 298.09 1497.19 299.47C1498.57 300.697 1499.26 302.767 1499.26 305.68V333.51C1499.26 336.423 1498.57 338.57 1497.19 339.95C1495.97 341.177 1493.9 341.79 1490.98 341.79H1443.14C1438.39 341.79 1434.86 342.787 1432.56 344.78C1430.26 346.62 1429.11 349.457 1429.11 353.29V408.26C1429.11 412.093 1429.96 414.93 1431.64 416.77C1433.48 418.61 1436.17 419.53 1439.69 419.53H1462V383.65C1462 380.737 1462.62 378.667 1463.84 377.44C1465.22 376.06 1467.37 375.37 1470.28 375.37H1505.93C1508.85 375.37 1510.92 376.06 1512.14 377.44C1513.52 378.667 1514.21 380.737 1514.21 383.65V454.72C1514.21 457.633 1513.52 459.78 1512.14 461.16C1510.92 462.387 1508.85 463 1505.93 463ZM1657.28 463H1550.56C1547.64 463 1545.5 462.387 1544.12 461.16C1542.89 459.78 1542.28 457.633 1542.28 454.72V305.68C1542.28 302.767 1542.89 300.697 1544.12 299.47C1545.5 298.09 1547.64 297.4 1550.56 297.4H1657.28C1660.19 297.4 1662.26 298.09 1663.49 299.47C1664.87 300.697 1665.56 302.767 1665.56 305.68V332.59C1665.56 335.503 1664.87 337.65 1663.49 339.03C1662.26 340.257 1660.19 340.87 1657.28 340.87H1593.8V358.58H1638.65C1641.56 358.58 1643.63 359.27 1644.86 360.65C1646.24 361.877 1646.93 363.947 1646.93 366.86V391.47C1646.93 394.383 1646.24 396.53 1644.86 397.91C1643.63 399.137 1641.56 399.75 1638.65 399.75H1593.8V419.53H1657.28C1660.19 419.53 1662.26 420.22 1663.49 421.6C1664.87 422.827 1665.56 424.897 1665.56 427.81V454.72C1665.56 457.633 1664.87 459.78 1663.49 461.16C1662.26 462.387 1660.19 463 1657.28 463Z" fill="#323232"/>
</svg>
