<svg width="1920" height="1080" viewBox="0 0 1920 1080" fill="none" xmlns="http://www.w3.org/2000/svg">
<path d="M818.973 234H717.313C714.4 234 712.253 233.387 710.873 232.16C709.646 230.78 709.033 228.633 709.033 225.72V197.89C709.033 194.977 709.646 192.907 710.873 191.68C712.253 190.3 714.4 189.61 717.313 189.61H743.073V112.79H721.913C719 112.79 716.853 112.177 715.473 110.95C714.246 109.57 713.633 107.423 713.633 104.51V76.68C713.633 73.7667 714.246 71.6967 715.473 70.47C716.853 69.09 719 68.4 721.913 68.4H788.613C791.527 68.4 793.597 69.09 794.823 70.47C796.203 71.6967 796.893 73.7667 796.893 76.68V189.61H818.973C821.887 189.61 823.957 190.3 825.183 191.68C826.563 192.907 827.253 194.977 827.253 197.89V225.72C827.253 228.633 826.563 230.78 825.183 232.16C823.957 233.387 821.887 234 818.973 234ZM989.998 190.53C989.998 197.583 989.001 204.023 987.008 209.85C985.015 215.523 981.411 220.43 976.198 224.57C970.985 228.557 963.778 231.7 954.578 234C945.531 236.3 933.955 237.45 919.848 237.45C905.741 237.45 894.088 236.3 884.888 234C875.841 231.7 868.711 228.557 863.498 224.57C858.285 220.43 854.605 215.523 852.458 209.85C850.465 204.023 849.468 197.583 849.468 190.53V112.1C849.468 105.047 850.465 98.6833 852.458 93.01C854.605 87.1833 858.285 82.2 863.498 78.06C868.711 73.92 875.841 70.7 884.888 68.4C894.088 66.1 905.741 64.95 919.848 64.95C933.955 64.95 945.531 66.1 954.578 68.4C963.778 70.7 970.985 73.92 976.198 78.06C981.411 82.2 985.015 87.1833 987.008 93.01C989.001 98.6833 989.998 105.047 989.998 112.1V190.53ZM901.448 182.25C901.448 185.317 902.521 187.923 904.668 190.07C906.968 192.063 912.028 193.06 919.848 193.06C927.668 193.06 932.651 192.063 934.798 190.07C937.098 187.923 938.248 185.317 938.248 182.25V120.38C938.248 117.467 937.098 115.013 934.798 113.02C932.651 110.873 927.668 109.8 919.848 109.8C912.028 109.8 906.968 110.873 904.668 113.02C902.521 115.013 901.448 117.467 901.448 120.38V182.25ZM1157.11 190.53C1157.11 197.583 1156.11 204.023 1154.12 209.85C1152.12 215.523 1148.52 220.43 1143.31 224.57C1138.09 228.557 1130.89 231.7 1121.69 234C1112.64 236.3 1101.06 237.45 1086.96 237.45C1072.85 237.45 1061.2 236.3 1052 234C1042.95 231.7 1035.82 228.557 1030.61 224.57C1025.39 220.43 1021.71 215.523 1019.57 209.85C1017.57 204.023 1016.58 197.583 1016.58 190.53V112.1C1016.58 105.047 1017.57 98.6833 1019.57 93.01C1021.71 87.1833 1025.39 82.2 1030.61 78.06C1035.82 73.92 1042.95 70.7 1052 68.4C1061.2 66.1 1072.85 64.95 1086.96 64.95C1101.06 64.95 1112.64 66.1 1121.69 68.4C1130.89 70.7 1138.09 73.92 1143.31 78.06C1148.52 82.2 1152.12 87.1833 1154.12 93.01C1156.11 98.6833 1157.11 105.047 1157.11 112.1V190.53ZM1068.56 182.25C1068.56 185.317 1069.63 187.923 1071.78 190.07C1074.08 192.063 1079.14 193.06 1086.96 193.06C1094.78 193.06 1099.76 192.063 1101.91 190.07C1104.21 187.923 1105.36 185.317 1105.36 182.25V120.38C1105.36 117.467 1104.21 115.013 1101.91 113.02C1099.76 110.873 1094.78 109.8 1086.96 109.8C1079.14 109.8 1074.08 110.873 1071.78 113.02C1069.63 115.013 1068.56 117.467 1068.56 120.38V182.25Z" fill="#5A06FF"/>
<path d="M738.896 464H661.386C658.473 464 656.326 463.387 654.946 462.16C653.72 460.78 653.106 458.633 653.106 455.72V306.68C653.106 303.767 653.72 301.697 654.946 300.47C656.326 299.09 658.473 298.4 661.386 298.4H738.896C758.063 298.4 772.246 302.233 781.446 309.9C790.8 317.567 795.476 329.373 795.476 345.32V417.08C795.476 433.027 790.8 444.833 781.446 452.5C772.246 460.167 758.063 464 738.896 464ZM705.316 342.33V420.53H732.686C736.366 420.53 739.05 419.61 740.736 417.77C742.576 415.93 743.496 413.093 743.496 409.26V353.37C743.496 349.537 742.576 346.777 740.736 345.09C739.05 343.25 736.366 342.33 732.686 342.33H705.316ZM884.738 346.7L873.928 381.66H910.038L899.228 346.7C898.615 345.32 897.925 344.323 897.158 343.71C896.545 343.097 895.778 342.79 894.858 342.79H889.108C888.188 342.79 887.345 343.097 886.578 343.71C885.965 344.323 885.351 345.32 884.738 346.7ZM871.628 455.72C871.628 458.633 870.938 460.78 869.558 462.16C868.331 463.387 866.261 464 863.348 464H829.538C826.625 464 824.478 463.387 823.098 462.16C821.871 460.78 821.258 458.633 821.258 455.72V395C821.258 390.4 821.948 385.11 823.328 379.13C824.861 373.15 827.161 366.173 830.228 358.2L850.238 305.99C851.158 303.383 852.538 301.467 854.378 300.24C856.371 299.013 858.901 298.4 861.968 298.4H923.838C926.751 298.4 929.128 299.013 930.968 300.24C932.961 301.467 934.418 303.383 935.338 305.99L955.348 358.2C958.415 366.173 960.638 373.15 962.018 379.13C963.551 385.11 964.318 390.4 964.318 395V455.72C964.318 458.633 963.628 460.78 962.248 462.16C961.021 463.387 958.951 464 956.038 464H921.308C918.241 464 915.941 463.387 914.408 462.16C913.028 460.78 912.338 458.633 912.338 455.72V423.52H871.628V455.72ZM1070.83 464H1033.57C1030.65 464 1028.51 463.387 1027.13 462.16C1025.9 460.78 1025.29 458.633 1025.29 455.72V426.28L990.096 379.13C986.569 374.377 984.193 370.237 982.966 366.71C981.893 363.183 981.356 357.893 981.356 350.84V306.68C981.356 303.767 981.969 301.697 983.196 300.47C984.576 299.09 986.723 298.4 989.636 298.4H1025.06C1027.97 298.4 1030.04 299.09 1031.27 300.47C1032.65 301.697 1033.34 303.767 1033.34 306.68V344.4C1033.34 345.933 1033.41 347.543 1033.57 349.23C1033.72 350.917 1034.33 352.527 1035.41 354.06L1045.99 370.62C1046.75 372 1047.52 372.997 1048.29 373.61C1049.21 374.223 1050.28 374.53 1051.51 374.53H1053.81C1055.03 374.53 1056.03 374.223 1056.8 373.61C1057.72 372.997 1058.56 372 1059.33 370.62L1069.91 354.06C1070.98 352.527 1071.59 350.917 1071.75 349.23C1071.9 347.543 1071.98 345.933 1071.98 344.4V306.68C1071.98 303.767 1072.59 301.697 1073.82 300.47C1075.2 299.09 1077.34 298.4 1080.26 298.4H1114.53C1117.44 298.4 1119.51 299.09 1120.74 300.47C1122.12 301.697 1122.81 303.767 1122.81 306.68V350.84C1122.81 357.893 1122.19 363.183 1120.97 366.71C1119.74 370.237 1117.44 374.377 1114.07 379.13L1079.11 426.51V455.72C1079.11 458.633 1078.42 460.78 1077.04 462.16C1075.81 463.387 1073.74 464 1070.83 464ZM1225.86 464H1153.18C1150.27 464 1148.12 463.387 1146.74 462.16C1145.52 460.78 1144.9 458.633 1144.9 455.72V428.81C1144.9 425.897 1145.52 423.827 1146.74 422.6C1148.12 421.22 1150.27 420.53 1153.18 420.53H1215.05C1217.05 420.53 1218.5 419.917 1219.42 418.69C1220.5 417.31 1221.03 415.7 1221.03 413.86C1221.03 411.253 1220.5 409.337 1219.42 408.11C1218.5 406.883 1217.05 406.193 1215.05 406.04L1180.55 401.21C1169.82 399.677 1161.16 396.15 1154.56 390.63C1148.12 385.11 1144.9 375.91 1144.9 363.03V338.88C1144.9 325.847 1149.12 315.88 1157.55 308.98C1165.99 301.927 1177.64 298.4 1192.51 298.4H1256.91C1259.83 298.4 1261.9 299.09 1263.12 300.47C1264.5 301.697 1265.19 303.767 1265.19 306.68V334.05C1265.19 336.963 1264.5 339.11 1263.12 340.49C1261.9 341.717 1259.83 342.33 1256.91 342.33H1203.32C1201.33 342.33 1199.8 343.02 1198.72 344.4C1197.65 345.627 1197.11 347.237 1197.11 349.23C1197.11 351.223 1197.65 352.91 1198.72 354.29C1199.8 355.67 1201.33 356.437 1203.32 356.59L1237.59 361.19C1248.33 362.723 1256.99 366.25 1263.58 371.77C1270.18 377.29 1273.47 386.49 1273.47 399.37V423.52C1273.47 436.553 1269.18 446.597 1260.59 453.65C1252.16 460.55 1240.58 464 1225.86 464ZM364.145 694H308.025C288.859 694 274.599 690.167 265.245 682.5C256.045 674.833 251.445 663.027 251.445 647.08V575.55C251.445 559.603 256.045 547.797 265.245 540.13C274.599 532.31 288.859 528.4 308.025 528.4H364.145C367.059 528.4 369.129 529.09 370.355 530.47C371.735 531.697 372.425 533.767 372.425 536.68V564.51C372.425 567.423 371.735 569.57 370.355 570.95C369.129 572.177 367.059 572.79 364.145 572.79H317.915C313.162 572.79 309.635 573.787 307.335 575.78C305.035 577.62 303.885 580.457 303.885 584.29V639.03C303.885 642.863 305.035 645.7 307.335 647.54C309.635 649.227 313.162 650.07 317.915 650.07H364.145C367.059 650.07 369.129 650.76 370.355 652.14C371.735 653.367 372.425 655.437 372.425 658.35V685.72C372.425 688.633 371.735 690.78 370.355 692.16C369.129 693.387 367.059 694 364.145 694ZM442.329 694H406.679C403.766 694 401.619 693.387 400.239 692.16C399.013 690.78 398.399 688.633 398.399 685.72V536.68C398.399 533.767 399.013 531.697 400.239 530.47C401.619 529.09 403.766 528.4 406.679 528.4H442.329C445.243 528.4 447.313 529.09 448.539 530.47C449.919 531.697 450.609 533.767 450.609 536.68V586.59H489.019V536.68C489.019 533.767 489.633 531.697 490.859 530.47C492.239 529.09 494.386 528.4 497.299 528.4H532.949C535.863 528.4 537.933 529.09 539.159 530.47C540.539 531.697 541.229 533.767 541.229 536.68V685.72C541.229 688.633 540.539 690.78 539.159 692.16C537.933 693.387 535.863 694 532.949 694H497.299C494.386 694 492.239 693.387 490.859 692.16C489.633 690.78 489.019 688.633 489.019 685.72V634.66H450.609V685.72C450.609 688.633 449.919 690.78 448.539 692.16C447.313 693.387 445.243 694 442.329 694ZM632.951 576.7L622.141 611.66H658.251L647.441 576.7C646.827 575.32 646.137 574.323 645.371 573.71C644.757 573.097 643.991 572.79 643.071 572.79H637.321C636.401 572.79 635.557 573.097 634.791 573.71C634.177 574.323 633.564 575.32 632.951 576.7ZM619.841 685.72C619.841 688.633 619.151 690.78 617.771 692.16C616.544 693.387 614.474 694 611.561 694H577.751C574.837 694 572.691 693.387 571.311 692.16C570.084 690.78 569.471 688.633 569.471 685.72V625C569.471 620.4 570.161 615.11 571.541 609.13C573.074 603.15 575.374 596.173 578.441 588.2L598.451 535.99C599.371 533.383 600.751 531.467 602.591 530.24C604.584 529.013 607.114 528.4 610.181 528.4H672.051C674.964 528.4 677.341 529.013 679.181 530.24C681.174 531.467 682.631 533.383 683.551 535.99L703.561 588.2C706.627 596.173 708.851 603.15 710.231 609.13C711.764 615.11 712.531 620.4 712.531 625V685.72C712.531 688.633 711.841 690.78 710.461 692.16C709.234 693.387 707.164 694 704.251 694H669.521C666.454 694 664.154 693.387 662.621 692.16C661.241 690.78 660.551 688.633 660.551 685.72V653.52H619.841V685.72ZM866.279 694H749.209C746.295 694 744.149 693.387 742.769 692.16C741.542 690.78 740.929 688.633 740.929 685.72V536.68C740.929 533.767 741.542 531.697 742.769 530.47C744.149 529.09 746.295 528.4 749.209 528.4H784.859C787.772 528.4 789.842 529.09 791.069 530.47C792.449 531.697 793.139 533.767 793.139 536.68V650.53H824.649V613.27C824.649 610.357 825.262 608.287 826.489 607.06C827.869 605.68 830.015 604.99 832.929 604.99H866.279C869.192 604.99 871.262 605.68 872.489 607.06C873.869 608.287 874.559 610.357 874.559 613.27V685.72C874.559 688.633 873.869 690.78 872.489 692.16C871.262 693.387 869.192 694 866.279 694ZM1026.2 694H909.13C906.217 694 904.07 693.387 902.69 692.16C901.464 690.78 900.85 688.633 900.85 685.72V536.68C900.85 533.767 901.464 531.697 902.69 530.47C904.07 529.09 906.217 528.4 909.13 528.4H944.78C947.694 528.4 949.764 529.09 950.99 530.47C952.37 531.697 953.06 533.767 953.06 536.68V650.53H984.57V613.27C984.57 610.357 985.184 608.287 986.41 607.06C987.79 605.68 989.937 604.99 992.85 604.99H1026.2C1029.11 604.99 1031.18 605.68 1032.41 607.06C1033.79 608.287 1034.48 610.357 1034.48 613.27V685.72C1034.48 688.633 1033.79 690.78 1032.41 692.16C1031.18 693.387 1029.11 694 1026.2 694ZM1175.77 694H1069.05C1066.14 694 1063.99 693.387 1062.61 692.16C1061.39 690.78 1060.77 688.633 1060.77 685.72V536.68C1060.77 533.767 1061.39 531.697 1062.61 530.47C1063.99 529.09 1066.14 528.4 1069.05 528.4H1175.77C1178.69 528.4 1180.76 529.09 1181.98 530.47C1183.36 531.697 1184.05 533.767 1184.05 536.68V563.59C1184.05 566.503 1183.36 568.65 1181.98 570.03C1180.76 571.257 1178.69 571.87 1175.77 571.87H1112.29V589.58H1157.14C1160.06 589.58 1162.13 590.27 1163.35 591.65C1164.73 592.877 1165.42 594.947 1165.42 597.86V622.47C1165.42 625.383 1164.73 627.53 1163.35 628.91C1162.13 630.137 1160.06 630.75 1157.14 630.75H1112.29V650.53H1175.77C1178.69 650.53 1180.76 651.22 1181.98 652.6C1183.36 653.827 1184.05 655.897 1184.05 658.81V685.72C1184.05 688.633 1183.36 690.78 1181.98 692.16C1180.76 693.387 1178.69 694 1175.77 694ZM1254.04 694H1219.54C1216.63 694 1214.48 693.387 1213.1 692.16C1211.87 690.78 1211.26 688.633 1211.26 685.72V536.68C1211.26 533.767 1211.87 531.697 1213.1 530.47C1214.48 529.09 1216.63 528.4 1219.54 528.4H1243.46C1246.37 528.4 1248.83 528.86 1250.82 529.78C1252.97 530.7 1255.04 532.31 1257.03 534.61L1301.65 585.67V536.68C1301.65 533.767 1302.26 531.697 1303.49 530.47C1304.87 529.09 1307.02 528.4 1309.93 528.4H1344.43C1347.34 528.4 1349.41 529.09 1350.64 530.47C1352.02 531.697 1352.71 533.767 1352.71 536.68V685.72C1352.71 688.633 1352.02 690.78 1350.64 692.16C1349.41 693.387 1347.34 694 1344.43 694H1309.93C1307.02 694 1304.87 693.387 1303.49 692.16C1302.26 690.78 1301.65 688.633 1301.65 685.72V657.43L1262.32 609.82V685.72C1262.32 688.633 1261.63 690.78 1260.25 692.16C1259.02 693.387 1256.95 694 1254.04 694ZM1510.93 694H1438.48C1419.32 694 1405.06 690.167 1395.7 682.5C1386.5 674.833 1381.9 663.027 1381.9 647.08V575.32C1381.9 559.373 1386.5 547.567 1395.7 539.9C1405.06 532.233 1419.32 528.4 1438.48 528.4H1495.98C1498.9 528.4 1500.97 529.09 1502.19 530.47C1503.57 531.697 1504.26 533.767 1504.26 536.68V564.51C1504.26 567.423 1503.57 569.57 1502.19 570.95C1500.97 572.177 1498.9 572.79 1495.98 572.79H1448.14C1443.39 572.79 1439.86 573.787 1437.56 575.78C1435.26 577.62 1434.11 580.457 1434.11 584.29V639.26C1434.11 643.093 1434.96 645.93 1436.64 647.77C1438.48 649.61 1441.17 650.53 1444.69 650.53H1467V614.65C1467 611.737 1467.62 609.667 1468.84 608.44C1470.22 607.06 1472.37 606.37 1475.28 606.37H1510.93C1513.85 606.37 1515.92 607.06 1517.14 608.44C1518.52 609.667 1519.21 611.737 1519.21 614.65V685.72C1519.21 688.633 1518.52 690.78 1517.14 692.16C1515.92 693.387 1513.85 694 1510.93 694ZM1662.28 694H1555.56C1552.64 694 1550.5 693.387 1549.12 692.16C1547.89 690.78 1547.28 688.633 1547.28 685.72V536.68C1547.28 533.767 1547.89 531.697 1549.12 530.47C1550.5 529.09 1552.64 528.4 1555.56 528.4H1662.28C1665.19 528.4 1667.26 529.09 1668.49 530.47C1669.87 531.697 1670.56 533.767 1670.56 536.68V563.59C1670.56 566.503 1669.87 568.65 1668.49 570.03C1667.26 571.257 1665.19 571.87 1662.28 571.87H1598.8V589.58H1643.65C1646.56 589.58 1648.63 590.27 1649.86 591.65C1651.24 592.877 1651.93 594.947 1651.93 597.86V622.47C1651.93 625.383 1651.24 627.53 1649.86 628.91C1648.63 630.137 1646.56 630.75 1643.65 630.75H1598.8V650.53H1662.28C1665.19 650.53 1667.26 651.22 1668.49 652.6C1669.87 653.827 1670.56 655.897 1670.56 658.81V685.72C1670.56 688.633 1669.87 690.78 1668.49 692.16C1667.26 693.387 1665.19 694 1662.28 694Z" fill="#323232"/>
<circle cx="283" cy="789" r="63" fill="#E8E2F3"/>
<path d="M294.785 806C296.035 806 296.585 805.45 296.585 804.2V798.15C296.585 796.9 296.035 796.35 294.785 796.35H289.985V771.8C289.985 770.55 289.435 770 288.185 770H273.685C272.435 770 271.885 770.55 271.885 771.8V777.85C271.885 779.1 272.435 779.65 273.685 779.65H278.285V796.35H272.685C271.435 796.35 270.885 796.9 270.885 798.15V804.2C270.885 805.45 271.435 806 272.685 806H294.785Z" fill="#5A06FF"/>
<circle cx="433" cy="789" r="63" fill="#E8E2F3"/>
<path d="M444.633 806C445.883 806 446.433 805.45 446.433 804.2V798.35C446.433 797.1 445.883 796.55 444.633 796.55H430.383V795.5C430.383 794.4 430.683 794.3 431.683 794L438.483 791.85C443.333 790.35 446.283 788.05 446.283 783V778.3C446.283 772.9 443.183 770 437.483 770H422.733C421.483 770 420.933 770.55 420.933 771.8V777.65C420.933 778.9 421.483 779.45 422.733 779.45H433.583C434.583 779.45 434.933 779.75 434.933 780.75C434.933 781.85 434.633 782.25 433.583 782.55L426.883 784.65C422.283 786.05 419.033 787.85 419.033 795.6V804.2C419.033 805.45 419.583 806 420.833 806H444.633Z" fill="#5A06FF"/>
<circle cx="735" cy="789" r="63" fill="#E8E2F3"/>
<path d="M737.975 797.65V804.2C737.975 805.45 738.525 806 739.775 806H747.475C748.725 806 749.275 805.45 749.275 804.2V771.8C749.275 770.55 748.725 770 747.475 770H739.775C738.525 770 737.975 770.55 737.975 771.8V787.2H733.325C732.375 787.2 731.775 786.55 731.775 785.5V771.8C731.775 770.55 731.225 770 729.975 770H722.225C720.975 770 720.425 770.55 720.425 771.8V789.35C720.425 795.05 723.025 797.65 729.525 797.65H737.975Z" fill="#5A06FF"/>
<ellipse cx="1036" cy="789" rx="64" ry="63" fill="#E8E2F3"/>
<path d="M1021.87 806C1023.12 806 1023.67 805.45 1023.67 804.2V794.05C1023.67 792.75 1023.12 792.25 1021.87 792.25H1011.77C1010.52 792.25 1009.97 792.75 1009.97 794.05V804.2C1009.97 805.45 1010.52 806 1011.77 806H1021.87ZM1041.06 806C1042.31 806 1042.86 805.45 1042.86 804.2V794.05C1042.86 792.75 1042.31 792.25 1041.06 792.25H1030.96C1029.71 792.25 1029.16 792.75 1029.16 794.05V804.2C1029.16 805.45 1029.71 806 1030.96 806H1041.06ZM1060.24 806C1061.49 806 1062.04 805.45 1062.04 804.2V794.05C1062.04 792.75 1061.49 792.25 1060.24 792.25H1050.14C1048.89 792.25 1048.34 792.75 1048.34 794.05V804.2C1048.34 805.45 1048.89 806 1050.14 806H1060.24Z" fill="#5A06FF"/>
<ellipse cx="584" cy="789" rx="64" ry="63" fill="#E8E2F3"/>
<path d="M572.332 796.55C571.082 796.55 570.532 797.1 570.532 798.35V804.2C570.532 805.45 571.082 806 572.332 806H588.132C594.532 806 597.832 802.85 597.832 797.7V792.7C597.832 788.3 596.282 786 591.532 785.45C593.732 784.5 594.482 782.6 594.482 780.05V777.15C594.482 772.75 591.832 770 586.282 770H572.332C571.082 770 570.532 770.55 570.532 771.8V777.75C570.532 779 571.082 779.55 572.332 779.55H581.632C583.232 779.55 583.532 780.25 583.532 781.05V781.8C583.532 782.6 583.232 783.3 581.632 783.3H576.382C575.132 783.3 574.582 783.85 574.582 785.1V790.45C574.582 791.7 575.132 792.25 576.382 792.25H584.882C586.482 792.25 586.782 792.9 586.782 793.7V795.05C586.782 795.85 586.482 796.55 584.882 796.55H572.332Z" fill="#5A06FF"/>
<circle cx="885" cy="789" r="63" fill="#E8E2F3"/>
<path d="M870.866 806C872.116 806 872.666 805.45 872.666 804.2V794.05C872.666 792.75 872.116 792.25 870.866 792.25H860.766C859.516 792.25 858.966 792.75 858.966 794.05V804.2C858.966 805.45 859.516 806 860.766 806H870.866ZM890.055 806C891.305 806 891.855 805.45 891.855 804.2V794.05C891.855 792.75 891.305 792.25 890.055 792.25H879.955C878.705 792.25 878.155 792.75 878.155 794.05V804.2C878.155 805.45 878.705 806 879.955 806H890.055ZM909.245 806C910.495 806 911.045 805.45 911.045 804.2V794.05C911.045 792.75 910.495 792.25 909.245 792.25H899.145C897.895 792.25 897.345 792.75 897.345 794.05V804.2C897.345 805.45 897.895 806 899.145 806H909.245Z" fill="#5A06FF"/>
<circle cx="1187" cy="789" r="63" fill="#E8E2F3"/>
<path d="M1172.87 806C1174.12 806 1174.67 805.45 1174.67 804.2V794.05C1174.67 792.75 1174.12 792.25 1172.87 792.25H1162.77C1161.52 792.25 1160.97 792.75 1160.97 794.05V804.2C1160.97 805.45 1161.52 806 1162.77 806H1172.87ZM1192.06 806C1193.31 806 1193.86 805.45 1193.86 804.2V794.05C1193.86 792.75 1193.31 792.25 1192.06 792.25H1181.96C1180.71 792.25 1180.16 792.75 1180.16 794.05V804.2C1180.16 805.45 1180.71 806 1181.96 806H1192.06ZM1211.24 806C1212.49 806 1213.04 805.45 1213.04 804.2V794.05C1213.04 792.75 1212.49 792.25 1211.24 792.25H1201.14C1199.89 792.25 1199.34 792.75 1199.34 794.05V804.2C1199.34 805.45 1199.89 806 1201.14 806H1211.24Z" fill="#5A06FF"/>
<circle cx="1337" cy="789" r="63" fill="#E8E2F3"/>
<path d="M1321.84 806C1331.29 806 1334.14 801.85 1334.14 795.75V779.35C1334.14 773.25 1331.44 769.25 1319.14 769.25C1307.64 769.25 1304.74 773.25 1304.74 779.35V784.15C1304.74 790.1 1307.44 793.15 1316.49 793.15C1319.14 793.15 1321.24 792.9 1322.84 792.4V793.5C1322.84 795.95 1322.14 796.5 1319.69 796.5H1310.34C1309.09 796.5 1308.54 797.05 1308.54 798.3V804.2C1308.54 805.45 1309.04 806 1310.34 806H1321.84ZM1322.84 783.1C1322.84 784.1 1322.39 784.9 1319.49 784.9C1316.49 784.9 1316.04 784.1 1316.04 783.1V780.15C1316.04 779.1 1316.49 778.3 1319.49 778.3C1322.39 778.3 1322.84 779.1 1322.84 780.15V783.1ZM1370.26 793.2C1370.26 788.5 1367.96 786.05 1364.96 785.45C1367.16 784.5 1367.91 782.6 1367.91 780.05V777.15C1367.91 772.25 1364.96 769.25 1354.91 769.25C1344.86 769.25 1341.76 772.25 1341.76 777.15V780.05C1341.76 782.6 1342.51 784.5 1344.71 785.45C1341.71 786.05 1339.41 788.5 1339.41 793.2V798.05C1339.41 803.25 1342.81 806.75 1354.86 806.75C1366.91 806.75 1370.26 803.25 1370.26 798.05V793.2ZM1351.71 782V779.8C1351.71 778.8 1352.06 778 1354.86 778C1357.71 778 1357.96 778.8 1357.96 779.8V782C1357.96 783.05 1357.71 783.85 1354.86 783.85C1352.06 783.85 1351.71 783.05 1351.71 782ZM1350.46 796.15V793.5C1350.46 792.5 1351.26 791.7 1354.86 791.7C1358.51 791.7 1359.21 792.5 1359.21 793.5V796.15C1359.21 797.2 1358.51 798 1354.86 798C1351.26 798 1350.46 797.2 1350.46 796.15Z" fill="#5A06FF"/>
<circle cx="1487" cy="789" r="63" fill="#E8E2F3"/>
<path d="M1471.78 806C1481.23 806 1484.08 801.85 1484.08 795.75V779.35C1484.08 773.25 1481.38 769.25 1469.08 769.25C1457.58 769.25 1454.68 773.25 1454.68 779.35V784.15C1454.68 790.1 1457.38 793.15 1466.43 793.15C1469.08 793.15 1471.18 792.9 1472.78 792.4V793.5C1472.78 795.95 1472.08 796.5 1469.63 796.5H1460.28C1459.03 796.5 1458.48 797.05 1458.48 798.3V804.2C1458.48 805.45 1458.98 806 1460.28 806H1471.78ZM1472.78 783.1C1472.78 784.1 1472.33 784.9 1469.43 784.9C1466.43 784.9 1465.98 784.1 1465.98 783.1V780.15C1465.98 779.1 1466.43 778.3 1469.43 778.3C1472.33 778.3 1472.78 779.1 1472.78 780.15V783.1ZM1506.45 806C1515.9 806 1518.75 801.85 1518.75 795.75V779.35C1518.75 773.25 1516.05 769.25 1503.75 769.25C1492.25 769.25 1489.35 773.25 1489.35 779.35V784.15C1489.35 790.1 1492.05 793.15 1501.1 793.15C1503.75 793.15 1505.85 792.9 1507.45 792.4V793.5C1507.45 795.95 1506.75 796.5 1504.3 796.5H1494.95C1493.7 796.5 1493.15 797.05 1493.15 798.3V804.2C1493.15 805.45 1493.65 806 1494.95 806H1506.45ZM1507.45 783.1C1507.45 784.1 1507 784.9 1504.1 784.9C1501.1 784.9 1500.65 784.1 1500.65 783.1V780.15C1500.65 779.1 1501.1 778.3 1504.1 778.3C1507 778.3 1507.45 779.1 1507.45 780.15V783.1Z" fill="#5A06FF"/>
<circle cx="1637" cy="789" r="63" fill="#E8E2F3"/>
<path d="M1612.46 806C1613.71 806 1614.26 805.45 1614.26 804.2V798.15C1614.26 796.9 1613.71 796.35 1612.46 796.35H1607.66V771.8C1607.66 770.55 1607.11 770 1605.86 770H1591.36C1590.11 770 1589.56 770.55 1589.56 771.8V777.85C1589.56 779.1 1590.11 779.65 1591.36 779.65H1595.96V796.35H1590.36C1589.11 796.35 1588.56 796.9 1588.56 798.15V804.2C1588.56 805.45 1589.11 806 1590.36 806H1612.46ZM1649.64 796.55V779.5C1649.64 773.4 1646.69 769.25 1634.39 769.25C1622.09 769.25 1619.09 773.4 1619.09 779.5V796.55C1619.09 802.65 1622.09 806.75 1634.39 806.75C1646.69 806.75 1649.64 802.65 1649.64 796.55ZM1630.39 794.75V781.3C1630.39 780 1630.99 779 1634.39 779C1637.84 779 1638.39 780 1638.39 781.3V794.75C1638.39 796.1 1637.84 797.1 1634.39 797.1C1630.99 797.1 1630.39 796.1 1630.39 794.75ZM1685.96 796.55V779.5C1685.96 773.4 1683.01 769.25 1670.71 769.25C1658.41 769.25 1655.41 773.4 1655.41 779.5V796.55C1655.41 802.65 1658.41 806.75 1670.71 806.75C1683.01 806.75 1685.96 802.65 1685.96 796.55ZM1666.71 794.75V781.3C1666.71 780 1667.31 779 1670.71 779C1674.16 779 1674.71 780 1674.71 781.3V794.75C1674.71 796.1 1674.16 797.1 1670.71 797.1C1667.31 797.1 1666.71 796.1 1666.71 794.75Z" fill="#5A06FF"/>
</svg>
