<svg width="394" height="109" viewBox="0 0 394 109" fill="none" xmlns="http://www.w3.org/2000/svg">
<ellipse cx="34" cy="34.5" rx="34" ry="34.5" fill="#F3E2ED"/>
<path d="M18.6543 43C19.2543 43 19.5183 42.736 19.5183 42.136V39.088L23.1663 34.144C23.8863 33.16 24.0783 32.68 24.0783 31.192V26.584C24.0783 25.984 23.8143 25.72 23.2143 25.72H19.6383C19.0383 25.72 18.7743 25.984 18.7743 26.584V30.52C18.7743 30.856 18.7743 31.192 18.5583 31.528L17.4543 33.256C17.2863 33.544 17.1423 33.664 16.8783 33.664H16.6383C16.3743 33.664 16.2303 33.544 16.0623 33.256L14.9583 31.528C14.7423 31.192 14.7423 30.856 14.7423 30.52V26.584C14.7423 25.984 14.4783 25.72 13.8783 25.72H10.1823C9.58228 25.72 9.31828 25.984 9.31828 26.584V31.192C9.31828 32.68 9.48628 33.16 10.2303 34.144L13.9023 39.064V42.136C13.9023 42.736 14.1423 43 14.7663 43H18.6543ZM41.4562 38.464V30.28C41.4562 27.352 40.0162 25.36 34.0162 25.36C28.0162 25.36 26.5522 27.352 26.5522 30.28V38.464C26.5522 41.392 28.0162 43.36 34.0162 43.36C40.0162 43.36 41.4562 41.392 41.4562 38.464ZM32.0002 37.6V31.144C32.0002 30.52 32.2882 30.04 34.0162 30.04C35.7682 30.04 36.0322 30.52 36.0322 31.144V37.6C36.0322 38.248 35.7682 38.728 34.0162 38.728C32.2882 38.728 32.0002 38.248 32.0002 37.6ZM59.2235 38.464V26.584C59.2235 25.984 58.9595 25.72 58.3595 25.72H54.7115C54.0875 25.72 53.8475 25.984 53.8475 26.584V37.528C53.8475 38.176 53.5595 38.656 51.8555 38.656C50.1755 38.656 49.8875 38.176 49.8875 37.528V26.584C49.8875 25.984 49.6235 25.72 49.0235 25.72H45.2555C44.6555 25.72 44.3915 25.984 44.3915 26.584V38.464C44.3915 41.392 45.8555 43.36 51.8075 43.36C57.7595 43.36 59.2235 41.392 59.2235 38.464Z" fill="#983E7A"/>
<circle cx="142.5" cy="34.5" r="34.5" fill="#F3EDE2"/>
<path d="M131.316 43C131.916 43 132.18 42.736 132.18 42.136V39.28C132.18 38.68 131.916 38.416 131.316 38.416H126.492C125.484 38.416 125.028 38.056 125.028 37.264V31.552C125.028 30.736 125.484 30.352 126.492 30.352H131.316C131.916 30.352 132.18 30.088 132.18 29.488V26.584C132.18 25.984 131.916 25.72 131.316 25.72H125.46C121.428 25.72 119.556 27.28 119.556 30.64V38.104C119.556 41.44 121.428 43 125.46 43H131.316ZM141.154 30.76C141.274 30.472 141.418 30.352 141.61 30.352H142.21C142.402 30.352 142.546 30.472 142.666 30.76L143.794 34.408H140.026L141.154 30.76ZM139.786 42.136V38.776H144.034V42.136C144.034 42.736 144.322 43 144.97 43H148.594C149.194 43 149.458 42.736 149.458 42.136V35.8C149.458 34.84 149.17 33.64 148.522 31.96L146.434 26.512C146.242 25.96 145.858 25.72 145.234 25.72H138.778C138.13 25.72 137.746 25.96 137.554 26.512L135.466 31.96C134.818 33.64 134.53 34.84 134.53 35.8V42.136C134.53 42.736 134.794 43 135.394 43H138.922C139.522 43 139.786 42.736 139.786 42.136ZM156.886 43C157.486 43 157.75 42.736 157.75 42.136V34.216L161.854 39.184V42.136C161.854 42.736 162.118 43 162.718 43H166.318C166.918 43 167.182 42.736 167.182 42.136V26.584C167.182 25.984 166.918 25.72 166.318 25.72H162.718C162.118 25.72 161.854 25.984 161.854 26.584V31.696L157.198 26.368C156.79 25.888 156.406 25.72 155.782 25.72H153.286C152.686 25.72 152.422 25.984 152.422 26.584V42.136C152.422 42.736 152.686 43 153.286 43H156.886Z" fill="#987A3E"/>
<circle cx="251.5" cy="34.5" r="34.5" fill="#E8E2F3"/>
<path d="M244.807 43C248.839 43 250.711 41.44 250.711 38.104V30.616C250.711 27.28 248.839 25.72 244.807 25.72H236.719C236.119 25.72 235.855 25.984 235.855 26.584V42.136C235.855 42.736 236.119 43 236.719 43H244.807ZM241.303 30.304H244.159C244.927 30.304 245.287 30.664 245.287 31.456V37.288C245.287 38.104 244.927 38.464 244.159 38.464H241.303V30.304ZM268.401 38.464V30.28C268.401 27.352 266.961 25.36 260.961 25.36C254.961 25.36 253.497 27.352 253.497 30.28V38.464C253.497 41.392 254.961 43.36 260.961 43.36C266.961 43.36 268.401 41.392 268.401 38.464ZM258.945 37.6V31.144C258.945 30.52 259.233 30.04 260.961 30.04C262.713 30.04 262.977 30.52 262.977 31.144V37.6C262.977 38.248 262.713 38.728 260.961 38.728C259.233 38.728 258.945 38.248 258.945 37.6Z" fill="#5A06FF"/>
<ellipse cx="360" cy="34.5" rx="34" ry="34.5" fill="#ACFF06"/>
<path d="M342.409 43H352.633C353.233 43 353.497 42.736 353.497 42.136V39.28C353.497 38.68 353.233 38.416 352.633 38.416H350.305V30.352H352.633C353.233 30.352 353.497 30.088 353.497 29.488V26.584C353.497 25.984 353.233 25.72 352.633 25.72H342.409C341.809 25.72 341.545 25.984 341.545 26.584V29.488C341.545 30.088 341.809 30.352 342.409 30.352H344.785V38.416H342.409C341.809 38.416 341.545 38.68 341.545 39.28V42.136C341.545 42.736 341.809 43 342.409 43ZM364.621 43C365.221 43 365.485 42.736 365.485 42.136V30.352H369.013C369.613 30.352 369.877 30.088 369.877 29.488V26.584C369.877 25.984 369.613 25.72 369.013 25.72H356.341C355.741 25.72 355.477 25.984 355.477 26.584V29.488C355.477 30.088 355.741 30.352 356.341 30.352H359.869V42.136C359.869 42.736 360.133 43 360.733 43H364.621ZM377.491 36.712C378.091 36.712 378.379 36.448 378.403 35.848L378.739 26.584C378.763 25.984 378.523 25.72 377.923 25.72H373.339C372.739 25.72 372.499 25.984 372.523 26.584L372.883 35.848C372.907 36.448 373.171 36.712 373.771 36.712H377.491ZM377.851 43C378.451 43 378.715 42.736 378.715 42.136V38.992C378.715 38.368 378.451 38.128 377.851 38.128H373.435C372.835 38.128 372.571 38.368 372.571 38.992V42.136C372.571 42.736 372.835 43 373.435 43H377.851Z" fill="#527A00"/>
<path d="M36 83.5V73.5H34.0001L34 83.5C34 97.3071 45.1929 108.5 59 108.5H338.5C352.307 108.5 363.5 97.3071 363.5 83.5L368.273 83.5L362.5 73.5L356.727 83.5L361.5 83.5C361.5 96.2025 351.203 106.5 338.5 106.5H59C46.2975 106.5 36 96.2025 36 83.5Z" fill="#C4C4C4"/>
</svg>
