<svg width="1514" height="340" viewBox="0 0 1514 340" fill="none" xmlns="http://www.w3.org/2000/svg">
<g filter="url(#filter0_d)">
<path d="M115.157 155H35.5966C33.3166 155 31.6366 154.52 30.5566 153.56C29.5966 152.48 29.1166 150.8 29.1166 148.52V126.74C29.1166 124.46 29.5966 122.84 30.5566 121.88C31.6366 120.8 33.3166 120.26 35.5966 120.26H55.7566V60.14H39.1966C36.9166 60.14 35.2366 59.66 34.1566 58.7C33.1966 57.62 32.7166 55.94 32.7166 53.66V31.88C32.7166 29.6 33.1966 27.98 34.1566 27.02C35.2366 25.94 36.9166 25.4 39.1966 25.4H91.3966C93.6766 25.4 95.2966 25.94 96.2566 27.02C97.3366 27.98 97.8766 29.6 97.8766 31.88V120.26H115.157C117.437 120.26 119.057 120.8 120.017 121.88C121.097 122.84 121.637 124.46 121.637 126.74V148.52C121.637 150.8 121.097 152.48 120.017 153.56C119.057 154.52 117.437 155 115.157 155ZM249.002 120.98C249.002 126.5 248.222 131.54 246.662 136.1C245.102 140.54 242.282 144.38 238.202 147.62C234.122 150.74 228.482 153.2 221.282 155C214.202 156.8 205.142 157.7 194.102 157.7C183.062 157.7 173.942 156.8 166.742 155C159.662 153.2 154.082 150.74 150.002 147.62C145.922 144.38 143.042 140.54 141.362 136.1C139.802 131.54 139.022 126.5 139.022 120.98V59.6C139.022 54.08 139.802 49.1 141.362 44.66C143.042 40.1 145.922 36.2 150.002 32.96C154.082 29.72 159.662 27.2 166.742 25.4C173.942 23.6 183.062 22.7 194.102 22.7C205.142 22.7 214.202 23.6 221.282 25.4C228.482 27.2 234.122 29.72 238.202 32.96C242.282 36.2 245.102 40.1 246.662 44.66C248.222 49.1 249.002 54.08 249.002 59.6V120.98ZM179.702 114.5C179.702 116.9 180.542 118.94 182.222 120.62C184.022 122.18 187.982 122.96 194.102 122.96C200.222 122.96 204.122 122.18 205.802 120.62C207.602 118.94 208.502 116.9 208.502 114.5V66.08C208.502 63.8 207.602 61.88 205.802 60.32C204.122 58.64 200.222 57.8 194.102 57.8C187.982 57.8 184.022 58.64 182.222 60.32C180.542 61.88 179.702 63.8 179.702 66.08V114.5ZM379.783 120.98C379.783 126.5 379.003 131.54 377.443 136.1C375.883 140.54 373.063 144.38 368.983 147.62C364.903 150.74 359.263 153.2 352.063 155C344.983 156.8 335.923 157.7 324.883 157.7C313.843 157.7 304.723 156.8 297.523 155C290.443 153.2 284.863 150.74 280.783 147.62C276.703 144.38 273.823 140.54 272.143 136.1C270.583 131.54 269.803 126.5 269.803 120.98V59.6C269.803 54.08 270.583 49.1 272.143 44.66C273.823 40.1 276.703 36.2 280.783 32.96C284.863 29.72 290.443 27.2 297.523 25.4C304.723 23.6 313.843 22.7 324.883 22.7C335.923 22.7 344.983 23.6 352.063 25.4C359.263 27.2 364.903 29.72 368.983 32.96C373.063 36.2 375.883 40.1 377.443 44.66C379.003 49.1 379.783 54.08 379.783 59.6V120.98ZM310.483 114.5C310.483 116.9 311.323 118.94 313.003 120.62C314.803 122.18 318.763 122.96 324.883 122.96C331.003 122.96 334.903 122.18 336.583 120.62C338.383 118.94 339.283 116.9 339.283 114.5V66.08C339.283 63.8 338.383 61.88 336.583 60.32C334.903 58.64 331.003 57.8 324.883 57.8C318.763 57.8 314.803 58.64 313.003 60.32C311.323 61.88 310.483 63.8 310.483 66.08V114.5Z" fill="#5A06FF"/>
<path d="M510.134 155H449.474C447.194 155 445.514 154.52 444.434 153.56C443.474 152.48 442.994 150.8 442.994 148.52V31.88C442.994 29.6 443.474 27.98 444.434 27.02C445.514 25.94 447.194 25.4 449.474 25.4H510.134C525.134 25.4 536.234 28.4 543.434 34.4C550.754 40.4 554.414 49.64 554.414 62.12V118.28C554.414 130.76 550.754 140 543.434 146C536.234 152 525.134 155 510.134 155ZM483.854 59.78V120.98H505.274C508.154 120.98 510.254 120.26 511.574 118.82C513.014 117.38 513.734 115.16 513.734 112.16V68.42C513.734 65.42 513.014 63.26 511.574 61.94C510.254 60.5 508.154 59.78 505.274 59.78H483.854ZM624.271 63.2L615.811 90.56H644.071L635.611 63.2C635.131 62.12 634.591 61.34 633.991 60.86C633.511 60.38 632.911 60.14 632.191 60.14H627.691C626.971 60.14 626.311 60.38 625.711 60.86C625.231 61.34 624.751 62.12 624.271 63.2ZM614.011 148.52C614.011 150.8 613.471 152.48 612.391 153.56C611.431 154.52 609.811 155 607.531 155H581.071C578.791 155 577.111 154.52 576.031 153.56C575.071 152.48 574.591 150.8 574.591 148.52V101C574.591 97.4 575.131 93.26 576.211 88.58C577.411 83.9 579.211 78.44 581.611 72.2L597.271 31.34C597.991 29.3 599.071 27.8 600.511 26.84C602.071 25.88 604.051 25.4 606.451 25.4H654.871C657.151 25.4 659.011 25.88 660.451 26.84C662.011 27.8 663.151 29.3 663.871 31.34L679.531 72.2C681.931 78.44 683.671 83.9 684.751 88.58C685.951 93.26 686.551 97.4 686.551 101V148.52C686.551 150.8 686.011 152.48 684.931 153.56C683.971 154.52 682.351 155 680.071 155H652.891C650.491 155 648.691 154.52 647.491 153.56C646.411 152.48 645.871 150.8 645.871 148.52V123.32H614.011V148.52ZM769.905 155H740.745C738.465 155 736.785 154.52 735.705 153.56C734.745 152.48 734.265 150.8 734.265 148.52V125.48L706.725 88.58C703.965 84.86 702.105 81.62 701.145 78.86C700.305 76.1 699.885 71.96 699.885 66.44V31.88C699.885 29.6 700.365 27.98 701.325 27.02C702.405 25.94 704.085 25.4 706.365 25.4H734.085C736.365 25.4 737.985 25.94 738.945 27.02C740.025 27.98 740.565 29.6 740.565 31.88V61.4C740.565 62.6 740.625 63.86 740.745 65.18C740.865 66.5 741.345 67.76 742.185 68.96L750.465 81.92C751.065 83 751.665 83.78 752.265 84.26C752.985 84.74 753.825 84.98 754.785 84.98H756.585C757.545 84.98 758.325 84.74 758.925 84.26C759.645 83.78 760.305 83 760.905 81.92L769.185 68.96C770.025 67.76 770.505 66.5 770.625 65.18C770.745 63.86 770.805 62.6 770.805 61.4V31.88C770.805 29.6 771.285 27.98 772.245 27.02C773.325 25.94 775.005 25.4 777.285 25.4H804.105C806.385 25.4 808.005 25.94 808.965 27.02C810.045 27.98 810.585 29.6 810.585 31.88V66.44C810.585 71.96 810.105 76.1 809.145 78.86C808.185 81.62 806.385 84.86 803.745 88.58L776.385 125.66V148.52C776.385 150.8 775.845 152.48 774.765 153.56C773.805 154.52 772.185 155 769.905 155ZM891.239 155H834.359C832.079 155 830.399 154.52 829.319 153.56C828.359 152.48 827.879 150.8 827.879 148.52V127.46C827.879 125.18 828.359 123.56 829.319 122.6C830.399 121.52 832.079 120.98 834.359 120.98H882.779C884.339 120.98 885.479 120.5 886.199 119.54C887.039 118.46 887.459 117.2 887.459 115.76C887.459 113.72 887.039 112.22 886.199 111.26C885.479 110.3 884.339 109.76 882.779 109.64L855.779 105.86C847.379 104.66 840.599 101.9 835.439 97.58C830.399 93.26 827.879 86.06 827.879 75.98V57.08C827.879 46.88 831.179 39.08 837.779 33.68C844.379 28.16 853.499 25.4 865.139 25.4H915.539C917.819 25.4 919.439 25.94 920.399 27.02C921.479 27.98 922.019 29.6 922.019 31.88V53.3C922.019 55.58 921.479 57.26 920.399 58.34C919.439 59.3 917.819 59.78 915.539 59.78H873.599C872.039 59.78 870.839 60.32 869.999 61.4C869.159 62.36 868.739 63.62 868.739 65.18C868.739 66.74 869.159 68.06 869.999 69.14C870.839 70.22 872.039 70.82 873.599 70.94L900.419 74.54C908.819 75.74 915.599 78.5 920.759 82.82C925.919 87.14 928.499 94.34 928.499 104.42V123.32C928.499 133.52 925.139 141.38 918.419 146.9C911.819 152.3 902.759 155 891.239 155ZM1055.76 155H995.099C992.819 155 991.139 154.52 990.059 153.56C989.099 152.48 988.619 150.8 988.619 148.52V31.88C988.619 29.6 989.099 27.98 990.059 27.02C991.139 25.94 992.819 25.4 995.099 25.4H1055.76C1070.76 25.4 1081.86 28.4 1089.06 34.4C1096.38 40.4 1100.04 49.64 1100.04 62.12V118.28C1100.04 130.76 1096.38 140 1089.06 146C1081.86 152 1070.76 155 1055.76 155ZM1029.48 59.78V120.98H1050.9C1053.78 120.98 1055.88 120.26 1057.2 118.82C1058.64 117.38 1059.36 115.16 1059.36 112.16V68.42C1059.36 65.42 1058.64 63.26 1057.2 61.94C1055.88 60.5 1053.78 59.78 1050.9 59.78H1029.48ZM1169.9 63.2L1161.44 90.56H1189.7L1181.24 63.2C1180.76 62.12 1180.22 61.34 1179.62 60.86C1179.14 60.38 1178.54 60.14 1177.82 60.14H1173.32C1172.6 60.14 1171.94 60.38 1171.34 60.86C1170.86 61.34 1170.38 62.12 1169.9 63.2ZM1159.64 148.52C1159.64 150.8 1159.1 152.48 1158.02 153.56C1157.06 154.52 1155.44 155 1153.16 155H1126.7C1124.42 155 1122.74 154.52 1121.66 153.56C1120.7 152.48 1120.22 150.8 1120.22 148.52V101C1120.22 97.4 1120.76 93.26 1121.84 88.58C1123.04 83.9 1124.84 78.44 1127.24 72.2L1142.9 31.34C1143.62 29.3 1144.7 27.8 1146.14 26.84C1147.7 25.88 1149.68 25.4 1152.08 25.4H1200.5C1202.78 25.4 1204.64 25.88 1206.08 26.84C1207.64 27.8 1208.78 29.3 1209.5 31.34L1225.16 72.2C1227.56 78.44 1229.3 83.9 1230.38 88.58C1231.58 93.26 1232.18 97.4 1232.18 101V148.52C1232.18 150.8 1231.64 152.48 1230.56 153.56C1229.6 154.52 1227.98 155 1225.7 155H1198.52C1196.12 155 1194.32 154.52 1193.12 153.56C1192.04 152.48 1191.5 150.8 1191.5 148.52V123.32H1159.64V148.52ZM1295.08 57.8V80.84H1308.58C1311.7 80.84 1313.8 80.06 1314.88 78.5C1315.96 76.82 1316.5 74.78 1316.5 72.38V66.26C1316.5 63.86 1315.96 61.88 1314.88 60.32C1313.8 58.64 1311.7 57.8 1308.58 57.8H1295.08ZM1288.6 155H1260.88C1258.6 155 1256.92 154.52 1255.84 153.56C1254.88 152.48 1254.4 150.8 1254.4 148.52V31.88C1254.4 29.6 1254.88 27.98 1255.84 27.02C1256.92 25.94 1258.6 25.4 1260.88 25.4H1320.82C1334.26 25.4 1343.5 28.22 1348.54 33.86C1353.7 39.38 1356.28 46.58 1356.28 55.46V63.74C1356.28 68.78 1355.5 73.1 1353.94 76.7C1352.5 80.18 1349.92 82.7 1346.2 84.26C1352.68 84.98 1357.9 87.62 1361.86 92.18C1365.94 96.74 1367.98 102.8 1367.98 110.36V148.52C1367.98 150.8 1367.44 152.48 1366.36 153.56C1365.4 154.52 1363.78 155 1361.5 155H1333.6C1331.32 155 1329.64 154.52 1328.56 153.56C1327.6 152.48 1327.12 150.8 1327.12 148.52V120.98C1327.12 118.34 1326.58 116.42 1325.5 115.22C1324.54 113.9 1322.8 113.24 1320.28 113.24H1295.08V148.52C1295.08 150.8 1294.54 152.48 1293.46 153.56C1292.5 154.52 1290.88 155 1288.6 155ZM1478.17 155H1394.65C1392.37 155 1390.69 154.52 1389.61 153.56C1388.65 152.48 1388.17 150.8 1388.17 148.52V31.88C1388.17 29.6 1388.65 27.98 1389.61 27.02C1390.69 25.94 1392.37 25.4 1394.65 25.4H1478.17C1480.45 25.4 1482.07 25.94 1483.03 27.02C1484.11 27.98 1484.65 29.6 1484.65 31.88V52.94C1484.65 55.22 1484.11 56.9 1483.03 57.98C1482.07 58.94 1480.45 59.42 1478.17 59.42H1428.49V73.28H1463.59C1465.87 73.28 1467.49 73.82 1468.45 74.9C1469.53 75.86 1470.07 77.48 1470.07 79.76V99.02C1470.07 101.3 1469.53 102.98 1468.45 104.06C1467.49 105.02 1465.87 105.5 1463.59 105.5H1428.49V120.98H1478.17C1480.45 120.98 1482.07 121.52 1483.03 122.6C1484.11 123.56 1484.65 125.18 1484.65 127.46V148.52C1484.65 150.8 1484.11 152.48 1483.03 153.56C1482.07 154.52 1480.45 155 1478.17 155Z" fill="#323232"/>
</g>
<circle cx="84" cy="260" r="63" fill="#E8E2F3"/>
<path d="M95.7854 277H73.6854C73.052 277 72.5854 276.867 72.2854 276.6C72.0187 276.3 71.8854 275.833 71.8854 275.2V269.15C71.8854 268.517 72.0187 268.067 72.2854 267.8C72.5854 267.5 73.052 267.35 73.6854 267.35H79.2854V250.65H74.6854C74.052 250.65 73.5854 250.517 73.2854 250.25C73.0187 249.95 72.8854 249.483 72.8854 248.85V242.8C72.8854 242.167 73.0187 241.717 73.2854 241.45C73.5854 241.15 74.052 241 74.6854 241H89.1854C89.8187 241 90.2687 241.15 90.5354 241.45C90.8354 241.717 90.9854 242.167 90.9854 242.8V267.35H95.7854C96.4187 267.35 96.8687 267.5 97.1354 267.8C97.4354 268.067 97.5854 268.517 97.5854 269.15V275.2C97.5854 275.833 97.4354 276.3 97.1354 276.6C96.8687 276.867 96.4187 277 95.7854 277Z" fill="#5A06FF"/>
<circle cx="234" cy="260" r="63" fill="#E8E2F3"/>
<path d="M245.633 277H221.833C221.2 277 220.733 276.867 220.433 276.6C220.167 276.3 220.033 275.833 220.033 275.2V266.6C220.033 264.667 220.217 263.083 220.583 261.85C220.983 260.583 221.533 259.55 222.233 258.75C222.933 257.95 223.767 257.317 224.733 256.85C225.7 256.383 226.75 255.983 227.883 255.65L234.583 253.55C235.117 253.417 235.467 253.217 235.633 252.95C235.833 252.683 235.933 252.283 235.933 251.75C235.933 251.25 235.833 250.917 235.633 250.75C235.433 250.55 235.083 250.45 234.583 250.45H223.733C223.1 250.45 222.633 250.317 222.333 250.05C222.067 249.75 221.933 249.283 221.933 248.65V242.8C221.933 242.167 222.067 241.717 222.333 241.45C222.633 241.15 223.1 241 223.733 241H238.483C241.317 241 243.483 241.717 244.983 243.15C246.517 244.55 247.283 246.6 247.283 249.3V254C247.283 256.5 246.583 258.417 245.183 259.75C243.783 261.083 241.883 262.117 239.483 262.85L232.683 265C232.183 265.133 231.833 265.283 231.633 265.45C231.467 265.617 231.383 265.967 231.383 266.5V267.55H245.633C246.267 267.55 246.717 267.7 246.983 268C247.283 268.267 247.433 268.717 247.433 269.35V275.2C247.433 275.833 247.283 276.3 246.983 276.6C246.717 276.867 246.267 277 245.633 277Z" fill="#5A06FF"/>
<circle cx="536" cy="260" r="63" fill="#E8E2F3"/>
<path d="M538.975 268.65H530.525C527.292 268.65 524.959 267.983 523.525 266.65C522.125 265.283 521.425 263.183 521.425 260.35V242.8C521.425 242.167 521.559 241.717 521.825 241.45C522.125 241.15 522.592 241 523.225 241H530.975C531.609 241 532.059 241.15 532.325 241.45C532.625 241.717 532.775 242.167 532.775 242.8V256.5C532.775 257.033 532.909 257.45 533.175 257.75C533.475 258.05 533.859 258.2 534.325 258.2H538.975V242.8C538.975 242.167 539.109 241.717 539.375 241.45C539.675 241.15 540.142 241 540.775 241H548.475C549.109 241 549.559 241.15 549.825 241.45C550.125 241.717 550.275 242.167 550.275 242.8V275.2C550.275 275.833 550.125 276.3 549.825 276.6C549.559 276.867 549.109 277 548.475 277H540.775C540.142 277 539.675 276.867 539.375 276.6C539.109 276.3 538.975 275.833 538.975 275.2V268.65Z" fill="#5A06FF"/>
<ellipse cx="837" cy="260" rx="64" ry="63" fill="#E8E2F3"/>
<path d="M822.866 277H812.766C812.132 277 811.666 276.867 811.366 276.6C811.099 276.3 810.966 275.833 810.966 275.2V265.05C810.966 264.417 811.099 263.967 811.366 263.7C811.666 263.4 812.132 263.25 812.766 263.25H822.866C823.499 263.25 823.949 263.4 824.216 263.7C824.516 263.967 824.666 264.417 824.666 265.05V275.2C824.666 275.833 824.516 276.3 824.216 276.6C823.949 276.867 823.499 277 822.866 277ZM842.055 277H831.955C831.322 277 830.855 276.867 830.555 276.6C830.289 276.3 830.155 275.833 830.155 275.2V265.05C830.155 264.417 830.289 263.967 830.555 263.7C830.855 263.4 831.322 263.25 831.955 263.25H842.055C842.689 263.25 843.139 263.4 843.405 263.7C843.705 263.967 843.855 264.417 843.855 265.05V275.2C843.855 275.833 843.705 276.3 843.405 276.6C843.139 276.867 842.689 277 842.055 277ZM861.245 277H851.145C850.511 277 850.045 276.867 849.745 276.6C849.478 276.3 849.345 275.833 849.345 275.2V265.05C849.345 264.417 849.478 263.967 849.745 263.7C850.045 263.4 850.511 263.25 851.145 263.25H861.245C861.878 263.25 862.328 263.4 862.595 263.7C862.895 263.967 863.045 264.417 863.045 265.05V275.2C863.045 275.833 862.895 276.3 862.595 276.6C862.328 276.867 861.878 277 861.245 277Z" fill="#5A06FF"/>
<ellipse cx="385" cy="260" rx="64" ry="63" fill="#E8E2F3"/>
<path d="M373.332 267.55H385.882C386.682 267.55 387.199 267.4 387.432 267.1C387.665 266.8 387.782 266.45 387.782 266.05V264.7C387.782 264.3 387.665 263.967 387.432 263.7C387.199 263.4 386.682 263.25 385.882 263.25H377.382C376.749 263.25 376.282 263.117 375.982 262.85C375.715 262.55 375.582 262.083 375.582 261.45V256.1C375.582 255.467 375.715 255.017 375.982 254.75C376.282 254.45 376.749 254.3 377.382 254.3H382.632C383.432 254.3 383.949 254.15 384.182 253.85C384.415 253.55 384.532 253.2 384.532 252.8V252.05C384.532 251.65 384.415 251.3 384.182 251C383.949 250.7 383.432 250.55 382.632 250.55H373.332C372.699 250.55 372.232 250.417 371.932 250.15C371.665 249.85 371.532 249.383 371.532 248.75V242.8C371.532 242.167 371.665 241.717 371.932 241.45C372.232 241.15 372.699 241 373.332 241H387.282C390.049 241 392.099 241.65 393.432 242.95C394.799 244.217 395.482 245.95 395.482 248.15V251.05C395.482 252.317 395.265 253.417 394.832 254.35C394.399 255.283 393.632 255.983 392.532 256.45C394.899 256.717 396.532 257.45 397.432 258.65C398.365 259.817 398.832 261.5 398.832 263.7V268.7C398.832 271.267 398.015 273.3 396.382 274.8C394.749 276.267 392.332 277 389.132 277H373.332C372.699 277 372.232 276.867 371.932 276.6C371.665 276.3 371.532 275.833 371.532 275.2V269.35C371.532 268.717 371.665 268.267 371.932 268C372.232 267.7 372.699 267.55 373.332 267.55Z" fill="#5A06FF"/>
<circle cx="686" cy="260" r="63" fill="#E8E2F3"/>
<path d="M671.866 277H661.766C661.132 277 660.666 276.867 660.366 276.6C660.099 276.3 659.966 275.833 659.966 275.2V265.05C659.966 264.417 660.099 263.967 660.366 263.7C660.666 263.4 661.132 263.25 661.766 263.25H671.866C672.499 263.25 672.949 263.4 673.216 263.7C673.516 263.967 673.666 264.417 673.666 265.05V275.2C673.666 275.833 673.516 276.3 673.216 276.6C672.949 276.867 672.499 277 671.866 277ZM691.055 277H680.955C680.322 277 679.855 276.867 679.555 276.6C679.289 276.3 679.155 275.833 679.155 275.2V265.05C679.155 264.417 679.289 263.967 679.555 263.7C679.855 263.4 680.322 263.25 680.955 263.25H691.055C691.689 263.25 692.139 263.4 692.405 263.7C692.705 263.967 692.855 264.417 692.855 265.05V275.2C692.855 275.833 692.705 276.3 692.405 276.6C692.139 276.867 691.689 277 691.055 277ZM710.245 277H700.145C699.511 277 699.045 276.867 698.745 276.6C698.478 276.3 698.345 275.833 698.345 275.2V265.05C698.345 264.417 698.478 263.967 698.745 263.7C699.045 263.4 699.511 263.25 700.145 263.25H710.245C710.878 263.25 711.328 263.4 711.595 263.7C711.895 263.967 712.045 264.417 712.045 265.05V275.2C712.045 275.833 711.895 276.3 711.595 276.6C711.328 276.867 710.878 277 710.245 277Z" fill="#5A06FF"/>
<circle cx="988" cy="260" r="63" fill="#E8E2F3"/>
<path d="M973.866 277H963.766C963.132 277 962.666 276.867 962.366 276.6C962.099 276.3 961.966 275.833 961.966 275.2V265.05C961.966 264.417 962.099 263.967 962.366 263.7C962.666 263.4 963.132 263.25 963.766 263.25H973.866C974.499 263.25 974.949 263.4 975.216 263.7C975.516 263.967 975.666 264.417 975.666 265.05V275.2C975.666 275.833 975.516 276.3 975.216 276.6C974.949 276.867 974.499 277 973.866 277ZM993.055 277H982.955C982.322 277 981.855 276.867 981.555 276.6C981.289 276.3 981.155 275.833 981.155 275.2V265.05C981.155 264.417 981.289 263.967 981.555 263.7C981.855 263.4 982.322 263.25 982.955 263.25H993.055C993.689 263.25 994.139 263.4 994.405 263.7C994.705 263.967 994.855 264.417 994.855 265.05V275.2C994.855 275.833 994.705 276.3 994.405 276.6C994.139 276.867 993.689 277 993.055 277ZM1012.24 277H1002.14C1001.51 277 1001.04 276.867 1000.74 276.6C1000.48 276.3 1000.34 275.833 1000.34 275.2V265.05C1000.34 264.417 1000.48 263.967 1000.74 263.7C1001.04 263.4 1001.51 263.25 1002.14 263.25H1012.24C1012.88 263.25 1013.33 263.4 1013.59 263.7C1013.89 263.967 1014.04 264.417 1014.04 265.05V275.2C1014.04 275.833 1013.89 276.3 1013.59 276.6C1013.33 276.867 1012.88 277 1012.24 277Z" fill="#5A06FF"/>
<circle cx="1138" cy="260" r="63" fill="#E8E2F3"/>
<path d="M1122.84 277H1111.34C1110.71 277 1110.24 276.867 1109.94 276.6C1109.68 276.3 1109.54 275.833 1109.54 275.2V269.3C1109.54 268.667 1109.68 268.217 1109.94 267.95C1110.24 267.65 1110.71 267.5 1111.34 267.5H1120.69C1121.93 267.5 1122.76 267.317 1123.19 266.95C1123.63 266.55 1123.84 265.733 1123.84 264.5V263.4C1123.04 263.633 1122.11 263.817 1121.04 263.95C1120.01 264.083 1118.83 264.15 1117.49 264.15C1112.99 264.15 1109.91 263.4 1108.24 261.9C1106.58 260.367 1105.74 258.117 1105.74 255.15V250.35C1105.74 248.817 1105.94 247.433 1106.34 246.2C1106.78 244.967 1107.53 243.917 1108.59 243.05C1109.69 242.15 1111.18 241.467 1113.04 241C1114.91 240.5 1117.28 240.25 1120.14 240.25C1123.21 240.25 1125.71 240.5 1127.64 241C1129.61 241.467 1131.14 242.15 1132.24 243.05C1133.34 243.917 1134.09 244.967 1134.49 246.2C1134.93 247.433 1135.14 248.817 1135.14 250.35V266.75C1135.14 269.783 1134.26 272.25 1132.49 274.15C1130.76 276.05 1127.54 277 1122.84 277ZM1123.84 254.1V251.15C1123.84 250.617 1123.64 250.183 1123.24 249.85C1122.84 249.483 1121.93 249.3 1120.49 249.3C1118.99 249.3 1118.04 249.483 1117.64 249.85C1117.24 250.183 1117.04 250.617 1117.04 251.15V254.1C1117.04 254.6 1117.24 255.033 1117.64 255.4C1118.04 255.733 1118.99 255.9 1120.49 255.9C1121.93 255.9 1122.84 255.733 1123.24 255.4C1123.64 255.033 1123.84 254.6 1123.84 254.1ZM1171.26 264.2V269.05C1171.26 270.35 1171.01 271.533 1170.51 272.6C1170.04 273.667 1169.23 274.583 1168.06 275.35C1166.89 276.117 1165.31 276.7 1163.31 277.1C1161.34 277.533 1158.86 277.75 1155.86 277.75C1152.86 277.75 1150.36 277.533 1148.36 277.1C1146.36 276.7 1144.78 276.117 1143.61 275.35C1142.44 274.583 1141.61 273.667 1141.11 272.6C1140.64 271.533 1140.41 270.35 1140.41 269.05V264.2C1140.41 261.867 1140.91 260.067 1141.91 258.8C1142.94 257.533 1144.21 256.75 1145.71 256.45C1144.61 255.983 1143.84 255.283 1143.41 254.35C1142.98 253.417 1142.76 252.317 1142.76 251.05V248.15C1142.76 246.917 1142.98 245.817 1143.41 244.85C1143.84 243.883 1144.56 243.067 1145.56 242.4C1146.56 241.7 1147.91 241.167 1149.61 240.8C1151.31 240.433 1153.41 240.25 1155.91 240.25C1158.41 240.25 1160.49 240.433 1162.16 240.8C1163.86 241.167 1165.19 241.7 1166.16 242.4C1167.16 243.067 1167.86 243.883 1168.26 244.85C1168.69 245.817 1168.91 246.917 1168.91 248.15V251.05C1168.91 252.317 1168.69 253.417 1168.26 254.35C1167.83 255.283 1167.06 255.983 1165.96 256.45C1167.46 256.75 1168.71 257.533 1169.71 258.8C1170.74 260.067 1171.26 261.867 1171.26 264.2ZM1152.71 253C1152.71 253.533 1152.88 253.983 1153.21 254.35C1153.58 254.683 1154.46 254.85 1155.86 254.85C1157.29 254.85 1158.16 254.683 1158.46 254.35C1158.79 253.983 1158.96 253.533 1158.96 253V250.8C1158.96 250.3 1158.79 249.883 1158.46 249.55C1158.16 249.183 1157.29 249 1155.86 249C1154.46 249 1153.58 249.183 1153.21 249.55C1152.88 249.883 1152.71 250.3 1152.71 250.8V253ZM1151.46 267.15C1151.46 267.683 1151.74 268.133 1152.31 268.5C1152.88 268.833 1154.06 269 1155.86 269C1157.66 269 1158.83 268.833 1159.36 268.5C1159.93 268.133 1160.21 267.683 1160.21 267.15V264.5C1160.21 264 1159.93 263.583 1159.36 263.25C1158.83 262.883 1157.66 262.7 1155.86 262.7C1154.06 262.7 1152.88 262.883 1152.31 263.25C1151.74 263.583 1151.46 264 1151.46 264.5V267.15Z" fill="#5A06FF"/>
<circle cx="1288" cy="260" r="63" fill="#E8E2F3"/>
<path d="M1272.78 277H1261.28C1260.65 277 1260.18 276.867 1259.88 276.6C1259.62 276.3 1259.48 275.833 1259.48 275.2V269.3C1259.48 268.667 1259.62 268.217 1259.88 267.95C1260.18 267.65 1260.65 267.5 1261.28 267.5H1270.63C1271.87 267.5 1272.7 267.317 1273.13 266.95C1273.57 266.55 1273.78 265.733 1273.78 264.5V263.4C1272.98 263.633 1272.05 263.817 1270.98 263.95C1269.95 264.083 1268.77 264.15 1267.43 264.15C1262.93 264.15 1259.85 263.4 1258.18 261.9C1256.52 260.367 1255.68 258.117 1255.68 255.15V250.35C1255.68 248.817 1255.88 247.433 1256.28 246.2C1256.72 244.967 1257.47 243.917 1258.53 243.05C1259.63 242.15 1261.12 241.467 1262.98 241C1264.85 240.5 1267.22 240.25 1270.08 240.25C1273.15 240.25 1275.65 240.5 1277.58 241C1279.55 241.467 1281.08 242.15 1282.18 243.05C1283.28 243.917 1284.03 244.967 1284.43 246.2C1284.87 247.433 1285.08 248.817 1285.08 250.35V266.75C1285.08 269.783 1284.2 272.25 1282.43 274.15C1280.7 276.05 1277.48 277 1272.78 277ZM1273.78 254.1V251.15C1273.78 250.617 1273.58 250.183 1273.18 249.85C1272.78 249.483 1271.87 249.3 1270.43 249.3C1268.93 249.3 1267.98 249.483 1267.58 249.85C1267.18 250.183 1266.98 250.617 1266.98 251.15V254.1C1266.98 254.6 1267.18 255.033 1267.58 255.4C1267.98 255.733 1268.93 255.9 1270.43 255.9C1271.87 255.9 1272.78 255.733 1273.18 255.4C1273.58 255.033 1273.78 254.6 1273.78 254.1ZM1307.45 277H1295.95C1295.32 277 1294.85 276.867 1294.55 276.6C1294.28 276.3 1294.15 275.833 1294.15 275.2V269.3C1294.15 268.667 1294.28 268.217 1294.55 267.95C1294.85 267.65 1295.32 267.5 1295.95 267.5H1305.3C1306.53 267.5 1307.37 267.317 1307.8 266.95C1308.23 266.55 1308.45 265.733 1308.45 264.5V263.4C1307.65 263.633 1306.72 263.817 1305.65 263.95C1304.62 264.083 1303.43 264.15 1302.1 264.15C1297.6 264.15 1294.52 263.4 1292.85 261.9C1291.18 260.367 1290.35 258.117 1290.35 255.15V250.35C1290.35 248.817 1290.55 247.433 1290.95 246.2C1291.38 244.967 1292.13 243.917 1293.2 243.05C1294.3 242.15 1295.78 241.467 1297.65 241C1299.52 240.5 1301.88 240.25 1304.75 240.25C1307.82 240.25 1310.32 240.5 1312.25 241C1314.22 241.467 1315.75 242.15 1316.85 243.05C1317.95 243.917 1318.7 244.967 1319.1 246.2C1319.53 247.433 1319.75 248.817 1319.75 250.35V266.75C1319.75 269.783 1318.87 272.25 1317.1 274.15C1315.37 276.05 1312.15 277 1307.45 277ZM1308.45 254.1V251.15C1308.45 250.617 1308.25 250.183 1307.85 249.85C1307.45 249.483 1306.53 249.3 1305.1 249.3C1303.6 249.3 1302.65 249.483 1302.25 249.85C1301.85 250.183 1301.65 250.617 1301.65 251.15V254.1C1301.65 254.6 1301.85 255.033 1302.25 255.4C1302.65 255.733 1303.6 255.9 1305.1 255.9C1306.53 255.9 1307.45 255.733 1307.85 255.4C1308.25 255.033 1308.45 254.6 1308.45 254.1Z" fill="#5A06FF"/>
<circle cx="1438" cy="260" r="63" fill="#E8E2F3"/>
<path d="M1413.46 277H1391.36C1390.72 277 1390.26 276.867 1389.96 276.6C1389.69 276.3 1389.56 275.833 1389.56 275.2V269.15C1389.56 268.517 1389.69 268.067 1389.96 267.8C1390.26 267.5 1390.72 267.35 1391.36 267.35H1396.96V250.65H1392.36C1391.72 250.65 1391.26 250.517 1390.96 250.25C1390.69 249.95 1390.56 249.483 1390.56 248.85V242.8C1390.56 242.167 1390.69 241.717 1390.96 241.45C1391.26 241.15 1391.72 241 1392.36 241H1406.86C1407.49 241 1407.94 241.15 1408.21 241.45C1408.51 241.717 1408.66 242.167 1408.66 242.8V267.35H1413.46C1414.09 267.35 1414.54 267.5 1414.81 267.8C1415.11 268.067 1415.26 268.517 1415.26 269.15V275.2C1415.26 275.833 1415.11 276.3 1414.81 276.6C1414.54 276.867 1414.09 277 1413.46 277ZM1450.64 267.55C1450.64 269.083 1450.42 270.483 1449.99 271.75C1449.55 272.983 1448.77 274.05 1447.64 274.95C1446.5 275.817 1444.94 276.5 1442.94 277C1440.97 277.5 1438.45 277.75 1435.39 277.75C1432.32 277.75 1429.79 277.5 1427.79 277C1425.82 276.5 1424.27 275.817 1423.14 274.95C1422 274.05 1421.2 272.983 1420.74 271.75C1420.3 270.483 1420.09 269.083 1420.09 267.55V250.5C1420.09 248.967 1420.3 247.583 1420.74 246.35C1421.2 245.083 1422 244 1423.14 243.1C1424.27 242.2 1425.82 241.5 1427.79 241C1429.79 240.5 1432.32 240.25 1435.39 240.25C1438.45 240.25 1440.97 240.5 1442.94 241C1444.94 241.5 1446.5 242.2 1447.64 243.1C1448.77 244 1449.55 245.083 1449.99 246.35C1450.42 247.583 1450.64 248.967 1450.64 250.5V267.55ZM1431.39 265.75C1431.39 266.417 1431.62 266.983 1432.09 267.45C1432.59 267.883 1433.69 268.1 1435.39 268.1C1437.09 268.1 1438.17 267.883 1438.64 267.45C1439.14 266.983 1439.39 266.417 1439.39 265.75V252.3C1439.39 251.667 1439.14 251.133 1438.64 250.7C1438.17 250.233 1437.09 250 1435.39 250C1433.69 250 1432.59 250.233 1432.09 250.7C1431.62 251.133 1431.39 251.667 1431.39 252.3V265.75ZM1486.96 267.55C1486.96 269.083 1486.75 270.483 1486.31 271.75C1485.88 272.983 1485.1 274.05 1483.96 274.95C1482.83 275.817 1481.26 276.5 1479.26 277C1477.3 277.5 1474.78 277.75 1471.71 277.75C1468.65 277.75 1466.11 277.5 1464.11 277C1462.15 276.5 1460.6 275.817 1459.46 274.95C1458.33 274.05 1457.53 272.983 1457.06 271.75C1456.63 270.483 1456.41 269.083 1456.41 267.55V250.5C1456.41 248.967 1456.63 247.583 1457.06 246.35C1457.53 245.083 1458.33 244 1459.46 243.1C1460.6 242.2 1462.15 241.5 1464.11 241C1466.11 240.5 1468.65 240.25 1471.71 240.25C1474.78 240.25 1477.3 240.5 1479.26 241C1481.26 241.5 1482.83 242.2 1483.96 243.1C1485.1 244 1485.88 245.083 1486.31 246.35C1486.75 247.583 1486.96 248.967 1486.96 250.5V267.55ZM1467.71 265.75C1467.71 266.417 1467.95 266.983 1468.41 267.45C1468.91 267.883 1470.01 268.1 1471.71 268.1C1473.41 268.1 1474.5 267.883 1474.96 267.45C1475.46 266.983 1475.71 266.417 1475.71 265.75V252.3C1475.71 251.667 1475.46 251.133 1474.96 250.7C1474.5 250.233 1473.41 250 1471.71 250C1470.01 250 1468.91 250.233 1468.41 250.7C1467.95 251.133 1467.71 251.667 1467.71 252.3V265.75Z" fill="#5A06FF"/>
<defs>
<filter id="filter0_d" x="25.1166" y="22.7" width="1463.53" height="143" filterUnits="userSpaceOnUse" color-interpolation-filters="sRGB">
<feFlood flood-opacity="0" result="BackgroundImageFix"/>
<feColorMatrix in="SourceAlpha" type="matrix" values="0 0 0 0 0 0 0 0 0 0 0 0 0 0 0 0 0 0 127 0" result="hardAlpha"/>
<feOffset dy="4"/>
<feGaussianBlur stdDeviation="2"/>
<feComposite in2="hardAlpha" operator="out"/>
<feColorMatrix type="matrix" values="0 0 0 0 0 0 0 0 0 0 0 0 0 0 0 0 0 0 0.25 0"/>
<feBlend mode="normal" in2="BackgroundImageFix" result="effect1_dropShadow"/>
<feBlend mode="normal" in="SourceGraphic" in2="effect1_dropShadow" result="shape"/>
</filter>
</defs>
</svg>
